<?xml version="1.0" encoding="utf-8"?>
<!-- Generator: Adobe Illustrator 18.0.0, SVG Export Plug-In . SVG Version: 6.00 Build 0)  -->
<!DOCTYPE svg PUBLIC "-//W3C//DTD SVG 1.1//EN" "http://www.w3.org/Graphics/SVG/1.1/DTD/svg11.dtd">
<svg version="1.1" id="Layer_1" xmlns="http://www.w3.org/2000/svg" xmlns:xlink="http://www.w3.org/1999/xlink" x="0px" y="0px"
	 viewBox="0 0 498.8 158.8" enable-background="new 0 0 498.8 158.8" xml:space="preserve">
<g>
	<path fill="#495259" d="M22.4,71.3c-2.3,3.8-5.8,6.5-10.4,6.5C1.6,77.9,0,65.3,0,57.4c0-8,1.6-20.6,12-20.6c4.6,0,7.7,2.6,9.8,6.5
		l-3.4,2c-1.3-2.5-3.3-4.7-6.4-4.7c-7.3,0-7.8,11.5-7.8,16.8c0,5.2,0.5,16.7,7.8,16.7c3.1,0,5.6-2.6,7.1-5L22.4,71.3z"/>
	<path fill="#495259" d="M41.7,65l-3.1,13.1l-4-1.1l10.1-39.7h4.8L59.7,77l-4,1.1L52.6,65H41.7z M47.2,42.7h-0.1l-4.4,18.7h9
		L47.2,42.7z"/>
	<path fill="#495259" d="M72.7,37.3h5L89.6,71l0.1-0.1l-0.2-8.9V37.3h4v40h-5L76.7,43.6l-0.1,0.1l0.2,9.1v24.5h-4V37.3z"/>
	<path fill="#495259" d="M127.8,36.5l3.7,1.5l-10.4,23.5v15.8h-4V61.6L106.8,38l3.7-1.5l8.6,20.3L127.8,36.5z"/>
	<path fill="#495259" d="M166.3,57.3c0,5,0.2,20.6-11.1,20.6c-11.4,0-11.1-15.4-11.1-20.6c0-6.6,0.4-20.5,11.1-20.5
		C166.4,36.8,166.3,52,166.3,57.3z M148.3,57.3c0,10.8,1.3,16.8,6.9,16.8c7,0,6.9-9.8,6.9-16.8c0-7.6,0.2-16.7-6.9-16.7
		C148.1,40.6,148.3,51.4,148.3,57.3z"/>
	<path fill="#495259" d="M180.7,37.3h5L197.6,71l0.1-0.1l-0.2-8.9V37.3h4v40h-5l-11.9-33.7l-0.1,0.1l0.2,9.1v24.5h-4V37.3z"/>
	<path fill="#495259" d="M58.4,119.3c-2.3,3.8-5.8,6.5-10.4,6.5c-10.4,0-12-12.6-12-20.5c0-8,1.6-20.6,12-20.6
		c4.6,0,7.7,2.6,9.8,6.5l-3.4,2c-1.3-2.5-3.3-4.7-6.4-4.7c-7.3,0-7.8,11.5-7.8,16.8c0,5.2,0.5,16.7,7.8,16.7c3.1,0,5.6-2.6,7.1-5
		L58.4,119.3z"/>
	<path fill="#495259" d="M74.9,85.3h10.8c4,0,8.9,3.4,8.9,10.6c0,4.9-2,9.6-6.9,11.3l8.3,17.2l-3.6,1.7l-9-18.6h-4.5v17.8h-4V85.3z
		 M78.9,103.9h5.9c3.5,0,5.6-2.6,5.6-8c0-5.2-2.5-7-6.6-7h-4.9V103.9z"/>
	<path fill="#495259" d="M110.6,85.3h19.5v3.6h-15.5v13.2h12.8v3.6h-12.8v16h15.5v3.6h-19.5V85.3z"/>
	<path fill="#495259" d="M146.6,85.3h19.5v3.6h-15.5v13.2h12.8v3.6h-12.8v16h15.5v3.6h-19.5V85.3z"/>
	<path fill="#495259" d="M186.9,101.8h1.1l11.2-17.3l3.2,2l-11,16.9l13.1,20.6l-3.4,2l-12.9-20.7h-1.4v19.9h-4v-40h4V101.8z"/>
</g>
<g>
	<path fill="#495259" d="M298,73.5l-0.9,0.1l-1.7-6.1c-1.9-0.5-3.7-0.7-5.2-0.7c-3.8,0-6.8,1.3-9,4c-2.2,2.7-3.3,6.1-3.3,10.3
		c0,4.5,1.2,8.2,3.7,10.9c2.5,2.7,5.9,4.1,10.3,4.1c2.5,0,5.1-0.5,7.8-1.4l0.3,1c-3.1,2.1-6.5,3.2-10.4,3.2c-5,0-9.1-1.5-12.2-4.6
		c-3.1-3.1-4.6-7.1-4.6-12.1c0-5.3,1.7-9.5,5.1-12.7c3.4-3.1,7.9-4.7,13.3-4.7c2.6,0,5.3,0.3,8.1,1l0.2,0.2L298,73.5z"/>
	<path fill="#495259" d="M325.3,64.9l10.3,28.5c0.4,1.1,0.7,1.8,1.1,2.2c0.3,0.4,0.8,0.7,1.4,0.9l2.2,0.7l0,1c-2,0-3.9-0.1-5.7-0.1
		c-1.8,0-3.9,0-6.3,0.1l-0.1-1l2.2-0.7c0.3-0.1,0.5-0.2,0.7-0.4c0.1-0.1,0.2-0.3,0.2-0.6c0-0.3-0.1-0.7-0.2-1.2
		c-0.2-0.5-0.4-1.2-0.7-2l-2.2-6.2H317l-2.4,6.2c-0.3,0.9-0.6,1.6-0.8,2.1c-0.2,0.5-0.3,0.9-0.3,1.2c0,0.3,0.1,0.5,0.2,0.6
		c0.1,0.1,0.4,0.2,0.7,0.3l2.2,0.6l0,1c-2.2,0-4-0.1-5.4-0.1s-3,0-4.7,0.1l-0.1-1l2.4-0.7c0.6-0.2,1-0.5,1.3-0.9
		c0.3-0.4,0.6-1,0.9-1.8l11.9-28.4L325.3,64.9z M317.9,83.8h9.6L323,71L317.9,83.8z"/>
	<path fill="#495259" d="M356.6,90.8c0,0.9,0,1.8,0,2.5c0,0.7,0,1.4,0,2c0,0.4,0.2,0.6,0.6,0.7l3.2,1l0,1c-2.3,0-4.3-0.1-6.2-0.1
		c-1.9,0-3.8,0-5.8,0.1l-0.1-1l2.9-0.9c0.4-0.1,0.6-0.4,0.6-0.7c0-0.6,0-1.3,0-2.1c0-0.8,0-1.6,0-2.6V71.9c0-0.8,0-1.5,0-2.1
		c0-0.6,0-1.2,0-1.7c0-0.4-0.2-0.7-0.6-0.8l-2.9-0.9l0-1c2,0.1,4,0.1,5.9,0.1c1.3,0,2.5,0,3.7-0.1c1.2-0.1,2.3-0.1,3.3-0.1
		c3.7,0,6.5,0.7,8.4,2.2c1.9,1.4,2.8,3.6,2.8,6.4c0,3.3-1.1,5.9-3.3,7.8c-2.2,1.8-5.2,2.8-9.2,2.8c-1.1,0-2.2-0.1-3.5-0.2V90.8z
		 M356.6,82.2c1.1,0.2,2.2,0.3,3.2,0.3c2.5,0,4.4-0.6,5.7-1.9c1.3-1.3,1.9-3.2,1.9-5.9c0-2.5-0.6-4.4-1.9-5.7
		c-1.2-1.2-3.2-1.9-5.8-1.9c-1,0-2.1,0.1-3.1,0.2V82.2z"/>
	<path fill="#495259" d="M389.6,90.8c0,0.9,0,1.8,0,2.5c0,0.8,0,1.5,0,2.1c0,0.4,0.3,0.7,0.8,0.8l2.6,0.8l0,1c-2,0-3.9-0.1-5.8-0.1
		c-1.9,0-3.8,0-5.8,0.1l-0.1-1l2.9-0.9c0.4-0.1,0.6-0.3,0.6-0.7c0-0.6,0-1.3,0-2.1c0-0.8,0-1.6,0-2.6V71.9c0-0.8,0-1.5,0-2.1
		c0-0.6,0-1.2,0-1.7c0-0.4-0.2-0.7-0.6-0.8l-2.9-0.9l0-1c2,0.1,3.9,0.1,5.8,0.1c1.9,0,3.8,0,5.8-0.1l0.1,1l-2.9,0.9
		c-0.4,0.1-0.6,0.3-0.6,0.7c0,0.5,0,1.1,0,1.8c0,0.6,0,1.3,0,2.1V90.8z"/>
	<path fill="#495259" d="M416.3,98c-1.9,0-4,0-6.3,0.1l-0.1-1l3.4-1c0.4-0.1,0.6-0.3,0.6-0.7c0-1.2,0-2.7,0-4.5V67.5h-8.2l-2.1,6.2
		l-0.9,0.2l-0.6-8.3l0.2-0.2c3.8,0.1,7.5,0.1,11,0.1h6.2c3.5,0,7.2,0,11-0.1l0.1,0.2l-1.5,8.2l-0.9,0.2l-1.5-6.4h-8.2v23.3
		c0,1.8,0,3.3,0,4.5c0,0.4,0.2,0.6,0.6,0.7l3.5,1l0,1C420.3,98,418.2,98,416.3,98z"/>
	<path fill="#495259" d="M452.1,64.9l10.3,28.5c0.4,1.1,0.7,1.8,1.1,2.2c0.3,0.4,0.8,0.7,1.4,0.9l2.2,0.7l0,1c-2,0-3.9-0.1-5.7-0.1
		c-1.8,0-3.9,0-6.3,0.1l-0.1-1l2.2-0.7c0.3-0.1,0.5-0.2,0.7-0.4c0.1-0.1,0.2-0.3,0.2-0.6c0-0.3-0.1-0.7-0.2-1.2
		c-0.2-0.5-0.4-1.2-0.7-2l-2.2-6.2h-11.2l-2.4,6.2c-0.3,0.9-0.6,1.6-0.8,2.1c-0.2,0.5-0.3,0.9-0.3,1.2c0,0.3,0.1,0.5,0.2,0.6
		c0.1,0.1,0.4,0.2,0.7,0.3l2.2,0.6l0,1c-2.2,0-4-0.1-5.4-0.1s-3,0-4.7,0.1l-0.1-1l2.4-0.7c0.6-0.2,1-0.5,1.3-0.9
		c0.3-0.4,0.6-1,0.9-1.8l11.9-28.4L452.1,64.9z M444.7,83.8h9.6L449.7,71L444.7,83.8z"/>
	<path fill="#495259" d="M483.3,71.8v18.9c0,1.7,0,3.4,0,5.1h11.4l3-6.2l1-0.2l-0.5,8.3l-0.1,0.2c-4,0-7.7-0.1-11.2-0.1h-5.9
		c-1.9,0-3.8,0-5.8,0.1l-0.1-1l2.9-0.9c0.4-0.1,0.6-0.3,0.6-0.7c0-0.6,0-1.3,0-2.1c0-0.8,0-1.6,0-2.6V71.9c0-0.8,0-1.5,0-2.1
		c0-0.6,0-1.2,0-1.7c0-0.4-0.2-0.7-0.6-0.8l-2.9-0.9l0-1c2,0.1,3.9,0.1,5.8,0.1c1.9,0,3.8,0,5.8-0.1l0.1,1l-2.9,0.9
		c-0.4,0.1-0.6,0.3-0.6,0.7c0,0.5,0,1.3,0,2.4C483.3,71.4,483.3,71.9,483.3,71.8z"/>
</g>
<path fill="#495259" d="M246.1,0c-5.7,0.5-23.4,21.4-23.4,36c0,14.6,22.9,29.2,22.9,63.4c0,34.2-19.7,43.3-19.7,59.5
	c0-2.5,27.3-32.5,27.3-61.9c0-40-26.7-49.1-26.7-67.8C226.6,14.8,246.1,0,246.1,0z"/>
</svg>
