<?xml version="1.0" encoding="utf-8"?>
<!-- Generator: Adobe Illustrator 18.0.0, SVG Export Plug-In . SVG Version: 6.00 Build 0)  -->
<!DOCTYPE svg PUBLIC "-//W3C//DTD SVG 1.1//EN" "http://www.w3.org/Graphics/SVG/1.1/DTD/svg11.dtd">
<svg version="1.1" id="Layer_1" xmlns="http://www.w3.org/2000/svg" xmlns:xlink="http://www.w3.org/1999/xlink" x="0px" y="0px"
	 viewBox="0 0 166.2 56.7" enable-background="new 0 0 166.2 56.7" xml:space="preserve">
<g>
	<path fill-rule="evenodd" clip-rule="evenodd" fill="#495259" d="M72,13.7h-1.7c-0.3,1.1-1,1.9-2.2,1.9c-0.6,0-1.2-0.2-1.6-0.7
		c-0.5-0.6-0.7-1.2-0.7-3.4c0-2.2,0.1-2.8,0.7-3.4c0.4-0.4,1-0.7,1.6-0.7c1.2,0,2,0.8,2.2,1.9H72c-0.4-2.2-1.9-3.4-3.9-3.4
		c-1.1,0-2.1,0.4-2.9,1.2c-1.1,1.1-1.1,2.3-1.1,4.4c0,2.1,0,3.3,1.1,4.4c0.8,0.8,1.7,1.2,2.9,1.2C70.1,17.1,71.6,15.9,72,13.7
		L72,13.7z M81.6,17l-4-11h-1.3l-4,11H74l0.8-2.2H79l0.8,2.2H81.6L81.6,17z M78.6,13.4h-3.4l1.7-4.9L78.6,13.4L78.6,13.4z M90.2,9.3
		c0-1.9-1.4-3.3-3.5-3.3h-4.2v11h1.7v-4.3h2.5C88.9,12.7,90.2,11.3,90.2,9.3L90.2,9.3z M88.6,9.3c0,1.2-0.8,1.8-1.9,1.8h-2.4V7.5
		h2.4C87.8,7.5,88.6,8.2,88.6,9.3L88.6,9.3z M93.4,17V6h-1.7v11H93.4L93.4,17z M102.4,7.5V6h-7.7v1.5h3V17h1.7V7.5H102.4L102.4,7.5z
		 M110.9,17l-4-11h-1.3l-4,11h1.8l0.8-2.2h4.3l0.8,2.2H110.9L110.9,17z M107.9,13.4h-3.4l1.7-4.9L107.9,13.4L107.9,13.4z M118.8,17
		v-1.5h-5.3V6h-1.7v11H118.8L118.8,17z M131.9,13.3V6h-1.7v7.2c0,1.5-0.9,2.4-2.3,2.4c-1.4,0-2.3-0.9-2.3-2.4V6H124v7.3
		c0,2.3,1.7,3.8,3.9,3.8C130.2,17.1,131.9,15.5,131.9,13.3L131.9,13.3z M142.3,17V6h-1.7v7.7L135.6,6H134v11h1.7V9.3l5.1,7.7H142.3
		L142.3,17z M146.3,17V6h-1.7v11H146.3L146.3,17z M156.1,11.5c0-2.1,0-3.3-1-4.4c-0.8-0.8-1.7-1.2-2.9-1.2c-1.2,0-2.1,0.4-2.9,1.2
		c-1.1,1.1-1.1,2.3-1.1,4.4c0,2.1,0,3.3,1.1,4.4c0.8,0.8,1.7,1.2,2.9,1.2c1.2,0,2.1-0.4,2.9-1.2C156.1,14.8,156.1,13.6,156.1,11.5
		L156.1,11.5z M154.4,11.5c0,2.2-0.1,2.8-0.6,3.4c-0.4,0.4-1,0.7-1.6,0.7c-0.6,0-1.2-0.3-1.6-0.7c-0.5-0.6-0.6-1.2-0.6-3.4
		c0-2.2,0.1-2.8,0.6-3.4c0.4-0.4,1-0.7,1.6-0.7c0.6,0,1.2,0.3,1.6,0.7C154.3,8.7,154.4,9.3,154.4,11.5L154.4,11.5z M166.2,17V6h-1.7
		v7.7L159.5,6H158v11h1.7V9.3l5.1,7.7H166.2L166.2,17z M66.2,33.9v-11h-1.7v11H66.2L66.2,33.9z M76.8,33.9v-11h-1.7v7.7L70,22.9
		h-1.5v11h1.7v-7.7l5.1,7.7H76.8L76.8,33.9z M86.2,22.9h-1.8l-2.5,8l-2.5-8h-1.7l3.6,11h1.3L86.2,22.9L86.2,22.9z M94.2,33.9v-1.5
		h-5.3v-3.3h4.6v-1.5h-4.6v-3.2h5.3v-1.5h-7v11H94.2L94.2,33.9z M102.8,30.7c0-0.9-0.3-1.7-0.9-2.2c-0.5-0.4-1-0.7-2-0.8l-1.2-0.2
		c-0.5-0.1-1-0.3-1.2-0.5c-0.3-0.3-0.4-0.6-0.4-1c0-1,0.7-1.7,2-1.7c0.9,0,1.7,0.2,2.4,0.8l1.1-1c-0.9-0.9-2-1.2-3.4-1.2
		c-2.3,0-3.7,1.3-3.7,3.2c0,0.9,0.3,1.6,0.8,2.1c0.5,0.4,1.2,0.8,2.1,0.9l1.3,0.2c0.6,0.1,0.9,0.2,1.2,0.5c0.3,0.3,0.4,0.7,0.4,1.1
		c0,1.1-0.8,1.7-2.3,1.7c-1.1,0-2-0.2-2.8-1L95,32.5c1,1.1,2.2,1.4,3.9,1.4C101.1,34,102.8,32.8,102.8,30.7L102.8,30.7z M111.2,24.4
		v-1.5h-7.7v1.5h3v9.5h1.7v-9.5H111.2L111.2,24.4z M122.2,33.9v-11h-1.7l-3.1,6.8l-3.2-6.8h-1.7v11h1.7v-7.3l2.6,5.3h1.2l2.5-5.3
		v7.3H122.2L122.2,33.9z M131.5,33.9v-1.5h-5.3v-3.3h4.6v-1.5h-4.6v-3.2h5.3v-1.5h-7v11H131.5L131.5,33.9z M141.5,33.9v-11h-1.7v7.7
		l-5.1-7.7h-1.5v11h1.7v-7.7l5.1,7.7H141.5L141.5,33.9z M150.5,24.4v-1.5h-7.7v1.5h3v9.5h1.7v-9.5H150.5L150.5,24.4z M158.7,30.7
		c0-0.9-0.3-1.7-0.9-2.2c-0.5-0.4-1-0.7-2-0.8l-1.2-0.2c-0.5-0.1-1-0.3-1.2-0.5c-0.3-0.3-0.4-0.6-0.4-1c0-1,0.7-1.7,2-1.7
		c0.9,0,1.7,0.2,2.4,0.8l1.1-1c-0.9-0.9-2-1.2-3.4-1.2c-2.3,0-3.7,1.3-3.7,3.2c0,0.9,0.3,1.6,0.8,2.1c0.5,0.4,1.2,0.8,2.1,0.9
		l1.3,0.2c0.6,0.1,0.9,0.2,1.2,0.5c0.3,0.3,0.4,0.7,0.4,1.1c0,1.1-0.8,1.7-2.3,1.7c-1.1,0-2-0.2-2.8-1l-1.1,1.1
		c1,1.1,2.2,1.4,3.9,1.4C157,34,158.7,32.8,158.7,30.7L158.7,30.7z M71.5,50.8v-1.5h-5.3v-9.5h-1.7v11H71.5L71.5,50.8z M74.5,50.8
		v-11h-1.7v11H74.5L74.5,50.8z M86.5,50.8v-11h-1.7l-3.1,6.8l-3.2-6.8h-1.7v11h1.7v-7.3l2.6,5.3h1.2l2.5-5.3v7.3H86.5L86.5,50.8z
		 M90.4,50.8v-11h-1.7v11H90.4L90.4,50.8z M99.4,41.3v-1.5h-7.7v1.5h3v9.5h1.7v-9.5H99.4L99.4,41.3z M107.8,50.8v-1.5h-5.3V46h4.6
		v-1.5h-4.6v-3.2h5.3v-1.5h-7v11H107.8L107.8,50.8z M117.3,45.2c0-1.6,0.1-3.2-1.1-4.4c-0.7-0.7-1.7-1-2.8-1h-3.8v11h3.8
		c1.1,0,2.1-0.3,2.8-1C117.4,48.5,117.3,46.8,117.3,45.2L117.3,45.2z M115.6,45.2c0,1.5,0,2.7-0.6,3.3c-0.5,0.5-1.1,0.7-1.9,0.7h-2
		v-8h2c0.8,0,1.4,0.2,1.9,0.7C115.6,42.7,115.6,43.7,115.6,45.2L115.6,45.2z"/>
	<path fill-rule="evenodd" clip-rule="evenodd" fill="#495259" d="M46.6,0h-41C2.5,0,0,2.5,0,5.6v45.6c0,3.1,2.5,5.5,5.6,5.6h41
		c3.1,0,5.5-2.5,5.6-5.6V5.6C52.1,2.5,49.7,0,46.6,0z M14.6,11.5L14.6,11.5L14.6,11.5c-1,0-1.9,0.3-2.4,0.9
		c-0.6,0.6-0.9,1.5-0.9,2.6v0c0,13.7,0,13.2,0,26.9v0c0,1.1,0.3,2,0.9,2.6c0.6,0.6,1.4,0.9,2.4,0.9h0h0v4.8c0,0,0,0,0,0h0h0
		c-2.4,0-4.5-0.8-6-2.3C7,46.5,6.1,44.4,6.1,42v0c0-13.8,0-13.4,0-27.1v0c0-2.4,0.9-4.5,2.4-5.9c1.5-1.4,3.6-2.3,6-2.3h0h0
		c0,0,0,0,0,0V11.5z M34.8,7.7V42v0c0,2.4-0.9,4.5-2.5,5.9c-1.5,1.4-3.6,2.3-6,2.3h0h0c-2.4,0-4.5-0.8-6-2.3
		c-1.5-1.4-2.4-3.5-2.4-5.9v0V7.7v-1h1h3.2h1v1v34.2v0c0,1.1,0.3,2,0.9,2.6c0.6,0.6,1.4,0.9,2.4,0.9h0h0c1,0,1.9-0.3,2.4-0.9
		c0.6-0.6,0.9-1.5,0.9-2.6v0V7.7v-1h1h3.2h1V7.7z M44.9,7.7V49v1h-1h-3.2h-1v-1V7.7v-1h1h3.2h1V7.7z"/>
</g>
</svg>
