<?xml version="1.0" encoding="utf-8"?>
<!-- Generator: Adobe Illustrator 18.0.0, SVG Export Plug-In . SVG Version: 6.00 Build 0)  -->
<!DOCTYPE svg PUBLIC "-//W3C//DTD SVG 1.1//EN" "http://www.w3.org/Graphics/SVG/1.1/DTD/svg11.dtd">
<svg version="1.1" id="Layer_1" xmlns="http://www.w3.org/2000/svg" xmlns:xlink="http://www.w3.org/1999/xlink" x="0px" y="0px"
	 viewBox="0 0 787.9 113" enable-background="new 0 0 787.9 113" xml:space="preserve">
<g>
	<path fill="#505050" d="M254.9,0c0.1,1.3,0.4,2.6,0.4,3.9c0,35,0,70.1,0,105.1c0,1.3-0.2,2.6-0.4,3.9C170,113,85,113,0,113
		C0,75.4,0,37.9,0,0C84.9,0,169.9,0,254.9,0z M249.8,5.7c-81.7,0-162.8,0-244.1,0c0,34.1,0,67.8,0,101.7c81.6,0,162.8,0,244.1,0
		C249.8,73.3,249.8,39.7,249.8,5.7z"/>
	<path fill="#505050" d="M780.9,69c-5.9,10.8-22.3,15-32.9,8.5c-2.5-1.6-3.7-3.8-3.7-6.6c0-2.5,0.3-4.9,0.4-7.6c1.9,0,3.5,0,5,0
		c3.3,8,6.2,9.8,13.9,9c2.9-0.3,5.3-1.3,5.9-4.4c0.5-3.2-1.5-4.8-4.3-5.9c-3.6-1.3-7.2-2.5-10.7-4c-7-2.9-10.1-7.7-9.4-14.2
		c0.7-6.6,5-11.5,12.2-12.6c4.7-0.7,9.6-0.6,14.3-0.1c5.9,0.6,7.4,2.7,7.2,8.6c0,2-0.3,3.9-0.5,6.2c-1.9,0-3.5,0-5.1,0
		c-3.2-7.3-5.1-8.6-11.6-7.8c-2.6,0.3-5,1.3-5.5,4.2c-0.5,2.9,1.3,4.7,3.9,5.7c2.9,1.2,5.9,2.2,8.9,3.2c5.2,1.8,9.5,4.6,11.9,9.9
		C780.9,63.7,780.9,66.3,780.9,69z"/>
	<path fill="#505050" d="M485.2,31.4c6.3,0,12.1,0,18.6,0c6.4,9.4,13.1,19.2,20.1,29.3c0-7.9,0-15,0-22.4c-2.3-0.7-4-1.2-6-1.7
		c0-1.5,0-3.1,0-5c6.5,0,12.9,0,19.7,0c0.1,1.6,0.2,3.1,0.3,4.9c-1.9,0.6-3.6,1.1-6.4,2c0,13.1,0,26.5,0,39.2
		c-5.8,3.3-8.4,2.9-11.5-1.7c-5.9-8.7-11.7-17.4-17.5-26.1c-0.9-1.4-1.9-2.7-3.4-4.9c0,9.7,0,18.4,0,27.3c2.1,0.6,3.8,1,5.8,1.5
		c0,1.6,0,3.2,0,5.1c-6.5,0-12.9,0-19.7,0c-0.1-1.7-0.2-3.2-0.3-5c1.9-0.4,3.4-0.8,6-1.5c0.6-11.1,0.9-22.4,0.3-34.1
		c-2.2-0.6-4-1.1-6.1-1.7C485.2,35.1,485.2,33.5,485.2,31.4z"/>
	<path fill="#505050" d="M686.5,38.1c-1.9-0.5-3.5-0.9-5.4-1.4c0-1.5,0-3.1,0-5.3c10.5,0.1,20.9-0.9,31.2,1.2
		c5.2,1.1,8.5,4.6,9.3,9.9c0.8,5.5-0.3,10.6-5,14.4c-1.2,0.9-2.5,1.6-4.1,2.7c3.9,5.7,7.4,11.5,14.3,14.1c0,1.7,0,3.3,0,5.1
		c-7.1,1.3-13.1-0.1-17.5-5.8c-2.4-3-4.4-6.3-6.4-9.5c-1.1-1.8-2-3.5-4.4-2.7c0,3.9,0,7.8,0,11.7c1.9,0.5,3.4,0.8,5.2,1.3
		c0.1,1.5,0.2,3.1,0.4,5.1c-7.7,0-15.1,0-22.9,0c-0.1-1.5-0.2-3.1-0.3-4.8c1.9-0.6,3.6-1,5.7-1.6C686.5,61,686.5,49.8,686.5,38.1z
		 M698.3,39.6c0,4.5,0,8.7,0,13.1c4.3,0,8.5,0.7,11.2-3.2c1.6-2.3,1.7-5.2-0.1-7.5C706.5,38.5,702.3,39.5,698.3,39.6z"/>
	<path fill="#505050" d="M554.5,79c0-2.1,0-3.5,0-5.2c1.7-0.4,3.3-0.8,4.8-1.1c1.5-3.9,1.9-27.7,0.5-34.6c-1.5-0.4-3.2-0.9-5.2-1.4
		c0-1.5,0-3,0-5.3c6.1,0,12.1-0.2,18,0.1c5.3,0.2,10.7,0.6,15.8,1.7c3.1,0.7,6.4,2.4,8.6,4.7c7,7.5,6.7,16.7,4.5,25.8
		c-2,8.3-8,12.7-16.2,14.4c-2.4,0.5-4.9,0.9-7.4,1C570.1,79.1,562.5,79,554.5,79z M571.9,39.4c0,10.8,0,20.8,0,31.2
		c5.9,1.4,11.3,1.5,15.5-3c4-4.3,4.8-15.8,1.6-21.9C585.3,38.6,578.6,39.9,571.9,39.4z"/>
	<path fill="#505050" d="M347.7,55.6c0-20.2,19-31.8,37.1-22.6c1.5,0.7,3,1.6,4.1,2.8c7.6,8,7.8,17.7,5.5,27.6
		c-2.1,8.9-8,14.6-17,16.2C359.1,82.7,347.5,73,347.7,55.6z M384.1,55.2c-0.4-2.6-0.5-5-1-7.2c-1.4-6.5-4.9-9.5-10.8-9.8
		c-5.9-0.2-10.6,3.1-12.2,9c-1.5,5.6-1.4,11.2,0.4,16.7c1.8,5.6,5.4,8.2,11.1,8.1c5.5,0,9.5-2.9,11-8.3
		C383.5,60.8,383.7,57.8,384.1,55.2z"/>
	<path fill="#505050" d="M638.6,39.2c0,4,0,7.7,0,11.7c2.3,0,4.4,0,6.7,0c0.9-1.6,1.7-3,2.6-4.5c1.4,0,2.9,0,4.6,0
		c0,5.5,0,10.9,0,16.6c-1.5,0.1-2.9,0.1-4.4,0.2c-0.7-1.5-1.4-2.8-2.2-4.5c-2.2-0.2-4.4-0.4-7-0.7c0,4.7,0,8.9,0,14
		c5.6-0.3,10.8-0.5,15.7-0.7c1.3-2.6,2.1-4.2,3.1-6.2c1.5,0,3.2,0,5.6,0c-0.4,4.1-0.8,8-1.3,12.2c-2,0.6-3.7,1.5-5.4,1.6
		c-11.5,0.1-23,0.1-35,0.1c-0.1-1.7-0.2-3.3-0.4-5.1c1.9-0.5,3.6-1,5.8-1.6c0-11.2,0-22.4,0-33.9c-1.8-0.6-3.5-1.1-5.5-1.7
		c0-1.5,0-3,0-5.3c12.7,0.1,25.2-0.2,38.4,0.2c0,4.8,0,8.6,0,12.8c-2.2,0-3.9,0-5.9,0c-0.7-1.6-1.4-3.2-2.3-5.2
		C647.5,39.2,643.4,39.2,638.6,39.2z"/>
	<path fill="#505050" d="M414.1,36.6c0-1.8,0-3.3,0-5.1c7.9,0,15.7,0,23.7,0c0,1.8,0,3.4,0,5.1c-1.8,0.4-3.6,0.8-5.6,1.3
		c-0.3,1.3-0.8,2.5-0.8,3.8c-0.1,6.3-0.4,12.7,0.1,19c0.6,9.7,4.9,12.8,14.5,11.2c4.6-0.8,7.3-3.2,7.8-7.8c0.4-3.5,0.4-7,0.4-10.5
		c0.1-5,0-9.9,0-15c-2.6-0.9-4.4-1.5-6.5-2.2c0-1.5,0-3.1,0-5c6.6,0,12.8,0,19.6,0c0.1,1.5,0.3,3.1,0.5,4.9
		c-1.9,0.6-3.6,1.2-5.9,1.9c-0.2,1.8-0.6,3.9-0.7,6c-0.2,6.5,0,13-0.3,19.5c-0.4,8.9-4.6,14.2-13.3,15.6c-5.4,0.8-11.3,0.4-16.8-0.6
		c-5.9-1.1-9.6-5.4-10-11.6c-0.5-7.5-0.5-15-0.7-22.4c-0.1-2.1-0.2-4.3-0.3-6.5C417.8,37.7,416,37.2,414.1,36.6z"/>
	<path fill="#505050" d="M329.5,32c-0.2,4.6-0.4,8.4-0.6,12.5c-2.3,0-4,0-5.9,0c-0.7-1.4-1.3-2.8-2.2-4.8c-4.1,0-8.4,0-12.9,0
		c0,4,0,8.3,0,13.1c3-0.2,5.5-0.4,8-0.5c0.8-1.7,1.5-3.1,2.3-4.7c1.3-0.1,2.7-0.1,4.4-0.2c0,5.9,0,11.5,0,17.5
		c-1.3,0.1-2.5,0.1-4,0.2c-0.7-1.5-1.3-3-2.2-5c-2.5-0.2-5.3-0.3-8.4-0.5c0,4.4,0,8.3,0,12.5c2.2,0.6,4.3,1.2,6.7,1.8
		c0,1.5,0,3.1,0,5.1c-8,0-15.9,0-24.1,0c0-1.8,0-3.4,0-5.2c1.7-0.4,3.3-0.7,5.7-1.2c0.5-11.3,0.4-22.7,0.1-34.1
		c-2.3-0.7-4-1.2-6-1.8c0.1-1.6,0.1-3.2,0.2-5.3C303.5,31.6,316,30.7,329.5,32z"/>
	<path fill="#505050" d="M197.9,78.9c0-2,0-3.5,0-5.1c1.7-0.4,3.3-0.8,5.4-1.2c0-4.5,0-9.1,0-14.1c-5.2,0-10.6,0-16.5,0
		c0,4.5,0,9.2,0,13.9c2,0.5,3.6,0.8,5.5,1.3c0.1,1.6,0.2,3.2,0.3,5.1c-7.9,0-15.5,0-23.3,0c0-1.7,0-3.1,0-4.9
		c1.6-0.5,3.3-0.9,5.5-1.5c0-11.3,0-22.7,0-34.2c-2-0.6-3.7-1.1-5.4-1.6c0-1.7,0-3.3,0-5.1c7.7,0,15.1,0,22.9,0c0,1.8,0,3.4,0,5
		c-1.8,0.5-3.5,1-5.5,1.7c0,3.9,0,7.6,0,11.6c5.5,0,11,0,16.7,0c0-3.8,0-7.6,0-11.6c-1.9-0.6-3.6-1.1-5.6-1.7c0-1.5,0-3.1,0-5
		c7.6,0,15,0,22.8,0c0.1,1.7,0.1,3.3,0.2,5c-1.9,0.6-3.6,1.1-5.7,1.7c0,11.3,0,22.6,0,34c1.9,0.5,3.6,1,5.5,1.5c0,1.7,0,3.2,0,5.1
		C213.1,78.9,205.7,78.9,197.9,78.9z"/>
	<path fill="#505050" d="M102.7,58.7c0.1-23.4,19.5-35,37.3-25.6c2.1,1.1,4.2,2.8,5.7,4.7c6.7,8.2,6.5,25.1-0.2,33.8
		c-6.2,8.2-19.3,11.1-30,6.5C105.6,73.8,102.8,65.3,102.7,58.7z M139.2,55.1c-0.4-2.6-0.6-5.1-1.1-7.5c-1.4-6.1-4.8-9.1-10.6-9.4
		c-5.8-0.3-10.2,2.8-12.1,8.5c-1.8,5.7-1.6,11.5,0.1,17.2c1.8,5.8,5.6,8.4,11.5,8.2c5.4-0.2,9.2-3.1,10.7-8.7
		C138.5,60.6,138.7,57.8,139.2,55.1z"/>
	<path fill="#505050" d="M55.1,72.3c2.1,0.5,3.6,0.9,5.6,1.5c0.1,1.5,0.2,3,0.4,5c-7.8,0-15.3,0-23.1,0c0-1.6,0-3.2,0-5
		c1.7-0.4,3.2-0.8,5.3-1.3c0-11.3,0-22.7,0-34.3c-1.7-0.5-3.4-1-5.4-1.6c0-1.5,0-3.1,0-5c7.6,0,15,0,22.8,0c0.1,1.6,0.2,3.2,0.3,4.9
		c-2,0.6-3.9,1.2-5.9,1.8C55.1,49.6,55.1,60.7,55.1,72.3z"/>
	<path fill="#505050" d="M66.4,53.4c6.3,7.7,10.2,16.8,20.3,20.6c0,0.2,0.3,1,0.3,1.8c0,0.8-0.1,1.7-0.1,2.4
		c-8.1,2.6-14.4,1-19.6-5.4c-2.2-2.7-4.2-5.6-6.2-8.5c-1.9-2.9-3.7-5.9-5.6-9c4.8-5.5,9.4-10.8,14.3-16.4c-1.5-1-2.1-1.5-2.8-1.8
		c-0.6-0.3-1.2-0.4-1.8-0.6c0-1.8,0-3.4,0-5.2c6.8,0,13.4,0,20.4,0c0.1,1.7,0.2,3.3,0.3,4.9C77.2,39.5,73.3,47.6,66.4,53.4z"/>
</g>
</svg>
