<?xml version="1.0" encoding="utf-8"?>
<!-- Generator: Adobe Illustrator 18.0.0, SVG Export Plug-In . SVG Version: 6.00 Build 0)  -->
<!DOCTYPE svg PUBLIC "-//W3C//DTD SVG 1.1//EN" "http://www.w3.org/Graphics/SVG/1.1/DTD/svg11.dtd">
<svg version="1.1" id="Layer_1" xmlns="http://www.w3.org/2000/svg" xmlns:xlink="http://www.w3.org/1999/xlink" x="0px" y="0px"
	 viewBox="0 0 966 170" enable-background="new 0 0 966 170" xml:space="preserve">
<g>
	<path fill="#495259" d="M433.6,51.5c-2.2,2.9-4.2,5.4-6.1,8.1c-5.5,8.1-10.7,16.3-16.3,24.3c-9,12.9-18.2,25.6-27.2,38.5
		c-3.5,5-7,10-10.3,15.2c-4.2,6.4-11.2,5.6-14.7,1.4c-2.4-2.9-2.9-4.2-1-7.6c3.2-5.6,6.7-11,10.2-16.4c6.2-9.6,12.4-19.1,18.7-28.6
		c10.8-16.4,21.7-32.8,32.6-49.1c1.5-2.2,3.1-4.5,5.2-5.9c4-2.7,8.7-2.8,13.3-2.3c3.6,0.5,6.5,2.4,8.4,5.5c0.9,1.6,2.1,3,2.9,4.6
		c1.7,3.2,3.9,5.2,7.9,4.8c1.4-0.1,2.9,0.5,4.3,0.9c3.3,0.9,3.6,0.7,5.1-2.5c2.2-4.6,4.4-9.3,7.1-13.6c2.5-4,6-7,10.4-9
		c3.8-1.8,7.6-0.7,11.1,0.4c2.9,0.9,4.9,0.3,7.3-1.3c6.6-4.3,13.2-8.9,20.3-12.4c5.2-2.5,10.9-4.5,17-4.9c3.6-0.2,7.1-0.6,10.8,0
		c6.5,1.1,10,4,12.1,11.3c-34.6,16.1-62.1,40.3-80.4,73.3c8.2,12,16,23.4,23.8,34.9c1.7,2.5,3.5,4.9,4.8,7.5
		c2.4,4.6,1.3,10.5-2.6,12.3c-5.3,2.5-9.8,1.9-13.4-2.6c-4.5-5.7-8.3-11.9-12.5-17.8c-2.6-3.6-5.3-7.1-8.5-11.3
		c-1.4,2.3-2.3,3.8-3.1,5.3c-3,5.6-6.3,10.8-10.9,15.3c-6.6,6.6-14.8,9.6-23.7,10.1c-7.7,0.4-15.2-2-21.5-6.4
		c-7.3-5.1-9.9-12.6-9-21.4c0.8-7.4,3.5-13.6,9-18.7c4.1-3.7,9-5.5,14.2-6.4c4.7-0.9,5.2-1.5,5.8-6.4c0.6-5,1.2-10.2,2.9-15
		C439.7,60,438.3,55.9,433.6,51.5z M553.7,10.1c-1.7-1-2.5-1.8-3.3-1.9c-4.8-0.4-9.6-0.7-14.3,0.8c-7.6,2.3-14.7,5.7-21.5,9.9
		C502.7,26.2,494,36,488.1,48.4c-1.3,2.7-2.5,5.4-4.2,7.9c-0.7,1-2.5,1.5-3.8,1.5c-1.8-0.1-2.3-1.8-2-3.4c0.3-1.9,0.4-4,1.3-5.7
		c1.9-3.7,4.6-7,6.2-10.7c1.3-3,2.8-5.6,5-7.9c0.7-0.7,0.8-1.9,1.2-2.9c-1.2-0.4-2.6-1.3-3.6-1c-2.8,0.9-5.7,1.9-7.2,4.9
		c-2.2,4.2-4.7,8.3-6.8,12.6c-2.4,5.1-4.9,10.2-6.7,15.5c-2.2,6.4-3.7,13-5.4,19.5c-0.9,3.3-2.2,4.6-4.4,4.3
		c-2.4-0.3-3.6-2.4-3.3-5.8c0-0.5,0-1,0.2-1.5c2-6.4,3.9-12.9,6.1-19.3c0.5-1.6,1.1-3-0.4-4c-1.1-0.8-2.9-1.6-4-1.2
		c-3,1-5.6,2.5-7.4,5.4c-5.2,8.5-5.8,18.1-6.7,27.6c-0.2,2.2,0.9,3.3,2.8,4.2c9.7,4.5,13,18.8,8.3,27.5c-5.7,10.6-21,13.9-29.5,5.5
		c-2.3-2.2-3.3-6.1-4-9.4c-0.4-1.7,1.2-4,2.2-5.9c0.6-1.2,1.5-2.2,2.5-3.1c3.4-2.9,9.1-4.2,13.1-0.8c1.6,1.3,2.5,5.7,1.4,6.9
		c-1.5,1.5-3.3,1-5,0.1c-0.1-0.1-0.3-0.1-0.5-0.2c-2.5-1-4.5-0.4-5.7,2c-1.1,2.1-0.5,3.9,1.3,5.3c2.9,2.2,5.9,3,9.6,1.8
		c4.9-1.6,8.4-5.6,8.8-10.3c0.6-7.5-3.1-12.3-7.9-14c-8-2.9-17.6,0.7-23,8.6c-5.5,8-5.4,16.5-0.3,23.5c4.8,6.5,17.2,9.5,26.4,7.2
		c12-3,18.6-11.8,23.5-22.2c2.6-5.5,4.1-11.5,6.5-17.1c3.5-8.2,8.3-15.6,12.8-23.3c4.3-7.4,10-13.6,15.6-19.8
		c5.9-6.7,12.6-12.9,19.5-18.5c7.2-5.8,15-10.7,22.7-15.9C546.1,14.2,549.5,12.5,553.7,10.1z"/>
	<path fill="#495259" d="M2.1,85.2c0-15.7,0-31.3,0-47c0-6.2,2.6-8.8,8.7-8.8c29,0,58-0.4,87,0.2c12.1,0.2,24.1,2.4,34.6,9.3
		c6.1,4,9.1,9.5,9.2,16.7c0.1,6,0.3,12-0.1,18c-0.6,9.4-4.7,16.8-13.4,21.2c-9.4,4.8-19.4,7-29.7,7.1c-22.5,0.2-45,0.1-67.5,0.1
		c-0.8,0-1.7,0-2.5,0c-4.6,0.1-4.8,0.3-4.8,4.8c0,8.3-0.1,16.7,0,25c0.1,8.1-4,9.5-9.5,10c-1.3,0.1-2.7,0.1-4,0c-5.2-0.2-8-2.9-8-8
		C2.1,117.5,2.1,101.3,2.1,85.2C2.1,85.2,2.1,85.2,2.1,85.2z M63.5,46.9C63.5,46.9,63.5,46.9,63.5,46.9c-12,0-24,0-36,0
		c-4,0-4.2,0.6-4.1,4.7c0.2,9.5,0.2,19,0.1,28.5c-0.1,3.7,1,5,4.7,4.9c5.6-0.2,11.2-0.5,16.8-0.5c17.4-0.1,34.8,0,52.2-0.1
		c4.1,0,8.3-0.5,12.3-1.3c5.5-1,10.4-5.7,10.5-10c0.2-5.7,0.2-11.3,0-17c-0.1-2.7-1.5-4.3-4.2-5.5c-6.6-2.9-13.5-3.4-20.4-3.6
		C84.8,46.8,74.2,46.9,63.5,46.9z"/>
	<path fill="#495259" d="M298.7,107.1c-11.5,0-23-0.1-34.5,0c-5.8,0-11.6,0.3-17.4,0.6c-3.7,0.2-4.4,1.4-2.8,4.7
		c3.6,7.5,10.2,11.2,18,11.5c18.9,0.7,37.9,0.7,56.9,1c1.5,0,3-0.6,4.4-0.4c4.2,0.6,7.9,5.5,7.5,9.8c-0.4,4.2-3.9,7.4-8.6,7.4
		c-16.8,0.1-33.7,0.4-50.5-0.1c-8.6-0.2-17.3-0.1-25.7-2.7c-8.4-2.6-16.2-6.3-20.3-14.7c-1.3-2.6-2.5-5.6-2.5-8.4
		c-0.3-12.2-0.3-24.3-0.1-36.5c0.1-7.4,4.1-13,9.9-17c7.3-5.1,15.8-8,24.7-8.2c18.3-0.5,36.6-1,54.9-0.6c9.2,0.2,17.9,3.7,25.3,9.3
		c4.6,3.5,6.8,8.6,6.9,14.3c0.2,7.3,0.1,14.7,0,22c0,1.3-0.5,2.6-0.8,3.9c-0.6,2.9-2.5,4.2-5.3,4.2c-4.7,0-9.3,0-14,0
		C316,107.1,307.4,107.1,298.7,107.1z M284.5,89.9c11,0,22,0,33,0c7.8,0,7.7,0.8,7.6-7.5c-0.1-4.9-1.7-6.8-6.3-8.8
		c-7.1-3.1-14.7-3.2-22-3.4c-12.9-0.3-25.9,0.5-38.9,0.9c-1.6,0.1-3.3,0.5-4.9,0.9c-8.3,2.2-10.2,4.7-10.1,13.2c0,0.3,0,0.7,0,1
		c-0.3,2.4,1.2,3.3,3.1,3.6c1.1,0.2,2.3,0.1,3.5,0.1C261.1,89.9,272.8,89.9,284.5,89.9z"/>
	<path fill="#495259" d="M874.3,106.3c-14.2,0-28.3,0-42.5,0c-1,0-2-0.1-3,0c-2.9,0.4-4.3,2.6-3.2,5.4c1.8,4.5,4.7,8.1,9.3,9.9
		c5.2,2,10.7,3.3,16.4,3.2c16.8-0.2,33.7,0,50.5,0c1.5,0,3.1-0.1,4.5,0.3c2.4,0.6,5.2,1.2,5.6,4.2c0.5,3.5,2.1,7.3-1.7,10
		c-1.3,0.9-2.9,1.7-4.4,1.7c-19.3,0.1-38.7,0.3-58-0.1c-7.4-0.2-14.9-1.2-22-3.2c-8.6-2.4-15.3-8.2-18.6-16.8
		c-1.2-3.1-1.4-6.8-1.4-10.2c-0.2-9,0.3-18-0.1-27c-0.6-13.4,8-22.1,18.5-25.9c7.7-2.7,15.5-4.4,23.8-4.2c16,0.3,32-0.2,48,0.3
		c9.6,0.3,18.5,3.5,25.3,10.8c3.1,3.3,5,7.3,4.9,12.1c-0.2,6.3,0,12.7-0.1,19c0,1.3-0.1,2.7-0.4,3.9c-1.3,5.6-2.3,6.4-8,6.4
		C903.3,106.3,888.8,106.3,874.3,106.3C874.3,106.3,874.3,106.3,874.3,106.3z M905.5,88.2c0.6-2.1,1.1-3.7,1.4-5.3
		c0.8-4.7-2.1-8.5-7.7-9.9c-12-3-24.3-2.3-36.5-3c-3.8-0.2-7.6,0.5-11.4,0.7c-4.8,0.3-9.6,0.5-14.3,1.1c-8.5,1-11.4,4.2-11.3,12
		c0.1,4.3,1.9,5.7,6.2,5.1c2.6-0.4,5.2-0.7,7.9-0.7c19.8-0.1,39.6,0,59.4,0C901.3,88.2,903.2,88.2,905.5,88.2z"/>
	<path fill="#495259" d="M768.2,141.7c-1.6-0.5-2.6-1.2-3.7-1.2c-16,0.1-31.9,0.7-47.9,0.2c-9.2-0.3-18.4-0.9-27.4-3.6
		c-5.9-1.8-11-4.3-15.4-8.6c-3.3-3.2-4.9-7.2-5-11.5c-0.2-13-0.2-26-0.1-39c0.1-7.3,4.5-12.2,10.1-16.1c6.1-4.3,13.3-5.6,20.4-6.9
		c4-0.8,8.2-1,12.3-1.1c12-0.1,24-0.3,36,0.1c10.3,0.3,20.4,2.3,29.5,7.6c4,2.3,7.8,5,10.1,9.3c1.7,3.1,2.8,6.2,2.8,9.9
		c-0.1,18.7-0.4,37.3,0.1,56c0.2,10-4.8,16.1-12.7,20.7c-8.8,5.2-18.4,7.2-28.4,7.8c-5.3,0.3-10.6,0.6-15.9,0.9
		c-4.3,0.2-7.2-2-9.1-5.7c-2.7-5.1,0.4-10.8,6.2-11.2c3.5-0.2,7-0.2,10.5,0c9.2,0.4,17.5-2.9,26-5.5
		C767,143.2,767.3,142.7,768.2,141.7z M739.6,124.7C739.6,124.7,739.6,124.7,739.6,124.7c7.8,0,15.6,0.1,23.5,0c5.8,0,6.7-1,6.8-6.5
		c0-11.6,0-23.3-0.1-34.9c0-5.4-2-8.2-7-10c-7.4-2.7-14.8-4.2-22.8-4.1c-13.5,0.3-27,0-40.4,0.2c-8.2,0.1-13.2,5.4-13.2,13.3
		c0,9,0,18,0,27c0,5.7,2.8,9.4,8.3,11.5c7.1,2.7,14.5,3,21.9,3.4C724.2,125,731.9,124.7,739.6,124.7z"/>
	<path fill="#495259" d="M648.9,105.4c0,9.5,0,19,0,28.5c0,5.1-1.7,6.9-6.8,7.1c-1.7,0.1-3.3,0.1-5,0c-6.3-0.1-9.1-2.9-9.1-9.2
		c0-14.2,0-28.3,0-42.5c0-3.2-0.1-6.3,0.1-9.5c0.2-3.8-0.3-5.9-5.4-7.8c-3.6-1.3-7.7-2-11.6-2c-14.3-0.2-28.6-0.4-43,0
		c-4.7,0.1-9.6,0-14.1,2.2c-3.4,1.7-5.2,4-5.2,8.1c0.2,16,0.1,32,0.1,48c0,1.7,0.2,3.4-0.1,5c-0.8,5.1-1.5,7.6-8.1,7.6
		c-10.5,0-11-0.3-11-10.7c0-16.8,0.1-33.6,0-50.5c0-5.3,1.5-10.1,4.3-14.5c2.1-3.4,5.6-5.1,9-6.8c4.6-2.3,9.6-3.6,14.7-3.9
		c11.4-0.6,22.9-0.7,34.3-0.9c3.7-0.1,7.3,0.2,11-0.1c8.9-0.7,17.7,0.2,26.1,2.4c8.4,2.2,16.7,5.9,19.2,15.9
		c0.4,1.7,0.6,3.6,0.6,5.4C649,86.7,649,96.1,648.9,105.4C648.9,105.4,648.9,105.4,648.9,105.4z"/>
	<path fill="#495259" d="M174.9,108.5c0,8.5,0,17,0,25.5c0,4.6-2.7,7.5-7.3,7.6c-9.7,0.3-13,0.3-13.1-12.1
		c-0.2-15.3,0.2-30.6-0.1-45.9c-0.3-16.3,8.7-23.7,21.6-27.4c9.3-2.7,18.9-3.3,28.6-3c5,0.2,7.9,2.7,8.3,7.4
		c0.5,5.8-1.5,8.9-6.7,9.8c-1.8,0.3-3.6,0.1-5.5,0.2c-5.3,0.3-10.6,0.2-15.8,1.1c-7.8,1.3-10.2,5.2-10,11.8
		C175.2,91.9,174.9,100.2,174.9,108.5C174.9,108.5,174.9,108.5,174.9,108.5z"/>
	<path fill="#495259" d="M943.9,85c0-16,0-32,0-48c0-5.4,2-7.9,6.7-7.9c2.9,0,5.9,0.4,8.8,1c2.8,0.6,4.4,2.8,4.5,5.8
		c0.1,6.2,0.1,12.4,0.1,18.5c0,22.3,0,44.5,0,66.8c0,4.5,0.4,9.1,0.6,13.6c0.1,3.5-2.1,5.7-5.8,6.1c-3.1,0.4-6,1.3-9.3,0.1
		c-3.5-1.3-5.3-2.9-5.5-6.6c-0.1-2.5-0.1-5-0.1-7.5C943.9,113,943.9,99,943.9,85C943.9,85,943.9,85,943.9,85z"/>
</g>
</svg>
