<?xml version="1.0" encoding="utf-8"?>
<!-- Generator: Adobe Illustrator 18.0.0, SVG Export Plug-In . SVG Version: 6.00 Build 0)  -->
<!DOCTYPE svg PUBLIC "-//W3C//DTD SVG 1.1//EN" "http://www.w3.org/Graphics/SVG/1.1/DTD/svg11.dtd">
<svg version="1.1" id="Layer_1" xmlns="http://www.w3.org/2000/svg" xmlns:xlink="http://www.w3.org/1999/xlink" x="0px" y="0px"
	 viewBox="0 0 223.9 224" enable-background="new 0 0 223.9 224" xml:space="preserve">
<rect x="-58.7" y="-73" display="none" fill="#888E92" width="352.7" height="329.3"/>
<circle display="none" fill="#DFEFFA" cx="112" cy="112" r="112"/>
<path display="none" fill="#888E92" d="M112,113h112c0-0.3,0-0.7,0-1C224,50.1,173.9,0,112,0C50.1,0,0,50.1,0,112
	c0,61.9,50.1,112,112,112V113z"/>
<rect x="206.8" y="-66.5" display="none" fill="#888E92" width="73.9" height="73.9"/>
<rect x="206.7" y="176.5" display="none" fill="#DFEFFA" width="73.9" height="73.9"/>
<rect x="-46.9" y="-66.5" display="none" fill="#495259" width="73.9" height="73.9"/>
<circle fill="#7FB1D1" cx="112" cy="112" r="112"/>
<circle fill="#495259" cx="112" cy="112" r="68"/>
<g>
	<path fill="#FFFFFF" d="M112,84.2c4.7,0,9.2,1,13.4,2.9c4.2,1.9,8,4.5,11.2,7.7c3.2,3.2,5.8,7,7.7,11.3c1.9,4.3,2.9,8.9,2.9,13.8
		c0,4.8-0.9,9.3-2.8,13.5c-1.9,4.2-4.4,8-7.5,11.2c-3.2,3.2-6.9,5.8-11.2,7.6c-4.3,1.9-8.9,2.8-13.9,2.8c-4.9,0-9.4-0.9-13.7-2.6
		c-4.2-1.8-8-4.2-11.2-7.3c-3.2-3.1-5.8-6.8-7.6-11.1c-1.9-4.3-2.8-9-2.8-14.1V65.6c0-1.3,0.4-2.3,1.3-3.2c0.9-0.9,2-1.3,3.2-1.3
		c1.3,0,2.3,0.4,3.2,1.3c0.9,0.9,1.3,2,1.3,3.2v31.9c3.2-3.5,7.1-6.6,11.6-9.1C101.5,85.8,106.5,84.4,112,84.2z M85.5,119.8
		c0,3.6,0.7,7,2,10.2c1.4,3.2,3.2,6,5.6,8.3c2.4,2.4,5.2,4.3,8.3,5.6c3.2,1.4,6.6,2,10.2,2c3.6,0,7-0.7,10.3-2
		c3.2-1.4,6-3.2,8.4-5.6c2.4-2.4,4.3-5.2,5.6-8.3c1.4-3.2,2-6.6,2-10.2c0-3.6-0.7-7-2-10.3c-1.4-3.2-3.2-6-5.6-8.4
		c-2.4-2.4-5.2-4.3-8.4-5.6c-3.2-1.4-6.6-2.1-10.3-2.1c-3.5,0-6.8,0.7-10,2c-3.1,1.3-5.9,3.1-8.2,5.5c-2.3,2.3-4.2,5.1-5.7,8.3
		C86.3,112.4,85.6,116,85.5,119.8z"/>
	<path fill="#7FB1D1" d="M98.6,119.7c0,1.8,0.3,3.5,1,5.1c0.7,1.6,1.6,3,2.8,4.2c1.2,1.2,2.6,2.1,4.2,2.8c1.6,0.7,3.3,1,5.1,1
		c1.8,0,3.5-0.3,5.1-1c1.6-0.7,3-1.6,4.2-2.8c1.2-1.2,2.1-2.6,2.8-4.2c0.7-1.6,1-3.3,1-5.1c0-1.8-0.3-3.5-1-5.1
		c-0.7-1.6-1.6-3-2.8-4.2c-1.2-1.2-2.6-2.1-4.2-2.8c-1.6-0.7-3.3-1-5.1-1c-1.8,0-3.4,0.3-5,1c-1.6,0.7-2.9,1.6-4.1,2.8
		c-1.2,1.2-2.1,2.6-2.9,4.2C99,116.1,98.6,117.8,98.6,119.7z"/>
</g>
<g>
	<g>
		<path fill="#FFFFFF" d="M66.1,34.4c-0.8,0.5-1.2,1.1-1.3,1.9c-0.1,0.8,0.2,1.6,0.7,2.5c1.2,1.8,2.6,2.2,4.2,1.2
			c0.5-0.3,0.9-0.6,1.3-1c0.4-0.4,0.8-0.8,1.2-1.2c0.4,0.8,0.8,1.5,1.3,2.3c-0.7,0.9-1.6,1.6-2.7,2.3c-1.6,1-3.1,1.4-4.5,1.1
			c-1.4-0.2-2.7-1.1-3.8-2.6c-0.7-1-1.1-2-1.2-3c-0.1-1,0.2-2.1,0.8-3.1c0.6-1,1.5-1.9,2.7-2.6c1.3-0.8,2.8-1.3,4.2-1.5
			c0,0.9,0.1,1.8,0.2,2.7c-0.5,0.1-1.1,0.2-1.6,0.3C67.1,33.9,66.6,34.1,66.1,34.4z"/>
		<path fill="#FFFFFF" d="M75.8,39.4c-1.7-3.4-3.4-6.8-5.2-10.2c1.1-0.6,2.3-1.1,3.5-1.7c1.2,2.7,2.5,5.4,3.7,8.1
			c1.5-0.7,3-1.3,4.5-1.9c0.3,0.8,0.6,1.6,0.9,2.3C80.7,37.1,78.2,38.1,75.8,39.4z"/>
		<path fill="#FFFFFF" d="M85,35.4c-1.3-3.6-2.5-7.2-3.8-10.8c1.2-0.4,2.4-0.8,3.6-1.2c1.1,3.6,2.2,7.3,3.3,10.9
			C87.1,34.7,86,35.1,85,35.4z"/>
		<path fill="#FFFFFF" d="M94.3,23.6c-0.9,0.2-1.5,0.6-1.8,1.3c-0.3,0.7-0.4,1.6-0.2,2.6c0.5,2.1,1.6,3,3.4,2.7
			c0.5-0.1,1.1-0.3,1.5-0.5c0.5-0.2,1-0.5,1.5-0.7c0.1,0.9,0.2,1.7,0.4,2.6c-0.9,0.6-2,0.9-3.3,1.2c-1.8,0.3-3.3,0.2-4.5-0.6
			c-1.2-0.7-2.1-2-2.6-3.8c-0.3-1.1-0.3-2.2,0-3.2c0.3-1,0.9-1.9,1.8-2.6c0.9-0.7,2-1.2,3.4-1.4c1.5-0.3,3-0.2,4.4,0.1
			c-0.3,0.9-0.5,1.7-0.8,2.6c-0.5-0.1-1-0.2-1.6-0.3C95.4,23.5,94.8,23.5,94.3,23.6z"/>
		<path fill="#FFFFFF" d="M111.7,31.3c-1.2,0-2.5,0-3.7,0c-0.8-1.4-1.7-2.9-2.6-4.3c-0.3,0.2-0.7,0.4-1,0.6c0.1,1.3,0.2,2.5,0.3,3.8
			c-1.1,0.1-2.2,0.2-3.3,0.3c-0.4-3.8-0.8-7.6-1.3-11.4c1.3-0.1,2.5-0.2,3.8-0.3c0.1,1.7,0.2,3.3,0.3,5c0.2-0.3,0.5-0.8,1-1.5
			c0.9-1.2,1.8-2.4,2.7-3.6c1.4,0,2.7,0,4.1,0c-1.5,1.7-2.9,3.4-4.3,5.1C109.3,27,110.6,29.1,111.7,31.3z"/>
		<path fill="#FFFFFF" d="M126.5,33.2c-0.3-0.1-0.6-0.1-0.8-0.2c0.4-1.8,0.8-3.7,1.2-5.5c-2.5-0.5-5-1-7.5-1.3
			c-0.2,1.9-0.5,3.7-0.7,5.6c-0.3,0-0.6-0.1-0.8-0.1c0.4-3.8,0.8-7.6,1.2-11.4c0.3,0,0.6,0.1,1,0.1c-0.2,1.7-0.4,3.4-0.6,5
			c2.5,0.3,5.1,0.7,7.6,1.3c0.4-1.7,0.7-3.3,1.1-5c0.3,0.1,0.6,0.1,1,0.2C128.2,25.7,127.3,29.5,126.5,33.2z"/>
		<path fill="#FFFFFF" d="M136.1,36.1c-2.1-0.8-4.2-1.5-6.3-2.1c1-3.7,2.1-7.3,3.1-11c2.5,0.7,4.9,1.5,7.3,2.4
			c-0.1,0.2-0.2,0.5-0.3,0.7c-2.1-0.8-4.2-1.5-6.3-2.1c-0.4,1.4-0.8,2.8-1.2,4.1c1.9,0.6,3.8,1.2,5.6,1.9c-0.1,0.2-0.2,0.5-0.3,0.7
			c-1.8-0.7-3.7-1.3-5.6-1.9c-0.5,1.6-0.9,3.1-1.4,4.7c1.9,0.5,3.7,1.2,5.6,1.9C136.3,35.6,136.2,35.9,136.1,36.1z"/>
		<path fill="#FFFFFF" d="M141.5,32.9c-0.7,1.5-1.3,3-2,4.6c-0.3-0.1-0.5-0.2-0.8-0.3c1.5-3.5,3-7,4.4-10.5c1,0.4,2.1,0.9,3.1,1.4
			c1.6,0.7,2.6,1.6,3.1,2.4c0.5,0.9,0.5,1.7,0,2.7c-0.4,0.7-0.9,1.1-1.6,1.4c-0.7,0.2-1.5,0.2-2.4,0c0.3,2.1,0.5,4.2,0.7,6.2
			c-0.3-0.2-0.6-0.3-0.9-0.5c-0.2-2-0.4-3.9-0.7-5.9C143.4,33.8,142.5,33.3,141.5,32.9z M141.7,32.3c0.8,0.3,1.5,0.7,2.3,1
			c1,0.5,1.9,0.7,2.6,0.6c0.8-0.1,1.3-0.5,1.7-1.2c0.4-0.8,0.4-1.5,0-2.1c-0.4-0.6-1.2-1.3-2.6-1.9c-0.7-0.3-1.4-0.6-2.1-1
			C143.1,29.2,142.4,30.7,141.7,32.3z"/>
		<path fill="#FFFFFF" d="M153.6,45.5c-1.9-1.4-3.8-2.6-5.7-3.8c1.9-3.3,3.9-6.5,5.8-9.8c2.3,1.3,4.5,2.8,6.6,4.4
			c-0.1,0.2-0.3,0.4-0.4,0.6c-1.9-1.4-3.8-2.6-5.7-3.8c-0.8,1.2-1.5,2.5-2.3,3.7c1.7,1.1,3.4,2.2,5.1,3.4c-0.1,0.2-0.3,0.4-0.4,0.6
			c-1.7-1.2-3.3-2.3-5.1-3.4c-0.9,1.4-1.7,2.8-2.6,4.2c1.7,1,3.4,2.2,5,3.4C153.9,45.1,153.7,45.3,153.6,45.5z"/>
	</g>
</g>
<g>
	<g>
		<path fill="#FFFFFF" d="M61.5,191.9c-0.3-0.2-0.6-0.3-0.8-0.5c1.9-3.3,3.9-6.6,5.8-9.8c1.9,1.1,3.9,2.2,5.9,3.2
			c-0.1,0.2-0.2,0.4-0.3,0.7c-1.8-0.9-3.5-1.8-5.2-2.8c-0.8,1.4-1.6,2.8-2.4,4.2c1.7,1,3.4,1.9,5.2,2.8c-0.1,0.2-0.2,0.4-0.3,0.7
			c-1.8-0.9-3.5-1.8-5.2-2.8C63.2,188.9,62.4,190.4,61.5,191.9z"/>
		<path fill="#FFFFFF" d="M81.7,194.7c-0.6,1.7-1.5,2.9-2.9,3.6c-1.4,0.6-2.9,0.6-4.7-0.1c-1.8-0.7-2.9-1.8-3.5-3.2
			c-0.5-1.4-0.4-2.9,0.4-4.6c0.8-1.6,1.9-2.7,3.2-3.2c1.3-0.5,2.7-0.5,4.3,0.1c1.6,0.6,2.6,1.6,3.2,2.9
			C82.3,191.5,82.3,193,81.7,194.7z M72,190.8c-0.7,1.5-0.8,2.8-0.4,4c0.4,1.2,1.4,2.1,2.9,2.7c1.5,0.6,2.8,0.6,3.9,0.1
			c1.1-0.5,1.9-1.6,2.4-3.2c0.5-1.6,0.6-2.9,0.1-4c-0.4-1.1-1.3-1.9-2.7-2.4c-1.3-0.5-2.5-0.6-3.6-0.1
			C73.6,188.4,72.7,189.4,72,190.8z"/>
		<path fill="#FFFFFF" d="M85.2,196.6c-0.5,1.6-0.9,3.2-1.4,4.8c-0.3-0.1-0.6-0.2-0.9-0.3c1.1-3.6,2.2-7.3,3.3-10.9
			c0.9,0.3,1.8,0.5,2.7,0.8c1.4,0.4,2.4,0.9,3,1.6c0.6,0.7,0.8,1.5,0.5,2.5c-0.2,0.7-0.5,1.3-1.1,1.7c-0.6,0.4-1.3,0.6-2.3,0.6
			c0.7,2,1.5,3.9,2.3,5.9c-0.4-0.1-0.7-0.2-1.1-0.2c-0.8-1.9-1.5-3.7-2.1-5.6C87.2,197.2,86.2,196.9,85.2,196.6z M85.3,196
			c0.8,0.2,1.6,0.4,2.3,0.7c1,0.3,1.9,0.3,2.6,0c0.7-0.3,1.1-0.8,1.3-1.7c0.2-0.8,0.1-1.5-0.4-2c-0.4-0.5-1.3-0.9-2.5-1.2
			c-0.6-0.2-1.3-0.4-1.9-0.5C86.3,192.7,85.8,194.3,85.3,196z"/>
		<path fill="#FFFFFF" d="M105.3,201.2c-1.7-0.1-3.5-0.3-5.2-0.5c-0.8,1.3-1.5,2.5-2.4,3.7c-0.3,0-0.7-0.1-1-0.2
			c2.4-3.5,4.5-7.1,6.5-10.7c0.2,0,0.4,0,0.5,0.1c1.2,4,2.6,7.9,4.2,11.8c-0.4,0-0.7,0-1.1-0.1C106.3,204,105.8,202.6,105.3,201.2z
			 M100.5,200c1.5,0.2,3,0.3,4.5,0.4c-0.5-1.4-0.9-2.8-1.4-4.2c-0.1-0.3-0.2-0.8-0.4-1.4c-0.2,0.5-0.4,0.9-0.6,1.3
			C102,197.4,101.2,198.7,100.5,200z"/>
		<path fill="#FFFFFF" d="M124.1,198.9c0.2,1.9-0.1,3.4-1.2,4.5c-1,1.1-2.7,1.8-5,1.9c-1.1,0.1-2.1,0.1-3.2,0.1
			c-0.1-3.8-0.2-7.6-0.3-11.4c1.1,0,2.1-0.1,3.2-0.1c1.9-0.1,3.4,0.2,4.5,1.1C123.2,195.8,123.8,197.1,124.1,198.9z M123.1,199.1
			c-0.2-1.6-0.8-2.8-1.7-3.5c-1-0.7-2.3-1-3.9-0.9c-0.7,0-1.5,0.1-2.2,0.1c0.1,3.3,0.2,6.7,0.3,10c0.7,0,1.5-0.1,2.2-0.1
			C121.7,204.4,123.5,202.4,123.1,199.1z"/>
		<path fill="#FFFFFF" d="M135.1,202.9c-2.4,0.6-4.8,1-7.2,1.4c-0.6-3.8-1.2-7.5-1.8-11.3c2.1-0.3,4.3-0.7,6.4-1.2
			c0.1,0.2,0.1,0.5,0.2,0.7c-1.9,0.4-3.7,0.8-5.6,1.1c0.2,1.4,0.5,2.8,0.7,4.3c1.9-0.3,3.7-0.7,5.6-1.1c0.1,0.2,0.1,0.5,0.2,0.7
			c-1.9,0.4-3.7,0.8-5.6,1.1c0.3,1.6,0.5,3.2,0.8,4.8c2.1-0.3,4.2-0.8,6.2-1.2C134.9,202.4,135,202.6,135.1,202.9z"/>
		<path fill="#FFFFFF" d="M143.7,200.5c-2.7-2.8-5.2-5.7-7.6-8.7c0,0,0,0-0.1,0c0.2,0.6,0.4,1.2,0.6,1.9c0.8,2.8,1.5,5.5,2.3,8.3
			c-0.3,0.1-0.6,0.2-0.9,0.2c-1-3.7-1.9-7.4-2.9-11c0.4-0.1,0.8-0.2,1.2-0.3c2.3,2.8,4.7,5.6,7.2,8.3c0,0,0,0,0.1,0
			c0.4-3.7,0.7-7.3,0.9-11c0.4-0.2,0.8-0.3,1.2-0.5c1.4,3.5,2.8,7.1,4.3,10.6c-0.3,0.1-0.6,0.2-0.9,0.4c-1-2.7-2.1-5.4-3.1-8.1
			c-0.2-0.6-0.4-1.2-0.6-1.8c0,0,0,0-0.1,0c-0.1,3.8-0.5,7.7-0.9,11.5C144.1,200.3,143.9,200.4,143.7,200.5z"/>
		<path fill="#FFFFFF" d="M160.8,186.5c0.9,1.6,1.2,3.1,0.8,4.5c-0.4,1.5-1.5,2.7-3.2,3.5c-1.7,0.9-3.3,1-4.7,0.5
			c-1.4-0.5-2.5-1.6-3.2-3.3c-0.7-1.7-0.8-3.2-0.4-4.5c0.5-1.4,1.4-2.4,2.9-3.2c1.5-0.8,2.9-1,4.3-0.5
			C158.7,183.9,159.9,184.9,160.8,186.5z M151.4,191.3c0.7,1.5,1.6,2.5,2.7,2.9c1.2,0.4,2.5,0.3,3.9-0.4c1.5-0.8,2.4-1.8,2.7-2.9
			c0.3-1.2,0-2.5-0.8-3.9c-0.8-1.4-1.8-2.3-2.9-2.7c-1.1-0.4-2.3-0.2-3.6,0.4c-1.3,0.7-2.1,1.5-2.5,2.7
			C150.6,188.5,150.7,189.9,151.4,191.3z"/>
	</g>
</g>
</svg>
