<?xml version="1.0" encoding="utf-8"?>
<!-- Generator: Adobe Illustrator 18.0.0, SVG Export Plug-In . SVG Version: 6.00 Build 0)  -->
<!DOCTYPE svg PUBLIC "-//W3C//DTD SVG 1.1//EN" "http://www.w3.org/Graphics/SVG/1.1/DTD/svg11.dtd">
<svg version="1.1" id="Layer_1" xmlns="http://www.w3.org/2000/svg" xmlns:xlink="http://www.w3.org/1999/xlink" x="0px" y="0px"
	 viewBox="0 0 773 100" enable-background="new 0 0 773 100" xml:space="preserve">
<g>
	<path fill="#DA3329" d="M71.6,2.4l35.9,0.1v74.3H71.6v-0.6c-8.3-12.7-20.2-22.5-35.8-29.2v29.8H-0.1V2.4l35.9,0.1v30.1h35.8V2.4z
		 M71.6,58.2V43.1H53.2C60.6,45.7,66.7,50.8,71.6,58.2z"/>
	<path fill="#DA3329" d="M223.1,62.3V74c-5.8,2.4-15,3.6-27.5,3.6c-4.2,0-8.5-0.4-12.7-1.3c-5.4-1.1-9.1-2.7-11.3-4.8
		c-7.2,4.1-15.8,6.1-25.9,6.1c-7,0-13.7-1.3-19.9-4c-8-3.5-12-8.2-12-14.2V27.5h35.5l0.1,27.4c0,2.6,0.9,4.6,2.7,6.1
		c1.8,1.5,4,2.2,6.7,2.2s4.9-0.7,6.8-2.2c1.9-1.5,2.9-3.5,2.9-6.1V27.5h35.8l0.1,27.9c0,2.6,0.9,4.7,2.8,6.2
		c1.9,1.5,4.2,2.3,6.9,2.3c1.2,0,2.7-0.2,4.6-0.6C221.3,62.6,222.8,62.3,223.1,62.3z"/>
	<path fill="#DA3329" d="M315.9,43h-13.3c0.1,13.8-4.3,23.3-13.2,28.5c-6.7,3.9-17.5,5.9-32.4,5.9c-7,0-14.1-1.7-21.1-5
		c-8.5-4-12.7-9.1-12.7-15.2V2.4h35.7v47.3c0,3.8,1.3,6.9,3.8,9.4c2.5,2.5,5.6,3.7,9.3,3.7c4.6,0,8.3-1.4,11.2-4.3
		c2.9-2.8,4.4-6.5,4.4-11.1v-4.2c-0.4,0.1-0.9,0.1-1.4,0.1c-3.9,0-7.3-0.9-10.2-2.8c-3.4-2.2-5-5.1-5-8.9c0-3.8,1.4-6.6,4.3-8.6
		c2.6-1.8,5.8-2.6,9.7-2.6c3.2,0,6.3,0.6,9.2,1.7c3.4,1.3,5.9,3.1,7.4,5.4h14.4V43z"/>
	<path fill="#DA3329" d="M411.4,96.1l-33.3,0.1L378,73.1c-4.2,3-12.6,4.4-25.5,4.4c-8.5,0-16.4-1.8-23.9-5.4
		c-9.2-4.5-13.8-10.5-13.8-18c0-8.9,4-15.8,11.9-20.8c6.6-4.2,14.7-6.2,24.1-6.2l22.7-0.1v14.6c-1-0.1-2.1-0.1-3.2-0.1
		c-4.8,0-8.8,0.6-12,1.9c-4.6,1.8-6.8,4.8-6.8,8.9c0,6.5,4.9,9.7,14.6,9.7c3.5,0,6.4-0.9,8.7-2.6c2.3-1.7,3.4-4.3,3.4-7.7
		c0-2.1,0-5.2-0.1-9.2c0-4.2,0-7.2,0-9.2c0-2,0-3.9,0-5.6h33.1L411.4,96.1z"/>
	<path fill="#DA3329" d="M527.7,62.3V74c-5.8,2.4-15,3.6-27.5,3.6c-4.2,0-8.5-0.4-12.7-1.3c-5.4-1.1-9.1-2.7-11.3-4.8
		c-7.2,4.1-15.8,6.1-25.9,6.1c-7,0-13.7-1.3-19.9-4c-8-3.5-12-8.2-12-14.2V27.5h35.5l0.1,27.4c0,2.6,0.9,4.6,2.7,6.1
		c1.8,1.5,4,2.2,6.7,2.2s4.9-0.7,6.8-2.2c1.9-1.5,2.9-3.5,2.9-6.1V27.5h35.8l0.1,27.9c0,2.6,0.9,4.7,2.8,6.2
		c1.9,1.5,4.2,2.3,6.9,2.3c1.2,0,2.7-0.2,4.6-0.6C525.9,62.6,527.4,62.3,527.7,62.3z"/>
	<path fill="#DA3329" d="M571.3,9.5c0,3.3-2.7,5.8-8.2,7.6c-4.1,1.4-8.2,2-12.4,2c-4.2,0-8.4-0.7-12.4-2c-5.5-1.8-8.3-4.3-8.3-7.6
		c0-3.2,2.8-5.7,8.3-7.6c4-1.3,8.1-1.9,12.4-1.9c4.2,0,8.3,0.6,12.4,1.9C568.6,3.8,571.3,6.3,571.3,9.5z M586.8,74
		c-2.2,1.1-5.4,2.1-9.7,3c-3.9,0.8-7.3,1.2-10.2,1.2c-22.8,0-34.2-5.6-34.2-16.8V27.5l35.7,0.1l0.1,31.1c0,4.2,2.6,6.4,7.9,6.4
		c3,0,6.4-1,10.4-2.9V74z"/>
	<path fill="#DA3329" d="M677.4,74c-7,2.1-15,3.1-24,3.1c-7.1,0-13.3-1.2-18.5-3.7c-6.6-3.1-10-7.9-10-14.3
		c0-5.8,3.8-11.2,11.3-16.2h-22.8c-2.8,16.6-11.7,27-26.7,31.1V62.4c4.2-1.7,7.4-4.2,9.4-7.4c1.7-2.7,2.9-6.6,3.6-11.6
		c-0.5,0.1-1,0.1-1.7,0.1c-3.3,0-6.3-1-9-3c-2.7-2-4.1-4.6-4.1-7.8c0-3.3,1.4-6.2,4.3-8.6c2.7-2.2,5.8-3.4,9.1-3.4
		c2.5,0,5,0.6,7.6,1.8c2.9,1.4,4.8,3.1,5.8,5.2H672V43h-9.4c-3.8,2.6-5.8,5.7-5.8,9.2c0,3,1.4,5.5,4.1,7.7c2.7,2.2,5.6,3.2,8.8,3.2
		c2.7,0,5.3-0.3,7.7-0.8V74z"/>
	<path fill="#DA3329" d="M771.7,62.3L771.6,74c-11.5,3-26.4,4.4-44.7,4.4c-9.9,0-18.7-0.8-26.2-2.3c-12.6-2.6-18.9-6.9-18.9-13
		c0-5.7,6.6-10.4,19.7-14c-3-0.9-5.8-2.1-8.3-3.6c-3.4-2.2-5.2-4.3-5.2-6.5c0-6.6,7.8-11.2,23.5-13.8c8.6-1.4,19-2,31.3-2
		c5,0,9.6,0.1,13.9,0.4l-0.1,12c-4.7,0.2-9.5,0.3-14.3,0.4c-7.4,0.5-11.2,1.7-11.2,3.6c0,1.4,2.1,2.6,6.2,3.4
		c2.9,0.6,5.6,0.8,8.2,0.8c0.6,0,1.2,0,1.6-0.1l-0.1,7.3c-14.8,1.9-22.2,4.7-22.2,8.3c0,3.8,7.9,5.8,23.7,5.8
		C759.1,65,766.7,64.1,771.7,62.3z"/>
</g>
</svg>
