<?xml version="1.0" encoding="utf-8"?>
<!-- Generator: Adobe Illustrator 18.0.0, SVG Export Plug-In . SVG Version: 6.00 Build 0)  -->
<!DOCTYPE svg PUBLIC "-//W3C//DTD SVG 1.1//EN" "http://www.w3.org/Graphics/SVG/1.1/DTD/svg11.dtd">
<svg version="1.1" id="Isolation_Mode" xmlns="http://www.w3.org/2000/svg" xmlns:xlink="http://www.w3.org/1999/xlink" x="0px"
	 y="0px" viewBox="0.5 0.5 54 71.7" enable-background="new 0.5 0.5 54 71.7" xml:space="preserve">
<g>
	<path fill="#FFFFFF" d="M27.7,18.2c11.7,0,22.4,8.5,25.8,19.6c3.4,11.2-1.4,23.7-11.2,30.1C32.5,74.3,19,73.5,10,65.9
		c-4.3-3.6-7.4-8.6-8.7-14.1c-0.6-2.5-0.7-5.1-0.7-7.7c0-11.2,0-22.3,0-33.5c0-1.9,0-3.8,0-5.6c0-0.3,0-0.7,0-1
		c0-2.3,2.2-3.9,4.4-3.4c2.8,0.7,2.6,3.5,2.6,5.7c0,2.9,0,5.7,0,8.6c0,4.5,0,9,0,13.5C12.7,22.6,19.8,18.4,27.7,18.2
		C31.3,18.2,23.6,18.3,27.7,18.2z M7.5,45.3c0,12,11,21.5,22.9,19.8C42.1,63.6,50,51.6,47,40.1c-2.6-9.7-12.1-16-22-14.8
		C15,26.6,7.7,35.5,7.5,45.3C7.5,48.1,7.6,42.4,7.5,45.3z"/>
	<path fill="#80B1D2" d="M17.5,45.3c0,5.3,4.4,9.9,9.7,10c5.5,0.2,10.3-4.2,10.4-9.7c0.2-5.5-4.2-10.3-9.7-10.4
		C22.2,35,17.6,39.7,17.5,45.3C17.5,46.7,17.5,43.9,17.5,45.3z"/>
</g>
</svg>
