<?xml version="1.0" encoding="utf-8"?>
<!-- Generator: Adobe Illustrator 18.0.0, SVG Export Plug-In . SVG Version: 6.00 Build 0)  -->
<!DOCTYPE svg PUBLIC "-//W3C//DTD SVG 1.1//EN" "http://www.w3.org/Graphics/SVG/1.1/DTD/svg11.dtd">
<svg version="1.1" xmlns="http://www.w3.org/2000/svg" xmlns:xlink="http://www.w3.org/1999/xlink" x="0px" y="0px"
	 viewBox="0 0 778.5 675" enable-background="new 0 0 778.5 675" xml:space="preserve">
<g id="bg">
	<rect x="-6.6" y="-0.4" fill="#4F6D83" width="791.6" height="945.4"/>
	<rect x="-5.6" y="-0.4" fill="#4F6D83" width="791.6" height="945.4"/>
	
		<line opacity="0.5" fill="none" stroke="#FFFFFF" stroke-width="3" stroke-linecap="round" stroke-miterlimit="10" x1="-796.7" y1="622.9" x2="3298.7" y2="622.9"/>
</g>
<g id="Layer_1">
	<g>
		<g>
			<g>
				<g opacity="0.5">
					<rect x="77.5" y="368.3" fill="none" width="18.3" height="17.5"/>
					<rect x="162.8" y="326" fill="none" width="20.4" height="17.9"/>
					<rect x="77.5" y="347.4" fill="none" width="18.3" height="17.5"/>
					<rect x="162.8" y="368.3" fill="none" width="20.4" height="17.5"/>
					<rect x="34.8" y="389.2" fill="none" width="18.3" height="17.9"/>
					<rect x="77.5" y="389.2" fill="none" width="18.3" height="17.7"/>
					<rect x="77.5" y="326" fill="none" width="18.3" height="17.9"/>
					<rect x="120.1" y="389.2" fill="none" width="18.3" height="17.9"/>
					<rect x="98.8" y="389.2" fill="none" width="18.3" height="17.9"/>
					<rect x="162.8" y="389.2" fill="none" width="20.4" height="17.9"/>
					<rect x="34.8" y="368.3" fill="none" width="18.3" height="17.5"/>
					<rect x="56.1" y="389.2" fill="none" width="18.3" height="17.3"/>
					<rect x="56.1" y="326" fill="none" width="18.3" height="17.9"/>
					<rect x="56.1" y="347.4" fill="none" width="18.3" height="17.5"/>
					<rect x="56.1" y="368.3" fill="none" width="18.3" height="17.5"/>
					<rect x="120.1" y="368.3" fill="none" width="18.3" height="17.5"/>
					<rect x="162.8" y="347.4" fill="none" width="20.4" height="17.5"/>
					<rect x="98.8" y="347.4" fill="none" width="18.3" height="17.5"/>
					<rect x="98.8" y="368.3" fill="none" width="18.3" height="17.5"/>
					<rect x="141.5" y="347.4" fill="none" width="18.3" height="17.5"/>
					<rect x="98.8" y="326.2" fill="none" width="18.3" height="17.7"/>
					<rect x="34.8" y="210.7" fill="none" width="148.4" height="111.7"/>
					<rect x="120.1" y="347.4" fill="none" width="18.3" height="17.5"/>
					<rect x="34.8" y="326" fill="none" width="18.3" height="17.9"/>
					<rect x="141.5" y="389.2" fill="none" width="18.3" height="17.9"/>
					<rect x="141.5" y="368.3" fill="none" width="18.3" height="17.5"/>
					<rect x="120.1" y="326.2" fill="none" width="18.3" height="17.7"/>
					<rect x="34.8" y="347.4" fill="none" width="18.3" height="17.5"/>
					<rect x="141.5" y="326.2" fill="none" width="18.3" height="17.7"/>
					<path fill="#FFFFFF" d="M31.8,207.7V323h21.3v-0.6h24.3v0.4h21.3v0.2h87.4V207.7H31.8z M183.2,322.4H34.8V210.7h148.4V322.4z"
						/>
					<rect x="34.8" y="346.9" fill="#FFFFFF" width="18.3" height="0.4"/>
					<rect x="162.8" y="346.9" fill="#FFFFFF" width="20.4" height="0.4"/>
					<rect x="56.1" y="325.4" fill="#FFFFFF" width="18.3" height="0.6"/>
					<rect x="120.1" y="346.9" fill="#FFFFFF" width="18.3" height="0.4"/>
					<rect x="77.5" y="325.8" fill="#FFFFFF" width="18.3" height="0.2"/>
					<rect x="141.5" y="346.9" fill="#FFFFFF" width="18.3" height="0.4"/>
					<rect x="77.5" y="346.9" fill="#FFFFFF" width="18.3" height="0.4"/>
					<rect x="98.8" y="346.9" fill="#FFFFFF" width="18.3" height="0.4"/>
					<rect x="56.1" y="346.9" fill="#FFFFFF" width="18.3" height="0.4"/>
					<polygon fill="#FFFFFF" points="98.8,323.2 117.1,323.2 120.1,323.2 141.5,323.2 141.5,323.2 162.8,323.2 162.8,326 183.2,326 
						183.2,343.9 186.2,343.9 186.2,325.4 186.2,323 98.8,323 					"/>
					<rect x="77.5" y="343.9" fill="#FFFFFF" width="18.3" height="3"/>
					<rect x="77.5" y="367.9" fill="#FFFFFF" width="18.3" height="0.4"/>
					<rect x="34.8" y="367.9" fill="#FFFFFF" width="18.3" height="0.4"/>
					<polygon fill="#FFFFFF" points="162.8,343.9 162.8,346.9 183.2,346.9 183.2,347.4 183.2,364.9 186.2,364.9 186.2,347.4 
						186.2,343.9 183.2,343.9 					"/>
					<rect x="120.1" y="343.9" fill="#FFFFFF" width="18.3" height="3"/>
					<rect x="56.1" y="367.9" fill="#FFFFFF" width="18.3" height="0.4"/>
					<rect x="141.5" y="367.9" fill="#FFFFFF" width="18.3" height="0.4"/>
					<rect x="98.8" y="367.9" fill="#FFFFFF" width="18.3" height="0.4"/>
					<rect x="120.1" y="367.9" fill="#FFFFFF" width="18.3" height="0.4"/>
					<rect x="98.8" y="343.9" fill="#FFFFFF" width="18.3" height="3"/>
					<rect x="162.8" y="367.9" fill="#FFFFFF" width="20.4" height="0.4"/>
					<rect x="141.5" y="343.9" fill="#FFFFFF" width="18.3" height="3"/>
					<polygon fill="#FFFFFF" points="53.1,343.9 34.8,343.9 34.8,344.4 34.8,346.9 53.1,346.9 					"/>
					<rect x="56.1" y="343.9" fill="#FFFFFF" width="18.3" height="3"/>
					<rect x="56.1" y="388.8" fill="#FFFFFF" width="18.3" height="0.4"/>
					<rect x="77.5" y="388.8" fill="#FFFFFF" width="18.3" height="0.4"/>
					<rect x="34.8" y="388.8" fill="#FFFFFF" width="18.3" height="0.4"/>
					<rect x="141.5" y="388.8" fill="#FFFFFF" width="18.3" height="0.4"/>
					<rect x="120.1" y="364.9" fill="#FFFFFF" width="18.3" height="3"/>
					<rect x="162.8" y="388.8" fill="#FFFFFF" width="20.4" height="0.4"/>
					<rect x="98.8" y="364.9" fill="#FFFFFF" width="18.3" height="3"/>
					<rect x="120.1" y="388.8" fill="#FFFFFF" width="18.3" height="0.4"/>
					<rect x="98.8" y="388.8" fill="#FFFFFF" width="18.3" height="0.4"/>
					<rect x="77.5" y="364.9" fill="#FFFFFF" width="18.3" height="3"/>
					<polygon fill="#FFFFFF" points="162.8,364.9 162.8,367.9 183.2,367.9 183.2,368.3 183.2,385.8 186.2,385.8 186.2,368.3 
						186.2,364.9 183.2,364.9 					"/>
					<rect x="56.1" y="364.9" fill="#FFFFFF" width="18.3" height="3"/>
					<polygon fill="#FFFFFF" points="53.1,364.9 34.8,364.9 34.8,365.3 34.8,367.9 53.1,367.9 					"/>
					<rect x="141.5" y="364.9" fill="#FFFFFF" width="18.3" height="3"/>
					<polygon fill="#FFFFFF" points="74.5,409.9 74.5,409.5 56.1,409.5 56.1,410.1 95.8,410.1 95.8,409.9 					"/>
					<rect x="98.8" y="385.8" fill="#FFFFFF" width="18.3" height="3"/>
					<rect x="120.1" y="407.1" fill="#FFFFFF" width="18.3" height="0.2"/>
					<rect x="120.1" y="385.8" fill="#FFFFFF" width="18.3" height="3"/>
					<rect x="98.8" y="407.1" fill="#FFFFFF" width="18.3" height="0.2"/>
					<polygon fill="#FFFFFF" points="162.8,385.8 162.8,388.8 183.2,388.8 183.2,389.2 183.2,407.1 162.8,407.1 162.8,410.1 
						186.2,410.1 186.2,389.2 186.2,385.8 183.2,385.8 					"/>
					<rect x="141.5" y="407.1" fill="#FFFFFF" width="18.3" height="0.2"/>
					<rect x="77.5" y="385.8" fill="#FFFFFF" width="18.3" height="3"/>
					<rect x="56.1" y="385.8" fill="#FFFFFF" width="18.3" height="3"/>
					<rect x="141.5" y="385.8" fill="#FFFFFF" width="18.3" height="3"/>
					<polygon fill="#FFFFFF" points="53.1,385.8 34.8,385.8 34.8,386.2 34.8,388.8 53.1,388.8 					"/>
					<polygon fill="#FFFFFF" points="53.1,409.5 53.1,407.1 34.8,407.1 34.8,389.2 34.8,388.8 34.8,386.2 34.8,385.8 34.8,368.3 
						34.8,367.9 34.8,365.3 34.8,364.9 34.8,347.4 34.8,346.9 34.8,344.4 34.8,343.9 34.8,326 53.1,326 53.1,323 31.8,323 
						31.8,325.4 31.8,343.9 31.8,347.4 31.8,364.9 31.8,368.3 31.8,385.8 31.8,389.2 31.8,410.1 56.1,410.1 56.1,409.5 					"/>
					<polygon fill="#FFFFFF" points="53.1,326 53.1,343.9 53.1,346.9 53.1,347.4 53.1,364.9 53.1,367.9 53.1,368.3 53.1,385.8 
						53.1,388.8 53.1,389.2 53.1,407.1 53.1,409.5 56.1,409.5 74.5,409.5 74.5,406.5 56.1,406.5 56.1,389.2 56.1,388.8 56.1,385.8 
						56.1,368.3 56.1,367.9 56.1,364.9 56.1,347.4 56.1,346.9 56.1,343.9 56.1,326 56.1,325.4 74.5,325.4 74.5,322.8 77.5,322.8 
						77.5,322.4 53.1,322.4 53.1,323 					"/>
					<polygon fill="#FFFFFF" points="74.5,325.4 74.5,326 74.5,343.9 74.5,346.9 74.5,347.4 74.5,364.9 74.5,367.9 74.5,368.3 
						74.5,385.8 74.5,388.8 74.5,389.2 74.5,406.5 74.5,409.5 74.5,409.9 95.8,409.9 95.8,406.9 77.5,406.9 77.5,389.2 77.5,388.8 
						77.5,385.8 77.5,368.3 77.5,367.9 77.5,364.9 77.5,347.4 77.5,346.9 77.5,343.9 77.5,326 77.5,325.8 95.8,325.8 95.8,323.2 
						98.8,323.2 98.8,323 98.8,322.8 77.5,322.8 74.5,322.8 					"/>
					<polygon fill="#FFFFFF" points="117.1,407.3 98.8,407.3 98.8,407.1 98.8,389.2 98.8,388.8 98.8,385.8 98.8,368.3 98.8,367.9 
						98.8,364.9 98.8,347.4 98.8,346.9 98.8,343.9 98.8,326.2 117.1,326.2 117.1,323.2 98.8,323.2 95.8,323.2 95.8,325.8 95.8,326 
						95.8,343.9 95.8,346.9 95.8,347.4 95.8,364.9 95.8,367.9 95.8,368.3 95.8,385.8 95.8,388.8 95.8,389.2 95.8,406.9 95.8,409.9 
						95.8,410.1 95.8,410.3 117.1,410.3 					"/>
					<polygon fill="#FFFFFF" points="138.5,407.3 120.1,407.3 120.1,407.1 120.1,389.2 120.1,388.8 120.1,385.8 120.1,368.3 
						120.1,367.9 120.1,364.9 120.1,347.4 120.1,346.9 120.1,343.9 120.1,326.2 138.5,326.2 138.5,323.2 141.5,323.2 141.5,323.2 
						120.1,323.2 117.1,323.2 117.1,326.2 117.1,343.9 117.1,346.9 117.1,347.4 117.1,364.9 117.1,367.9 117.1,368.3 117.1,385.8 
						117.1,388.8 117.1,389.2 117.1,407.1 117.1,407.3 117.1,410.3 120.1,410.3 138.5,410.3 					"/>
					<path fill="#FFFFFF" d="M162.8,389.2v-0.4v-3v-17.5v-0.4v-3v-17.5v-0.4v-3V326v-2.8h-21.3h-3v3v17.7v3v0.4v17.5v3v0.4v17.5v3
						v0.4v17.9v0.2v3l0,0h24.3v-0.2v-3V389.2z M141.5,389.2v-0.4v-3v-17.5v-0.4v-3v-17.5v-0.4v-3v-17.7h18.3v17.7v3v0.4v17.5v3v0.4
						v17.5v3v0.4v17.9v0.2h-18.3v-0.2V389.2z"/>
				</g>
				<g opacity="0.5">
					<path fill="#FFFFFF" d="M96.6,266.9c-1.4,0-2.5-1.1-2.5-2.5c0-1.4,1.1-2.5,2.5-2.5c1.4,0,2.5,1.1,2.5,2.5
						C99.2,265.8,98,266.9,96.6,266.9z M96.6,263c-0.8,0-1.4,0.6-1.4,1.4c0,0.8,0.6,1.4,1.4,1.4s1.4-0.6,1.4-1.4
						C98,263.7,97.4,263,96.6,263z"/>
				</g>
				<g opacity="0.5">
					<path fill="#FFFFFF" d="M119.4,266.9c-1.4,0-2.5-1.1-2.5-2.5c0-1.4,1.1-2.5,2.5-2.5c1.4,0,2.5,1.1,2.5,2.5
						C121.9,265.8,120.8,266.9,119.4,266.9z M119.4,263c-0.8,0-1.4,0.6-1.4,1.4c0,0.8,0.6,1.4,1.4,1.4s1.4-0.6,1.4-1.4
						C120.8,263.7,120.2,263,119.4,263z"/>
				</g>
				<path opacity="0.5" fill="#FFFFFF" d="M141.3,270.1c0.5-0.2,0.7-0.7,0.5-1.1c-0.2-0.5-0.7-0.7-1.1-0.5l-5.5,2c0.1-1,0.2-2,0.2-3
					c0-3.2-0.8-6.3-2.2-9.2l1.3-15.5l-11.4,5.4c-4.2-2.3-9-3.5-13.9-3.5c-5,0-9.8,1.2-14,3.5l-11.5-5.4l1.3,16c-1.3,2.8-2,5.7-2,8.8
					c0,1,0.1,1.9,0.2,2.8l-5.9-1.9c-0.5-0.1-1,0.1-1.1,0.6c-0.1,0.5,0.1,1,0.6,1.1l6.8,2.1c0.3,1.4,0.8,2.7,1.4,3.9l-7.3,3.8
					c-0.4,0.2-0.6,0.8-0.4,1.2c0.2,0.3,0.5,0.5,0.8,0.5c0.1,0,0.3,0,0.4-0.1l7.3-3.8c4.3,7.5,13.2,12.6,23.4,12.6
					c10.1,0,18.9-5,23.3-12.3l7.6,3.6c0.1,0.1,0.2,0.1,0.4,0.1c0.3,0,0.6-0.2,0.8-0.5c0.2-0.4,0-1-0.4-1.2l-7.5-3.5
					c0.6-1.3,1.1-2.6,1.5-4L141.3,270.1z M85.5,272.9l3.6,1.1l-2.6,1.4C86,274.6,85.7,273.8,85.5,272.9z M109.1,288.6
					c-9.6,0-17.9-4.7-21.9-11.6l6.4-3.3l-8.6-2.7c-0.2-1.1-0.3-2.3-0.3-3.4c0-2.9,0.7-5.6,1.9-8.2l0.1-0.2l-1.1-13.4l9.6,4.5
					l0.4-0.2c4-2.3,8.7-3.5,13.5-3.5c4.8,0,9.4,1.2,13.4,3.5l0.4,0.2l9.5-4.5l-1.1,13l0.1,0.2c1.4,2.7,2.2,5.7,2.2,8.7
					c0,1.3-0.1,2.5-0.4,3.7l-8.7,3.1l6.3,3C126.7,284,118.5,288.6,109.1,288.6z M131.7,275.7l-2.6-1.2l3.6-1.3
					C132.4,274.1,132.1,274.9,131.7,275.7z"/>
				<path opacity="0.5" fill="#FFFFFF" d="M114.1,279.5l-4.4-4.4l2.8-2.5l-7.3,0l2.2,1.9l0.6,0.6l-4.4,4.4c-0.2,0.2-0.2,0.6,0,0.8
					c0.1,0.1,0.3,0.2,0.4,0.2c0.1,0,0.3-0.1,0.4-0.2l4.4-4.4l4.4,4.4c0.1,0.1,0.3,0.2,0.4,0.2c0.1,0,0.3-0.1,0.4-0.2
					C114.4,280.1,114.4,279.7,114.1,279.5z"/>
			</g>
		</g>
	</g>
	<path fill="#4F6D83" d="M744.4,880.7c0,6.3-4.8,11.4-10.7,11.4H81.3c-5.9,0-10.7-5.1-10.7-11.4V684.8c0-6.3,4.8-11.4,10.7-11.4
		h652.3c5.9,0,10.7,5.1,10.7,11.4V880.7z"/>
	<g>
		<path fill="#F4BF2D" d="M579.3,251.7c-0.8,0-1.7-0.1-2.5-0.3c-4.6-1.3-7.4-6.1-6.1-10.7l23.3-84.4c1.3-4.6,6.1-7.4,10.7-6.1
			c4.6,1.3,7.4,6.1,6.1,10.7l-23.3,84.4C586.4,249.1,583,251.6,579.3,251.7z"/>
	</g>
	<circle fill="#F4BF2D" cx="572.1" cy="278" r="12.8"/>
	<g>
		<rect x="220.2" y="333.1" fill="#F4BF2D" width="334.5" height="187.9"/>
		<polygon fill="#75777D" points="434.6,612 340.3,612 347.9,549.6 427.1,549.6 		"/>
		<polygon fill="#5D6269" points="429.3,568.2 427.1,549.6 347.9,549.6 345.6,568.2 		"/>
		<path fill="#495259" d="M557.7,325.3H217.2c-2.9,0-5.3,2.6-5.3,5.9v221.3c0,3.3,2.4,5.9,5.3,5.9h340.5c2.9,0,5.3-2.6,5.3-5.9
			V331.3C563,328,560.6,325.3,557.7,325.3z M550.4,510.7H223.5v-171h326.9V510.7z"/>
		<path fill="#495259" d="M446,615.4c0,1.9-1.5,3.4-3.4,3.4H332.3c-1.9,0-3.4-1.5-3.4-3.4l0,0c0-1.9,1.5-3.4,3.4-3.4h110.4
			C444.5,612,446,613.5,446,615.4L446,615.4z"/>
		<circle fill="#75777D" cx="387.5" cy="535.3" r="9.5"/>
		<path fill="#FFFFFF" d="M519.3,480.8c0,2.8-2.3,5.1-5.1,5.1H262.1c-2.8,0-5.1-2.3-5.1-5.1V367.4c0-2.8,2.3-5.1,5.1-5.1h252.2
			c2.8,0,5.1,2.3,5.1,5.1V480.8z"/>
		<path fill="#75777D" d="M514.3,362.3H262.1c-2.8,0-5.1,2.3-5.1,5.1v2.2h262.3v-2.2C519.3,364.6,517,362.3,514.3,362.3z"/>
		<circle fill="#EF4136" cx="263.2" cy="365.9" r="1.5"/>
		<circle fill="#FBB040" cx="268.1" cy="365.9" r="1.5"/>
		<circle fill="#39B54A" cx="272.9" cy="365.9" r="1.5"/>
		<rect x="355.5" y="399.3" fill="#E6E7E8" width="109.5" height="2.9"/>
		<rect x="355.5" y="406" fill="#E6E7E8" width="109.5" height="2.9"/>
		<rect x="355.5" y="414.2" fill="#E6E7E8" width="44.6" height="2.9"/>
		<rect x="355.5" y="428.3" fill="#E6E7E8" width="109.5" height="2.9"/>
		<rect x="355.5" y="435.1" fill="#E6E7E8" width="109.5" height="2.9"/>
		<rect x="355.5" y="443.2" fill="#E6E7E8" width="44.6" height="2.9"/>
		<rect x="355.5" y="457.9" fill="#E6E7E8" width="109.5" height="2.9"/>
		<rect x="355.5" y="464.7" fill="#E6E7E8" width="109.5" height="2.9"/>
		<rect x="355.5" y="472.8" fill="#E6E7E8" width="44.6" height="2.9"/>
		<rect x="265.6" y="398.1" fill="#4395C0" width="83.5" height="76.6"/>
		<g>
			<path fill="#754C29" d="M322,453.5c0,6.9-4.4,12.6-9.9,12.6h-9.6c-5.4,0-9.9-5.6-9.9-12.6v-13c0-6.9,4.4-12.6,9.9-12.6h9.6
				c5.4,0,9.9,5.6,9.9,12.6V453.5z"/>
			<path fill="#F4BF2D" d="M335.7,435.7c0,1.1-1.1,2-2.4,2h-52c-1.3,0-2.4-0.9-2.4-2l0,0c0-1.1,1.1-2,2.4-2h52
				C334.6,433.7,335.7,434.6,335.7,435.7L335.7,435.7z"/>
			<path fill="#F4BF2D" d="M293.2,409.8c-1.3,0-2.4,1.2-2.4,2.8v18.3c0,1.5,1.1,2.8,2.4,2.8h28.2c1.3,0,2.4-1.2,2.4-2.8v-18.3
				c0-1.5-1.1-2.8-2.4-2.8l-10.6,2.9c0,1.5-1.2,2.8-2.8,2.8h-1.5c-1.5,0-2.8-1.2-2.8-2.8"/>
		</g>
		<rect x="324.4" y="465.5" fill="#495259" width="19.8" height="5.6"/>
		<g>
			<path fill="#B3B3B3" d="M272.8,377.7c0.9-0.1,1.7,0,2.5,0.4c0.4-0.5,0.8-0.6,1.4-0.4c0,0,0.1,0.1,0.1,0.1c0,0,0.1,0.1,0.1,0.2
				c0,0.2,0,0.4,0,0.7v0.2l0,0.2l0,0.2l0,0.1l0,0.5c0,0.2,0,0.3-0.1,0.5c0,0.1,0,0.2,0,0.3c0,0.1,0,0.2,0,0.3l0,0.2
				c0,0.1,0,0.2-0.1,0.4c0,0.1-0.1,0.2-0.1,0.4c-0.3,0.3-0.6,0.4-1,0.3c-0.1,0-0.1-0.1-0.2-0.1c-0.1,0-0.1-0.1-0.2-0.2
				c-0.2-2-1.1-2.7-2.4-2.2c-0.6,0.8-0.1,1.6,1.7,2.7c1.9,1.1,2.4,2.7,1.6,4.9c-1.4,2.2-3.3,2.8-5.7,1.8c-0.4,0.4-0.9,0.5-1.4,0.4
				l-0.2-0.3c0-0.2,0-0.4,0-0.7v-0.3v-0.3c0-0.2,0-0.4,0-0.5l0-0.6l0-0.1c0-0.1,0-0.1,0-0.2c0-0.1,0-0.2,0-0.3v-0.2l0.1-0.7
				c0.3-0.3,0.7-0.5,1.2-0.4c0.1,0.1,0.2,0.2,0.3,0.3c0.3,1.9,1.2,2.6,2.7,2.2c0.1-0.1,0.2-0.1,0.2-0.2c0.1-0.1,0.2-0.2,0.2-0.3
				c0.1-0.4,0.1-0.7,0-1.1c-0.1-0.1-0.1-0.2-0.2-0.3c-0.1-0.1-0.2-0.2-0.3-0.3l-0.2-0.2l-0.1-0.1l-1.3-1c0,0-0.1-0.1-0.1-0.1
				c-0.1,0-0.1-0.1-0.2-0.1l-0.1-0.1c-0.1-0.1-0.3-0.2-0.4-0.4l-0.3-0.4c-0.4-0.8-0.5-1.8-0.1-2.9
				C270.5,378.8,271.4,378,272.8,377.7z"/>
			<path fill="#B3B3B3" d="M279.8,379.7c0.1-0.1,0.2-0.2,0.4-0.3h0.1c0.8,0,1,0.5,0.7,1.8c0.8-0.1,1.3,0.1,1.4,0.5
				c0,1-0.5,1.4-1.6,1.3l-0.5,3.8v0.2h0.2c0.3-0.4,0.7-0.5,1.2-0.4c0.3,0.2,0.4,0.5,0.3,0.9c-0.7,1-1.6,1.5-2.8,1.4
				c-0.6,0-1-0.4-1.3-1c0-0.1,0-0.2-0.1-0.4l0-0.3l0.6-4.4c-0.3-0.1-0.6-0.2-0.8-0.5l0.1-0.6c0.1-0.2,0.3-0.3,0.5-0.4l0.2-0.1
				l0.9-0.8l0.1-0.1l0.1-0.1l0.1-0.1l0-0.1C279.6,379.9,279.7,379.8,279.8,379.7z"/>
			<path fill="#B3B3B3" d="M285.7,380.9c1.2-0.2,2.2,0.1,2.9,0.8c0.1,0.2,0.2,0.5,0.3,0.8l0,0.2c0,0.2,0,0.3,0,0.4l-0.5,3.5
				c0.9-0.2,1.1,0.2,0.9,1.2c-0.5,0.7-1.1,1-2,1.1c-0.5,0-0.9-0.1-1.2-0.5c-2,1.1-3.2,0.7-3.7-1c0-1.3,0.6-2.3,1.9-2.9
				c-0.9-0.1-1.3-0.6-1.1-1.6C283.7,381.8,284.5,381.2,285.7,380.9z M286.1,385.3c-0.6,0.2-1,0.6-1.2,1.2c0.1,0.5,0.5,0.5,1,0.1
				l0.2-1.2L286.1,385.3z M286,382.5c0,0-0.1,0-0.2,0c-0.1,0-0.1,0-0.2,0.1c0.1,0.4-0.1,0.9-0.4,1.3c0.1,0,0.1,0,0.2-0.1
				c0.1,0,0.1-0.1,0.2-0.1l0.6-0.2l0.1-0.4C286.6,382.8,286.4,382.6,286,382.5z"/>
			<path fill="#B3B3B3" d="M292.7,379.7c0.1-0.1,0.2-0.2,0.4-0.3h0.1c0.8,0,1,0.5,0.7,1.8c0.8-0.1,1.3,0.1,1.4,0.5
				c0,1-0.5,1.4-1.6,1.3l-0.5,3.8v0.2h0.2c0.3-0.4,0.7-0.5,1.2-0.4c0.3,0.2,0.4,0.5,0.3,0.9c-0.7,1-1.6,1.5-2.8,1.4
				c-0.6,0-1-0.4-1.3-1c0-0.1,0-0.2-0.1-0.4l0-0.3l0.6-4.4c-0.3-0.1-0.6-0.2-0.8-0.5l0.1-0.6c0.1-0.2,0.3-0.3,0.5-0.4l0.2-0.1
				l0.9-0.8l0.1-0.1l0.1-0.1l0.1-0.1l0-0.1C292.5,379.9,292.6,379.8,292.7,379.7z"/>
			<path fill="#B3B3B3" d="M296.3,381.9l2.7-0.9c0.3,0,0.5,0.1,0.7,0.4c0,0.2,0,0.4,0,0.6c0,0.2-0.1,0.5-0.1,0.7l-0.6,4.5
				c0.4,0,0.7,0.2,0.9,0.4c0,0.1,0,0.2,0,0.3c0,0.1,0,0.3-0.1,0.4l0,0.1c0,0-0.1,0.1-0.1,0.1c0,0-0.1,0.1-0.2,0.1h-4
				c-0.3-0.4-0.3-0.8,0.1-1.3c0.2-0.1,0.5-0.1,0.8-0.1l0.1-0.1c0-0.2,0.1-0.5,0.2-0.8l0.4-3.1c-0.8,0.1-1.1-0.2-1-0.9
				c0-0.1,0.1-0.1,0.1-0.2C296.2,382.1,296.2,382,296.3,381.9z M297.9,380.5c-1-0.9-0.9-1.8,0.5-2.6c0.8-0.1,1.4,0.2,1.7,0.9
				C300,380.2,299.3,380.7,297.9,380.5z"/>
			<path fill="#B3B3B3" d="M304.7,381.1c1.7-0.2,2.7,0.3,3.2,1.6c0.1,1.1-0.5,1.7-1.7,1.8c-0.6-0.3-1-0.8-1-1.6
				c-0.2,0-0.5,0-0.7,0.1c-0.6,0.4-0.9,1-1,1.8c-0.1,0.7,0.1,1.4,0.6,1.9c0.9,0.4,1.7,0,2.5-1.1c0.2-0.1,0.5-0.1,0.8,0
				c0.3,0.2,0.4,0.6,0.3,1c-0.9,1.7-2.3,2.6-3.9,2.5c-1.7-0.1-2.6-1.1-2.7-3C300.9,383.5,302.2,381.8,304.7,381.1z"/>
			<path fill="#B3B3B3" d="M313.8,381.1c-0.2-1.9,0.7-3.1,3-3.5h5.1c0.2,0,0.5,0,0.7,0.1l0.2,0h0.1c0.1,0,0.2,0.1,0.3,0.1
				c0.2,0,0.3,0.1,0.5,0.2c0,0,0.1,0,0.1,0.1c0,0,0.1,0.1,0.1,0.1l0.5,0.4c0.5,0.5,0.7,1.3,0.7,2.2c-0.1,1.4-0.9,2.6-2.4,3.4
				c0,2.3,0.8,4.4,2.2,6.3c1.4,1.7,3.2,1.9,5.5,0.5c-0.2-0.6,0-1.1,0.6-1.5c0.4-0.1,0.8,0,1.1,0.3c0.1,0.5,0,1.1-0.3,1.7
				c-0.2,0.2-0.4,0.4-0.6,0.6c-0.2,0.2-0.5,0.4-0.8,0.5l-1.1,0.5l-1.2,0.2h-1.9c-0.1,0-0.2,0-0.3-0.1c-0.1,0-0.2,0-0.3,0
				c-0.2-0.1-0.4-0.1-0.6-0.2c-0.1,0-0.2,0-0.3-0.1c-0.1,0-0.1-0.1-0.3-0.1l-0.3-0.2c-2.3-1.7-3.5-4.2-3.8-7.7l-0.8,0l-0.4,2.7
				l0.2,0.1c0.4,0,0.7,0.1,0.9,0.4c0,0.1,0,0.3,0,0.4c0,0.1,0,0.3-0.1,0.5c-0.1,0.1-0.3,0.2-0.5,0.4l-4.4,0
				c-0.1-0.1-0.2-0.1-0.3-0.2c-0.3-0.9,0.1-1.4,1.2-1.6c0-0.1,0-0.2,0.1-0.3c0-0.1,0-0.2,0.1-0.4l1-7.3l0-0.2c-0.4-0.2-1-0.1-1.5,0
				l-0.1,0.1c0.3,0.6,0.2,1.3-0.4,1.9c-0.5,0.4-0.9,0.4-1.4,0.2C314,381.4,313.9,381.2,313.8,381.1z M322.3,381
				c0.1-1.1-0.5-1.6-1.8-1.5c0,0.1-0.1,0.2-0.1,0.4c0,0.1,0,0.3-0.1,0.4l-0.3,2.2C321.2,382.6,321.9,382.1,322.3,381z"/>
			<path fill="#B3B3B3" d="M328.6,381c2.5-0.3,3.9,0.8,4.1,3.1c0,2.5-1.3,4.1-3.6,4.8c-2.4,0.3-3.8-0.7-4.1-3.1
				C325,383.4,326.2,381.8,328.6,381z M329.2,382.7c-0.1,0-0.2,0-0.3-0.1c-0.2,0.1-0.4,0.2-0.6,0.3c-0.5,0.7-0.7,1.5-0.6,2.3
				c0,0.7,0.1,1.3,0.5,1.9c0.2,0.1,0.4,0.2,0.7,0.2c0.2-0.1,0.3-0.2,0.5-0.3c0.4-0.6,0.7-1.3,0.7-2.1c0.1-0.8-0.1-1.5-0.6-2.2
				C329.4,382.8,329.3,382.8,329.2,382.7z"/>
			<path fill="#B3B3B3" d="M337.3,381.1c1.7-0.2,2.7,0.3,3.2,1.6c0.1,1.1-0.5,1.7-1.7,1.8c-0.6-0.3-1-0.8-1-1.6
				c-0.2,0-0.5,0-0.7,0.1c-0.6,0.4-0.9,1-1,1.8c-0.1,0.7,0.1,1.4,0.6,1.9c0.9,0.4,1.7,0,2.5-1.1c0.2-0.1,0.5-0.1,0.8,0
				c0.3,0.2,0.4,0.6,0.3,1c-0.9,1.7-2.3,2.6-3.9,2.5c-1.7-0.1-2.6-1.1-2.7-3C333.5,383.5,334.7,381.8,337.3,381.1z"/>
			<path fill="#B3B3B3" d="M344.1,377.8l0.1,0c0.4-0.1,0.6,0,0.9,0.2l0.1,0.3l-0.6,4.4v0.2c0.1-0.2,0.3-0.3,0.5-0.4l0.1-0.1
				c-0.4-0.5-0.3-0.9,0.3-1.4l3.2,0l0.2,0l0.1,0c0.1,0.1,0.2,0.3,0.3,0.5c0,0.3-0.2,0.6-0.4,0.9c-0.2,0.1-0.4,0.1-0.7,0.1l-0.3,0
				c-0.1,0-0.1,0.1-0.3,0.1c-0.1,0.1-0.3,0.2-0.5,0.3l-0.2,0.1l-0.1,0.1l-0.3,0.2c-0.1,0.1-0.1,0.1-0.3,0.2
				c-0.1,0.1-0.1,0.1-0.2,0.2c-0.1,0.1-0.2,0.1-0.3,0.2l-0.2,0.2c0.1,0.1,0.2,0.2,0.3,0.4l0.1,0.1l0.2,0.4c0,0,0.1,0.1,0.1,0.1
				c0,0.1,0.1,0.1,0.1,0.2l0.1,0.1l0.2,0.4c0.1,0.1,0.1,0.2,0.1,0.2c0,0,0.1,0.1,0.1,0.1l0.2,0.3l0.1,0.2l0.2,0.2
				c0.2,0.2,0.6,0.3,1,0.4c0.1,0.1,0.2,0.1,0.2,0.2c0.1,0.5,0,0.8-0.4,1.1h-7.6c-0.2,0-0.3-0.1-0.4-0.2c-0.1-0.8,0.3-1.2,1.2-1.3
				l1-7.3c-0.9,0-1.1-0.4-0.8-1.2c0.1-0.1,0.2-0.2,0.3-0.3l0.5-0.1l0.2,0l0.4-0.1l0.2,0l0.4-0.1c0.1,0,0.2,0,0.2-0.1
				C343.9,377.9,344,377.9,344.1,377.8z M344.2,386.8l-0.2-0.2l-0.1,0.7c0.2,0.1,0.4,0.1,0.6,0L344.2,386.8z"/>
		</g>
	</g>
	<g>
		<g>
			<g>
				<polygon fill="#C49A6C" points="516.6,491.4 516.6,596 586.9,596 586.9,484.5 				"/>
				<path fill="#E6E7E8" d="M631.8,555.1c0,0,95.8,157.4,90.3,236.8c-5.5,79.3-308.9,87.7-308.9,0.2
					C413.2,704.5,481.1,537.9,631.8,555.1z"/>
				<path fill="#C49A6C" d="M557.3,384.3c0-33.3-28.9-60.4-64.4-60.4s-64.4,27-64.4,60.4c0,0.6,0.8,12.3,2,27.2
					c-4.9,9-11.9,21.2-17.2,27.3c0,0,9.5,9.1,19.6,9.1c0,0-0.7,1.5,2,22.9c2.7,21.4,17.4,43.5,38,43.5h39.4
					c20.6,0,37.4-15.9,37.4-35.5l7.8-85.3c0-1.4-0.1-2.7-0.2-4C557.2,387.7,557.3,386,557.3,384.3z"/>
				<circle fill="#292429" cx="451.1" cy="405.5" r="5.5"/>
				<path fill="#302A2F" d="M426.1,338.8c-2.8,38.8,34.9,39.5,64.9,52.2c36.5,15.4,34.9,89.6,10.1,100.9c-24.9,11.3-27,39-13.6,60.2
					c17.1,26.7,143.7,49.3,165.6-11c21.2-58.2-4.3-65.8-24-68.5c-19.7-2.7,7-82.9,7.2-100.9c0.2-18-36.3-62.5-68.5-64.7
					C535.5,304.9,428.9,300,426.1,338.8z"/>
				<path fill="#292429" d="M629,472.6c-19.7-2.7,19.3-49.6,12-97.7c-7.3-48.2-41.1-65.7-73.3-67.8c-21.8-1.5-77.8-4.2-112.5,6.3
					c-1,0.6,0.9,0.7,19.4,3.1c28.4,3.7,72.9,51,77.3,77.8c4.4,26.8-2.3,89.8-25.3,97.3c-24.6,8-31.6,17.5-33.3,43.2
					c-1.7,25.7,25,35,50.9,41.4c26,6.4,101.9,6.4,115.5-31.1C680.8,486.9,648.7,475.3,629,472.6z"/>
			</g>
		</g>
		<path fill="#D1D3D4" d="M591.4,785.7c0,64.2-41.7,72.1-80.2,72.1c-38.6,0-77.4-15.4-77.4-79.6s38.9-152.9,77.4-152.9
			C549.7,625.3,591.4,721.5,591.4,785.7z"/>
	</g>
	<circle fill="#292429" cx="451.1" cy="405.5" r="8.4"/>
</g>
<g id="Layer_3">
</g>
</svg>
