<?xml version="1.0" encoding="utf-8"?>
<!-- Generator: Adobe Illustrator 18.0.0, SVG Export Plug-In . SVG Version: 6.00 Build 0)  -->
<!DOCTYPE svg PUBLIC "-//W3C//DTD SVG 1.1//EN" "http://www.w3.org/Graphics/SVG/1.1/DTD/svg11.dtd">
<svg version="1.1" xmlns="http://www.w3.org/2000/svg" xmlns:xlink="http://www.w3.org/1999/xlink" x="0px" y="0px"
	 viewBox="0 0 778.5 675" enable-background="new 0 0 778.5 675" xml:space="preserve">
<g id="bg">
	<rect x="-14.1" y="0" fill="#4395C0" width="792.5" height="945"/>
	
		<line opacity="0.5" fill="none" stroke="#FFFFFF" stroke-width="3" stroke-linecap="round" stroke-miterlimit="10" x1="-3176.5" y1="622.9" x2="918.9" y2="622.9"/>
</g>
<g id="Layer_1">
	
		<rect x="271" y="264.2" transform="matrix(-0.9976 -6.981854e-02 6.981854e-02 -0.9976 533.9448 589.1066)" fill="#EF4136" width="12.5" height="42"/>
	
		<rect x="410.8" y="427.6" transform="matrix(-0.4727 -0.8812 0.8812 -0.4727 218.9486 1028.2202)" fill="#F8971D" width="12.5" height="42"/>
	
		<rect x="416.6" y="349" transform="matrix(0.6052 -0.7961 0.7961 0.6052 -127.5973 482.7063)" fill="#E36C1E" width="12.5" height="42"/>
	
		<rect x="334.9" y="280.6" transform="matrix(-0.4405 -0.8978 0.8978 -0.4405 220.7654 740.7396)" fill="#F4BF2D" width="12.5" height="42"/>
	
		<rect x="193.4" y="349.1" transform="matrix(0.3089 -0.9511 0.9511 0.3089 -213.9657 445.6889)" fill="#F8971D" width="12.5" height="42"/>
	
		<rect x="222.9" y="302.2" transform="matrix(0.9935 -0.1142 0.1142 0.9935 -35.4028 28.2725)" fill="#E36C1E" width="12.5" height="42"/>
	
		<rect x="27.6" y="356" transform="matrix(0.9232 0.3842 -0.3842 0.9232 147.4415 15.9201)" fill="#F4BF2D" width="12.5" height="42"/>
	<g>
		<g>
			<polygon fill="#C49A6C" points="545.5,481.6 560.1,585.2 629.7,575.4 614.2,465 			"/>
			<path fill="#FFFFFF" d="M668.2,553.9c0,0,95.8,157.4,90.3,236.8c-5.5,79.3-308.9,87.7-308.9,0.2
				C449.6,703.3,517.5,536.8,668.2,553.9z"/>
			<path fill="#C49A6C" d="M593.7,383.1c0-33.3-28.9-60.4-64.4-60.4s-64.4,27-64.4,60.4c0,0.6,0.8,12.3,2,27.2
				c-4.9,9-11.9,21.2-17.2,27.3c0,0,9.5,9.1,19.6,9.1c0,0,1.4,14.6,1.8,20.5c5.3,0.5,23.2-5.6,26.4-8.1c5.6-4.3-3.2,17.7-20.8,19.4
				c0.1,1.9,11.9,34.6,32.6,34.6h39.4c20.6,0,37.4-15.9,37.4-35.5l7.8-85.3c0-1.4-0.1-2.7-0.2-4
				C593.6,386.5,593.7,384.8,593.7,383.1z"/>
			<path fill="#292429" d="M490.9,404.7c4,0,7.5,2.6,8.7,6.2c0.3-0.9,0.4-1.8,0.4-2.8c0-5.1-4.2-9.3-9.3-9.3c-5.1,0-9.3,4.2-9.3,9.3
				c0,1.1,0.2,2.1,0.5,3.1C483.2,407.5,486.8,404.7,490.9,404.7z"/>
			<path fill="#302A2F" d="M462.5,337.6c-2.8,38.8,34.9,39.5,64.9,52.2c36.5,15.4,34.9,89.6,10.1,100.9c-24.9,11.3-27,39-13.6,60.2
				c17.1,26.7,143.7,49.3,165.6-11c21.2-58.2-4.3-65.8-24-68.5c-19.7-2.7,7-82.9,7.2-100.9c0.2-18-36.3-62.5-68.5-64.7
				C571.9,303.8,465.3,298.9,462.5,337.6z"/>
			<path fill="#292429" d="M665.4,471.5c-19.7-2.7,19.3-49.6,12-97.7c-7.3-48.2-41.1-65.7-73.3-67.8c-21.8-1.5-77.8-4.2-112.5,6.3
				c-1,0.6,0.9,0.7,19.4,3.1c28.4,3.7,72.9,51,77.3,77.8c4.4,26.8-2.3,89.8-25.3,97.3c-24.6,8-31.6,17.5-33.3,43.2
				c-1.7,25.7,25,35,50.9,41.4c26,6.4,101.9,6.4,115.5-31.1C717.2,485.7,685.1,474.2,665.4,471.5z"/>
			<path fill="#E6E7E8" d="M629.4,779.9c0,64.2-41.7,72.1-80.2,72.1c-38.6,0-77.4-15.4-77.4-79.6s38.9-152.9,77.4-152.9
				C587.7,619.6,629.4,715.7,629.4,779.9z"/>
		</g>
		<path fill="#F4BF2D" d="M695.2,444.2l-25.8-17.9c1.9-1.2,3.6-2.8,4.9-4.8l54.9-86.1c4.6-7.2,2.8-16.8-4.1-21.5l-144.1-97.4
			c-6.9-4.6-16.1-2.5-20.7,4.7l-54.9,86.1c-1.3,2-2,4.3-2.3,6.5l-37.8-25.4c-7-4.7-15.4-4.1-18.9,1.3c-3.5,5.4-0.6,13.6,6.4,18.3
			l230.1,155.8c7,4.7,15.4,4.1,18.9-1.3C705,457.1,702.2,448.9,695.2,444.2z"/>
		<polygon fill="#0078AB" points="672.4,428.3 498,310.5 514.2,279.4 695.4,400.3 		"/>
	</g>
	<circle opacity="0.1" fill="#DA0884" cx="514.7" cy="443.6" r="15.4"/>
	
		<rect x="90.2" y="212.7" transform="matrix(0.8699 -0.4933 0.4933 0.8699 -102.6989 78.0104)" fill="#F8971D" width="12.5" height="42"/>
	
		<rect x="157.3" y="195.7" transform="matrix(0.8101 0.5864 -0.5864 0.8101 158.1427 -54.7706)" fill="#E36C1E" width="12.5" height="42"/>
	
		<rect x="115.3" y="128" transform="matrix(0.8872 -0.4615 0.4615 0.8872 -55.0299 72.9304)" fill="#F4BF2D" width="12.5" height="42"/>
	
		<rect x="145.5" y="269.7" transform="matrix(0.8872 -0.4615 0.4615 0.8872 -117.0148 102.8574)" fill="#F4BF2D" width="12.5" height="42"/>
	
		<rect x="451.5" y="15.8" transform="matrix(-0.8939 0.4482 -0.4482 -0.8939 883.4017 -135.4318)" fill="#F8971D" width="12.5" height="42"/>
	
		<rect x="383.6" y="29.3" transform="matrix(-0.779 -0.627 0.627 -0.779 661.9963 333.9037)" fill="#EF4136" width="12.5" height="42"/>
	
		<rect x="422.1" y="99.1" transform="matrix(-0.9096 0.4155 -0.4155 -0.9096 867.8093 51.3269)" fill="#F4BF2D" width="12.5" height="42"/>
	
		<rect x="334.9" y="109.8" transform="matrix(-0.9994 -3.365659e-02 3.365659e-02 -0.9994 677.8192 272.9116)" fill="#F8971D" width="12.5" height="42"/>
	
		<rect x="637.2" y="176.7" transform="matrix(-0.4482 -0.8939 0.8939 -0.4482 755.092 861.5263)" fill="#F8971D" width="12.5" height="42"/>
	
		<rect x="15.3" y="438.3" transform="matrix(-0.4482 -0.8939 0.8939 -0.4482 -379.3117 684.4025)" fill="#F8971D" width="12.5" height="42"/>
	
		<rect x="623.7" y="108.8" transform="matrix(0.627 -0.779 0.779 0.627 133.8429 539.1777)" fill="#E36C1E" width="12.5" height="42"/>
	
		<rect x="553.9" y="147.3" transform="matrix(-0.4155 -0.9096 0.9096 -0.4155 639.8474 747.7763)" fill="#F4BF2D" width="12.5" height="42"/>
	
		<rect x="543.2" y="60.2" transform="matrix(3.365652e-02 -0.9994 0.9994 3.365652e-02 449.8695 627.6519)" fill="#F8971D" width="12.5" height="42"/>
	
		<rect x="268.9" y="89.2" transform="matrix(-0.3846 -0.9231 0.9231 -0.3846 279.2682 406.4902)" fill="#E36C1E" width="12.5" height="42"/>
	
		<rect x="278.3" y="10.9" transform="matrix(-0.3846 -0.9231 0.9231 -0.3846 364.4936 306.8846)" fill="#E36C1E" width="12.5" height="42"/>
	
		<rect x="269.3" y="168.8" transform="matrix(-0.9976 -6.981806e-02 6.981806e-02 -0.9976 537.2393 398.458)" fill="#EF4136" width="12.5" height="42"/>
	
		<rect x="407.6" y="252" transform="matrix(-0.4727 -0.8812 0.8812 -0.4727 369.0017 766.7531)" fill="#F8971D" width="12.5" height="42"/>
	
		<rect x="392.3" y="184.5" transform="matrix(0.6052 -0.7961 0.7961 0.6052 -6.2503 398.3953)" fill="#E36C1E" width="12.5" height="42"/>
	
		<rect x="323.6" y="224.9" transform="matrix(-0.4405 -0.8978 0.8978 -0.4405 254.3704 650.3334)" fill="#F4BF2D" width="12.5" height="42"/>
	
		<rect x="184.2" y="110" transform="matrix(0.3089 -0.9511 0.9511 0.3089 6.9966 271.6772)" fill="#F8971D" width="12.5" height="42"/>
	
		<rect x="230.9" y="211.3" transform="matrix(0.3089 -0.9511 0.9511 0.3089 -57.0583 386.0893)" fill="#F8971D" width="12.5" height="42"/>
	
		<rect x="222.2" y="52.2" transform="matrix(0.9935 -0.1142 0.1142 0.9935 -6.8657 26.5662)" fill="#EF4136" width="12.5" height="42"/>
	
		<rect x="728.7" y="388.7" transform="matrix(0.9935 -0.1142 0.1142 0.9935 -41.9672 86.5816)" fill="#EF4136" width="12.5" height="42"/>
	
		<rect x="145.5" y="30.6" transform="matrix(0.3431 -0.9393 0.9393 0.3431 51.249 176.5041)" fill="#F4BF2D" width="12.5" height="42"/>
	
		<rect x="57.3" y="156.8" transform="matrix(0.8101 0.5864 -0.5864 0.8101 116.3389 -3.5049)" fill="#E36C1E" width="12.5" height="42"/>
	
		<rect x="57.3" y="19.2" transform="matrix(0.8101 0.5864 -0.5864 0.8101 35.6395 -29.6469)" fill="#E36C1E" width="12.5" height="42"/>
	
		<rect x="15.3" y="89.1" transform="matrix(0.8872 -0.4615 0.4615 0.8872 -48.3702 22.3818)" fill="#F4BF2D" width="12.5" height="42"/>
	
		<rect x="12.4" y="205.4" transform="matrix(0.8872 -0.4615 0.4615 0.8872 -102.374 34.145)" fill="#F4BF2D" width="12.5" height="42"/>
	
		<rect x="84.1" y="71.1" transform="matrix(0.3089 -0.9511 0.9511 0.3089 -25.1457 149.6588)" fill="#F8971D" width="12.5" height="42"/>
	
		<rect x="36.9" y="284.5" transform="matrix(0.499 0.8666 -0.8666 0.499 286.3296 115.6217)" fill="#F8971D" width="12.5" height="42"/>
	
		<rect x="646.6" y="60.3" transform="matrix(0.8872 -0.4615 0.4615 0.8872 36.1644 310.4538)" fill="#F4BF2D" width="12.5" height="42"/>
	
		<rect x="715.4" y="42.3" transform="matrix(0.3089 -0.9511 0.9511 0.3089 438.5709 730.1797)" fill="#F8971D" width="12.5" height="42"/>
	
		<rect x="728.7" y="227.3" transform="matrix(0.3089 -0.9511 0.9511 0.3089 271.7832 870.6826)" fill="#F8971D" width="12.5" height="42"/>
	
		<rect x="728.7" y="153.1" transform="matrix(0.9935 -0.1142 0.1142 0.9935 -15.0723 85.0415)" fill="#EF4136" width="12.5" height="42"/>
	
		<rect x="475.3" y="166.8" transform="matrix(0.9935 -0.1142 0.1142 0.9935 -18.2916 56.1999)" fill="#EF4136" width="12.5" height="42"/>
	
		<rect x="590.9" y="6.1" transform="matrix(0.3431 -0.9393 0.9393 0.3431 366.8692 578.7598)" fill="#F4BF2D" width="12.5" height="42"/>
	<rect x="56.1" y="335.4" fill="#F4BF2D" width="334.5" height="187.9"/>
	<polygon fill="#75777D" points="270.5,614.3 176.1,614.3 183.7,551.9 262.9,551.9 	"/>
	<polygon fill="#5D6269" points="265.1,570.5 262.9,551.9 183.7,551.9 181.4,570.5 	"/>
	<path fill="#495259" d="M393.5,327.6H53c-2.9,0-5.3,2.6-5.3,5.9v221.3c0,3.3,2.4,5.9,5.3,5.9h340.5c2.9,0,5.3-2.6,5.3-5.9V333.5
		C398.8,330.3,396.5,327.6,393.5,327.6z M386.2,513H59.3V342h326.9V513z"/>
	<path fill="#495259" d="M281.8,617.6c0,1.9-1.5,3.4-3.4,3.4H168.1c-1.9,0-3.4-1.5-3.4-3.4l0,0c0-1.9,1.5-3.4,3.4-3.4h110.4
		C280.3,614.3,281.8,615.8,281.8,617.6L281.8,617.6z"/>
	<circle fill="#75777D" cx="223.3" cy="537.6" r="9.5"/>
	<path fill="#FFFFFF" d="M355.1,483.1c0,2.8-2.3,5.1-5.1,5.1H97.9c-2.8,0-5.1-2.3-5.1-5.1V369.7c0-2.8,2.3-5.1,5.1-5.1h252.2
		c2.8,0,5.1,2.3,5.1,5.1V483.1z"/>
	<path fill="#75777D" d="M350.1,364.6H97.9c-2.8,0-5.1,2.3-5.1,5.1v2.2h262.3v-2.2C355.1,366.9,352.9,364.6,350.1,364.6z"/>
	<circle fill="#EF4136" cx="99" cy="368.2" r="1.5"/>
	<circle fill="#FBB040" cx="103.9" cy="368.2" r="1.5"/>
	<circle fill="#39B54A" cx="108.7" cy="368.2" r="1.5"/>
	<g>
		<path fill="#B3B3B3" d="M106.1,381.2c0.9-0.1,1.7,0,2.5,0.4c0.4-0.5,0.8-0.6,1.4-0.4c0,0,0.1,0.1,0.1,0.1c0,0,0.1,0.1,0.1,0.2
			c0,0.2,0,0.4,0,0.7v0.2l0,0.2l0,0.2l0,0.1l0,0.5c0,0.2,0,0.3-0.1,0.5c0,0.1,0,0.2,0,0.3c0,0.1,0,0.2,0,0.3l0,0.2
			c0,0.1,0,0.2-0.1,0.4c0,0.1-0.1,0.2-0.1,0.4c-0.3,0.3-0.6,0.4-1,0.3c-0.1,0-0.1-0.1-0.2-0.1c-0.1,0-0.1-0.1-0.2-0.2
			c-0.2-2-1.1-2.7-2.4-2.2c-0.6,0.8-0.1,1.6,1.7,2.7c1.9,1.1,2.4,2.7,1.6,4.9c-1.4,2.2-3.3,2.8-5.7,1.8c-0.4,0.4-0.9,0.5-1.4,0.4
			l-0.2-0.3c0-0.2,0-0.4,0-0.7v-0.3v-0.3c0-0.2,0-0.4,0-0.5l0-0.6l0-0.1c0-0.1,0-0.1,0-0.2c0-0.1,0-0.2,0-0.3v-0.2l0.1-0.7
			c0.3-0.3,0.7-0.5,1.2-0.4c0.1,0.1,0.2,0.2,0.3,0.3c0.3,1.9,1.2,2.6,2.7,2.2c0.1-0.1,0.2-0.1,0.2-0.2c0.1-0.1,0.2-0.2,0.2-0.3
			c0.1-0.4,0.1-0.7,0-1.1c-0.1-0.1-0.1-0.2-0.2-0.3c-0.1-0.1-0.2-0.2-0.3-0.3l-0.2-0.2l-0.1-0.1l-1.3-1c0,0-0.1-0.1-0.1-0.1
			c-0.1,0-0.1-0.1-0.2-0.1l-0.1-0.1c-0.1-0.1-0.3-0.2-0.4-0.4l-0.3-0.4c-0.4-0.8-0.5-1.8-0.1-2.9
			C103.8,382.3,104.7,381.5,106.1,381.2z"/>
		<path fill="#B3B3B3" d="M113.1,383.1c0.1-0.1,0.2-0.2,0.4-0.3h0.1c0.8,0,1,0.5,0.7,1.8c0.8-0.1,1.3,0.1,1.4,0.5
			c0,1-0.5,1.4-1.6,1.3l-0.5,3.8v0.2h0.2c0.3-0.4,0.7-0.5,1.2-0.4c0.3,0.2,0.4,0.5,0.3,0.9c-0.7,1-1.6,1.5-2.8,1.4
			c-0.6,0-1-0.4-1.3-1c0-0.1,0-0.2-0.1-0.4l0-0.3l0.6-4.4c-0.4-0.1-0.6-0.2-0.8-0.5l0.1-0.6c0.1-0.2,0.3-0.3,0.5-0.4l0.2-0.1
			l0.9-0.8l0.1-0.1l0.1-0.1l0.1-0.1l0-0.1C112.9,383.4,113,383.3,113.1,383.1z"/>
		<path fill="#B3B3B3" d="M119,384.4c1.2-0.2,2.2,0.1,2.9,0.8c0.1,0.2,0.2,0.5,0.3,0.8l0,0.2c0,0.2,0,0.3,0,0.4l-0.5,3.5
			c0.9-0.2,1.1,0.2,0.9,1.2c-0.5,0.7-1.1,1-2,1.1c-0.5,0-0.9-0.1-1.2-0.5c-2,1.1-3.2,0.7-3.7-1c0-1.3,0.6-2.3,1.9-2.9
			c-0.9-0.1-1.3-0.6-1.1-1.6C117,385.3,117.8,384.7,119,384.4z M119.4,388.7c-0.6,0.2-1,0.6-1.2,1.2c0.1,0.5,0.5,0.5,1,0.1l0.2-1.2
			L119.4,388.7z M119.3,386c0,0-0.1,0-0.2,0c-0.1,0-0.1,0-0.2,0.1c0.1,0.4-0.1,0.9-0.4,1.3c0.1,0,0.1,0,0.2-0.1
			c0.1,0,0.1-0.1,0.2-0.1l0.6-0.2l0.1-0.4C119.8,386.2,119.7,386,119.3,386z"/>
		<path fill="#B3B3B3" d="M126,383.1c0.1-0.1,0.2-0.2,0.4-0.3h0.1c0.8,0,1,0.5,0.7,1.8c0.8-0.1,1.3,0.1,1.4,0.5c0,1-0.5,1.4-1.6,1.3
			l-0.5,3.8v0.2h0.2c0.3-0.4,0.7-0.5,1.2-0.4c0.3,0.2,0.4,0.5,0.3,0.9c-0.7,1-1.6,1.5-2.8,1.4c-0.6,0-1-0.4-1.3-1
			c0-0.1,0-0.2-0.1-0.4l0-0.3l0.6-4.4c-0.4-0.1-0.6-0.2-0.8-0.5l0.1-0.6c0.1-0.2,0.3-0.3,0.5-0.4l0.2-0.1l0.9-0.8l0.1-0.1l0.1-0.1
			l0.1-0.1l0-0.1C125.8,383.4,125.9,383.3,126,383.1z"/>
		<path fill="#B3B3B3" d="M129.6,385.4l2.7-0.9c0.3,0,0.5,0.1,0.7,0.4c0,0.2,0,0.4,0,0.6c0,0.2-0.1,0.5-0.1,0.7l-0.6,4.5
			c0.4,0,0.7,0.2,0.9,0.4c0,0.1,0,0.2,0,0.3c0,0.1,0,0.3-0.1,0.4l0,0.1c0,0-0.1,0.1-0.1,0.1c0,0-0.1,0.1-0.2,0.1h-4
			c-0.4-0.4-0.3-0.8,0.1-1.3c0.2-0.1,0.5-0.1,0.8-0.1l0.1-0.1c0-0.2,0.1-0.5,0.2-0.8l0.4-3.1c-0.8,0.1-1.1-0.2-1-0.9
			c0-0.1,0.1-0.1,0.1-0.2C129.4,385.6,129.5,385.5,129.6,385.4z M131.2,383.9c-1-0.9-0.9-1.8,0.5-2.6c0.8-0.1,1.4,0.2,1.7,0.9
			C133.3,383.6,132.5,384.2,131.2,383.9z"/>
		<path fill="#B3B3B3" d="M138,384.5c1.7-0.2,2.7,0.3,3.2,1.6c0.1,1.1-0.5,1.7-1.7,1.8c-0.6-0.3-1-0.8-1-1.6c-0.2,0-0.5,0-0.7,0.1
			c-0.6,0.4-0.9,1-1,1.8c-0.1,0.7,0.1,1.4,0.6,1.9c0.9,0.4,1.7,0,2.5-1.1c0.2-0.1,0.5-0.1,0.8,0c0.3,0.2,0.4,0.6,0.3,1
			c-0.9,1.7-2.3,2.6-3.9,2.5c-1.7-0.1-2.6-1.1-2.7-3C134.2,386.9,135.5,385.3,138,384.5z"/>
		<path fill="#B3B3B3" d="M147.1,384.5c-0.2-1.9,0.7-3.1,3-3.5h5.1c0.2,0,0.5,0,0.7,0.1l0.2,0h0.1c0.1,0,0.2,0.1,0.3,0.1
			c0.2,0,0.3,0.1,0.5,0.2c0,0,0.1,0,0.1,0.1c0,0,0.1,0.1,0.1,0.1l0.5,0.4c0.5,0.5,0.7,1.3,0.7,2.2c-0.1,1.4-0.9,2.6-2.4,3.4
			c0,2.3,0.8,4.4,2.2,6.3c1.4,1.7,3.2,1.9,5.5,0.5c-0.2-0.6,0-1.1,0.6-1.5c0.4-0.1,0.8,0,1.1,0.3c0.1,0.5,0,1.1-0.3,1.7
			c-0.2,0.2-0.4,0.4-0.6,0.6c-0.2,0.2-0.5,0.4-0.8,0.5l-1.1,0.5l-1.2,0.2h-1.9c-0.1,0-0.2,0-0.3-0.1c-0.1,0-0.2,0-0.3,0
			c-0.2-0.1-0.4-0.1-0.6-0.2c-0.1,0-0.2,0-0.3-0.1c-0.1,0-0.1-0.1-0.3-0.1l-0.3-0.2c-2.3-1.7-3.5-4.2-3.8-7.7l-0.8,0l-0.4,2.7
			l0.2,0.1c0.4,0,0.7,0.1,0.9,0.4c0,0.1,0,0.3,0,0.4c0,0.1,0,0.3-0.1,0.5c-0.1,0.1-0.3,0.2-0.5,0.4l-4.4,0c-0.1-0.1-0.2-0.1-0.3-0.2
			c-0.3-0.9,0.1-1.4,1.2-1.6c0-0.1,0-0.2,0.1-0.3c0-0.1,0-0.2,0.1-0.4l1-7.3l0-0.2c-0.4-0.2-1-0.1-1.5,0l-0.1,0.1
			c0.3,0.6,0.2,1.3-0.4,1.9c-0.5,0.4-0.9,0.4-1.4,0.2C147.3,384.8,147.2,384.7,147.1,384.5z M155.5,384.4c0.1-1.1-0.5-1.6-1.8-1.5
			c0,0.1-0.1,0.2-0.1,0.4c0,0.1,0,0.3-0.1,0.4l-0.3,2.2C154.5,386.1,155.2,385.6,155.5,384.4z"/>
		<path fill="#B3B3B3" d="M161.9,384.5c2.5-0.3,3.9,0.8,4.1,3.1c0,2.5-1.3,4.1-3.6,4.8c-2.4,0.3-3.8-0.7-4.1-3.1
			C158.3,386.8,159.5,385.2,161.9,384.5z M162.5,386.2c-0.1,0-0.2,0-0.3-0.1c-0.2,0.1-0.4,0.2-0.6,0.3c-0.5,0.7-0.7,1.5-0.6,2.3
			c0,0.7,0.1,1.3,0.5,1.9c0.2,0.1,0.4,0.2,0.6,0.2c0.2-0.1,0.3-0.2,0.5-0.3c0.4-0.6,0.7-1.3,0.7-2.1c0.1-0.8-0.1-1.5-0.6-2.2
			C162.7,386.3,162.6,386.2,162.5,386.2z"/>
		<path fill="#B3B3B3" d="M170.5,384.5c1.7-0.2,2.7,0.3,3.2,1.6c0.1,1.1-0.5,1.7-1.7,1.8c-0.6-0.3-1-0.8-1-1.6c-0.2,0-0.5,0-0.7,0.1
			c-0.6,0.4-0.9,1-1,1.8c-0.1,0.7,0.1,1.4,0.6,1.9c0.9,0.4,1.7,0,2.5-1.1c0.2-0.1,0.5-0.1,0.8,0c0.3,0.2,0.4,0.6,0.3,1
			c-0.9,1.7-2.3,2.6-3.9,2.5c-1.7-0.1-2.6-1.1-2.7-3C166.8,386.9,168,385.3,170.5,384.5z"/>
		<path fill="#B3B3B3" d="M177.4,381.3l0.1,0c0.4-0.1,0.6,0,0.9,0.2l0.1,0.3l-0.6,4.4v0.2c0.1-0.2,0.3-0.3,0.5-0.4l0.1-0.1
			c-0.4-0.5-0.3-0.9,0.3-1.4l3.2,0l0.2,0l0.1,0c0.1,0.1,0.2,0.3,0.3,0.5c0,0.3-0.2,0.6-0.4,0.9c-0.2,0.1-0.4,0.1-0.7,0.1l-0.3,0
			c-0.1,0-0.1,0.1-0.3,0.1c-0.1,0.1-0.3,0.2-0.5,0.3l-0.2,0.1l-0.1,0.1l-0.3,0.2c-0.1,0.1-0.1,0.1-0.3,0.2c-0.1,0.1-0.1,0.1-0.2,0.2
			c-0.1,0.1-0.2,0.1-0.3,0.2l-0.2,0.2c0.1,0.1,0.2,0.2,0.3,0.4l0.1,0.1l0.2,0.4c0,0,0.1,0.1,0.1,0.1c0,0.1,0.1,0.1,0.1,0.2l0.1,0.1
			l0.2,0.4c0.1,0.1,0.1,0.2,0.1,0.2c0,0,0.1,0.1,0.1,0.1l0.2,0.3l0.1,0.2l0.2,0.2c0.2,0.2,0.6,0.3,1,0.4c0.1,0.1,0.2,0.1,0.2,0.2
			c0.1,0.5,0,0.8-0.4,1.1h-7.6c-0.2,0-0.3-0.1-0.4-0.2c-0.1-0.8,0.3-1.2,1.2-1.3l1-7.3c-0.9,0-1.1-0.4-0.8-1.2
			c0.1-0.1,0.2-0.2,0.3-0.3l0.5-0.1l0.2,0l0.4-0.1l0.2,0l0.4-0.1c0.1,0,0.2,0,0.2-0.1C177.2,381.4,177.3,381.3,177.4,381.3z
			 M177.4,390.2l-0.2-0.2l-0.1,0.7c0.2,0.1,0.4,0.1,0.6,0L177.4,390.2z"/>
	</g>
	<g>
		<defs>
			<path id="SVGID_9_" d="M355.1,483.1c0,2.8-2.3,5.1-5.1,5.1H97.9c-2.8,0-5.1-2.3-5.1-5.1V369.7c0-2.8,2.3-5.1,5.1-5.1h252.2
				c2.8,0,5.1,2.3,5.1,5.1V483.1z"/>
		</defs>
		<clipPath id="SVGID_2_">
			<use xlink:href="#SVGID_9_"  overflow="visible"/>
		</clipPath>
		<g clip-path="url(#SVGID_2_)">
			<rect x="143.2" y="401.1" fill="#E6E7E8" width="109.5" height="2.9"/>
			<rect x="143.2" y="407.9" fill="#E6E7E8" width="109.5" height="2.9"/>
			<rect x="143.2" y="416" fill="#E6E7E8" width="44.6" height="2.9"/>
			<rect x="143.2" y="430.2" fill="#E6E7E8" width="109.5" height="2.9"/>
			<rect x="143.2" y="436.9" fill="#E6E7E8" width="109.5" height="2.9"/>
			<rect x="143.2" y="445" fill="#E6E7E8" width="44.6" height="2.9"/>
			<rect x="143.2" y="459.7" fill="#E6E7E8" width="109.5" height="2.9"/>
			<rect x="143.2" y="466.5" fill="#E6E7E8" width="109.5" height="2.9"/>
			<rect x="143.2" y="474.6" fill="#E6E7E8" width="44.6" height="2.9"/>
			<g>
				<rect x="50.9" y="400" fill="#4395C0" width="83.5" height="76.6"/>
				<g>
					<path fill="#754C29" d="M107.3,455.3c0,6.9-4.4,12.6-9.9,12.6h-9.6c-5.4,0-9.9-5.6-9.9-12.6v-13c0-6.9,4.4-12.6,9.9-12.6h9.6
						c5.4,0,9.9,5.6,9.9,12.6V455.3z"/>
					<path fill="#F4BF2D" d="M121,437.5c0,1.1-1.1,2-2.4,2h-52c-1.3,0-2.4-0.9-2.4-2l0,0c0-1.1,1.1-2,2.4-2h52
						C120,435.5,121,436.4,121,437.5L121,437.5z"/>
					<path fill="#F4BF2D" d="M78.6,411.7c-1.3,0-2.4,1.2-2.4,2.8v18.3c0,1.5,1.1,2.8,2.4,2.8h28.2c1.3,0,2.4-1.2,2.4-2.8v-18.3
						c0-1.5-1.1-2.8-2.4-2.8l-10.6,2.9c0,1.5-1.2,2.8-2.8,2.8h-1.5c-1.5,0-2.8-1.2-2.8-2.8"/>
				</g>
			</g>
		</g>
	</g>
	<rect x="111.6" y="468" fill="#495259" width="19.8" height="5.6"/>
	<rect x="263.6" y="400" fill="#EF4136" width="83.5" height="76.6"/>
	<rect x="324.7" y="468" fill="#495259" width="19.8" height="5.6"/>
	<g>
		<g>
			<path fill="#292429" d="M325,442.2c0,9.3-5.9,16.9-13.2,16.9h-12.9c-7.3,0-13.2-7.5-13.2-16.9v-17.5c0-9.3,5.9-16.9,13.2-16.9
				h12.9c7.3,0,13.2,7.5,13.2,16.9V442.2z"/>
		</g>
		<g>
			<path fill="#754C29" d="M325,447.1c0,9.3-5.9,16.9-13.2,16.9h-12.9c-7.3,0-13.2-7.5-13.2-16.9v-17.5c0-9.3,5.9-16.9,13.2-16.9
				h12.9c7.3,0,13.2,7.5,13.2,16.9V447.1z"/>
		</g>
		<path fill="#FFFFFF" d="M285.7,430.3v6.5h0c0,3.6,4.1,6.5,9.1,6.5c5,0,9.1-4.5,9.1-8.1h2.8c0,3.6,4.1,8.1,9.1,8.1
			c5,0,9.1-2.9,9.1-6.5v-6.5H285.7z M299.1,441.7h-8.7v-0.8h8.7V441.7z M300.9,439.9h-12.4V439h12.4V439.9z M301.3,438h-14v-0.8h14
			V438z M301.8,436.2h-14.9v-0.8h14.9V436.2z M301.8,434.3h-14.9v-0.8h14.9V434.3z M301.8,432.5h-14.9v-0.8h14.9V432.5z
			 M320.7,441.7H312v-0.8h8.7V441.7z M322.5,439.9h-12.4V439h12.4V439.9z M323,438h-14v-0.8h14V438z M323.4,436.2h-14.9v-0.8h14.9
			V436.2z M323.4,434.3h-14.9v-0.8h14.9V434.3z M323.4,432.5h-14.9v-0.8h14.9V432.5z"/>
		<path fill="#292429" d="M310.5,450.4h-10.2c-2.8,0-5.1,1.9-5.1,4.2v8c0,2.3,2.3,4.2,5.1,4.2h10.2c2.8,0,5.1-1.9,5.1-4.2v-8
			C315.6,452.3,313.3,450.4,310.5,450.4z M312.1,457.7c0,1-1.5,1.8-3.4,1.8h-6.8c-1.9,0-3.4-0.8-3.4-1.8v-3.5c0-1,1.5-1.8,3.4-1.8
			h6.8c1.9,0,3.4,0.8,3.4,1.8V457.7z"/>
	</g>
	<path fill="#F4BF2D" d="M553.9,231c0,0,22.5-46.8,83.7-29.4s20.5,44.3,52.5,58.7c14.1,6.4,68.1,29.4,39,75"/>
</g>
<g id="Layer_3">
	<g>
		<path fill="#292429" d="M497.2,401.4c0,0,0.5-0.1,1.3-0.4c0.8-0.3,1.8-0.8,2.6-1.5c0.4-0.3,0.7-0.8,0.9-1.1
			c0.1-0.2,0.2-0.4,0.3-0.6c0-0.2,0.2-0.4,0.2-0.6c0-0.2,0.1-0.4,0.1-0.5c0-0.2,0-0.3,0-0.4c0-0.2,0-0.4,0-0.4l0.1,0
			c0,0,0.1,0.1,0.2,0.3c0.1,0.1,0.1,0.3,0.2,0.4c0,0.2,0.1,0.4,0.1,0.6c0.1,0.2,0,0.5,0,0.8c0,0.3-0.2,0.5-0.3,0.8
			c-0.2,0.2-0.4,0.5-0.6,0.7c-0.2,0.2-0.5,0.4-0.7,0.6c-0.5,0.3-1,0.6-1.5,0.8c-0.5,0.2-1,0.3-1.4,0.4
			C497.7,401.4,497.2,401.5,497.2,401.4L497.2,401.4z"/>
	</g>
	<g>
		<path fill="#292429" d="M495.8,404.5c0,0,0.6,0.1,1.4,0c0.8,0,1.9-0.1,2.9-0.5c0.5-0.2,0.9-0.5,1.2-0.8c0.1-0.2,0.3-0.3,0.4-0.4
			c0.1-0.2,0.3-0.3,0.3-0.5c0.1-0.2,0.2-0.3,0.3-0.5c0.1-0.1,0.1-0.3,0.2-0.4c0.1-0.2,0.2-0.4,0.2-0.4l0.1,0c0,0,0,0.1,0.1,0.4
			c0,0.1,0,0.3,0.1,0.5c0,0.2,0,0.4-0.1,0.6c0,0.2-0.2,0.5-0.3,0.7c-0.1,0.3-0.4,0.4-0.6,0.7c-0.2,0.2-0.5,0.4-0.8,0.5
			c-0.3,0.1-0.6,0.2-0.9,0.3c-0.6,0.2-1.2,0.2-1.7,0.2c-0.5,0-1,0-1.5-0.1C496.3,404.7,495.8,404.6,495.8,404.5L495.8,404.5z"/>
	</g>
</g>
</svg>
