<?xml version="1.0" encoding="utf-8"?>
<!-- Generator: Adobe Illustrator 18.0.0, SVG Export Plug-In . SVG Version: 6.00 Build 0)  -->
<!DOCTYPE svg PUBLIC "-//W3C//DTD SVG 1.1//EN" "http://www.w3.org/Graphics/SVG/1.1/DTD/svg11.dtd">
<svg version="1.1" xmlns="http://www.w3.org/2000/svg" xmlns:xlink="http://www.w3.org/1999/xlink" x="0px" y="0px"
	 viewBox="0 0 778.5 945" enable-background="new 0 0 778.5 945" xml:space="preserve">
<g id="bg">
	<g>
		<g>
			<path fill="#495259" d="M64.5,403.4c3.2,0,3.2-5,0-5C61.2,398.4,61.2,403.4,64.5,403.4L64.5,403.4z"/>
		</g>
	</g>
	<rect x="-17.4" y="0" fill="#82B0D0" width="802.2" height="945"/>
	
		<line opacity="0.5" fill="none" stroke="#FFFFFF" stroke-width="3" stroke-linecap="round" stroke-miterlimit="10" x1="-1597.8" y1="622.9" x2="2497.6" y2="622.9"/>
</g>
<g id="Layer_1">
	<rect x="43.9" y="335.4" fill="#F4BF2D" width="334.5" height="187.9"/>
	<polygon fill="#75777D" points="258.3,614.2 163.9,614.2 171.5,551.9 250.7,551.9 	"/>
	<polygon fill="#5D6269" points="253,570.4 250.7,551.9 171.5,551.9 169.3,570.4 	"/>
	<path fill="#495259" d="M381.4,327.6H40.9c-2.9,0-5.3,2.6-5.3,5.9v221.3c0,3.3,2.4,5.9,5.3,5.9h340.5c2.9,0,5.3-2.6,5.3-5.9V333.5
		C386.7,330.2,384.3,327.6,381.4,327.6z M374,512.9H47.2v-171H374V512.9z"/>
	<path fill="#495259" d="M269.7,617.6c0,1.9-1.5,3.4-3.4,3.4H155.9c-1.9,0-3.4-1.5-3.4-3.4l0,0c0-1.9,1.5-3.4,3.4-3.4h110.4
		C268.2,614.2,269.7,615.7,269.7,617.6L269.7,617.6z"/>
	<circle fill="#75777D" cx="211.1" cy="537.5" r="9.5"/>
	<path fill="#FFFFFF" d="M343,483.1c0,2.8-2.3,5.1-5.1,5.1H85.7c-2.8,0-5.1-2.3-5.1-5.1V369.6c0-2.8,2.3-5.1,5.1-5.1h252.2
		c2.8,0,5.1,2.3,5.1,5.1V483.1z"/>
	<path fill="#75777D" d="M337.9,364.6H85.7c-2.8,0-5.1,2.3-5.1,5.1v2.2H343v-2.2C343,366.8,340.7,364.6,337.9,364.6z"/>
	<circle fill="#EF4136" cx="86.9" cy="368.1" r="1.5"/>
	<circle fill="#FBB040" cx="91.7" cy="368.1" r="1.5"/>
	<circle fill="#39B54A" cx="96.6" cy="368.1" r="1.5"/>
	<rect x="179.2" y="401.5" fill="#E6E7E8" width="109.5" height="2.9"/>
	<rect x="179.2" y="408.3" fill="#E6E7E8" width="109.5" height="2.9"/>
	<rect x="179.2" y="416.4" fill="#E6E7E8" width="44.6" height="2.9"/>
	<rect x="179.2" y="430.6" fill="#E6E7E8" width="109.5" height="2.9"/>
	<rect x="179.2" y="437.3" fill="#E6E7E8" width="109.5" height="2.9"/>
	<rect x="179.2" y="445.4" fill="#E6E7E8" width="44.6" height="2.9"/>
	<rect x="179.2" y="460.2" fill="#E6E7E8" width="109.5" height="2.9"/>
	<rect x="179.2" y="466.9" fill="#E6E7E8" width="109.5" height="2.9"/>
	<rect x="179.2" y="475" fill="#E6E7E8" width="44.6" height="2.9"/>
	<rect x="88.4" y="400.4" fill="#4395C0" width="83.5" height="76.6"/>
	<path fill="#754C29" d="M141.8,455.7c0,6.9-4.4,12.6-9.9,12.6h-9.6c-5.4,0-9.9-5.6-9.9-12.6v-13c0-6.9,4.4-12.6,9.9-12.6h9.6
		c5.4,0,9.9,5.6,9.9,12.6V455.7z"/>
	<path fill="#F4BF2D" d="M155.5,437.9c0,1.1-1.1,2-2.4,2h-52c-1.3,0-2.4-0.9-2.4-2l0,0c0-1.1,1.1-2,2.4-2h52
		C154.5,435.9,155.5,436.8,155.5,437.9L155.5,437.9z"/>
	<path fill="#F4BF2D" d="M113.1,412.1c-1.3,0-2.4,1.2-2.4,2.8v18.3c0,1.5,1.1,2.8,2.4,2.8h28.2c1.3,0,2.4-1.2,2.4-2.8v-18.3
		c0-1.5-1.1-2.8-2.4-2.8l-10.6,2.9c0,1.5-1.2,2.8-2.8,2.8h-1.5c-1.5,0-2.8-1.2-2.8-2.8"/>
	<path fill="#82B0D0" d="M782.2,882.4c0,6.3-5.6,11.4-12.5,11.4H9.3c-6.9,0-12.5-5.1-12.5-11.4V686.5c0-6.3,5.6-11.4,12.5-11.4
		h760.4c6.9,0,12.5,5.1,12.5,11.4V882.4z"/>
	<g display="none">
		<path display="inline" opacity="0.2" fill="#231F20" d="M691,890.2c0,5.5-4.5,10-10,10H74c-5.5,0-10-4.5-10-10v-172
			c0-5.5,4.5-10,10-10h607c5.5,0,10,4.5,10,10V890.2z"/>
		<rect x="87.2" y="747.8" display="inline" fill="none" width="580.5" height="112.7"/>
		<text transform="matrix(1 0 0 1 87.2461 767.5917)" display="inline"><tspan x="0" y="0" fill="#FFFFFF" font-family="'OpenSans'" font-size="26">“I love this artist’s style! And my goodness is </tspan><tspan x="0" y="30" fill="#FFFFFF" font-family="'OpenSans'" font-size="26">that a snazzy yellow hat! I wonder if there are </tspan><tspan x="0" y="60" fill="#FFFFFF" font-family="'OpenSans'" font-size="26">tickets available to the show… and possibly a </tspan><tspan x="0" y="90" fill="#FFFFFF" font-family="'OpenSans'" font-size="26">place to stay near the venue.”</tspan></text>
	</g>
	<rect x="149.4" y="469.3" fill="#495259" width="19.8" height="5.6"/>
	<polygon opacity="0.59" fill="#FFFFFF" points="116.9,143.5 116.9,296.6 224.6,296.6 169.3,468.5 169.3,474.9 292.6,296.6 
		437.9,296.6 437.9,143.5 	"/>
	<rect x="143.7" y="183.7" fill="#495259" width="264.1" height="75"/>
	<g>
		<path fill="#FFFFFF" d="M238.9,205.6h9.3c4.3,0,7.3,0.6,9.3,1.8c1.9,1.2,2.9,3.1,2.9,5.8c0,1.8-0.4,3.3-1.3,4.4
			c-0.8,1.1-2,1.8-3.4,2.1v0.2c1.9,0.4,3.3,1.2,4.1,2.4c0.8,1.2,1.3,2.7,1.3,4.6c0,2.7-1,4.9-3,6.4c-2,1.5-4.7,2.3-8,2.3h-11.2
			V205.6z M245.2,217.4h3.7c1.7,0,3-0.3,3.7-0.8c0.8-0.5,1.2-1.4,1.2-2.6c0-1.1-0.4-2-1.3-2.5c-0.8-0.5-2.2-0.7-4-0.7h-3.3V217.4z
			 M245.2,222.5v7.8h4.1c1.7,0,3-0.3,3.9-1c0.8-0.7,1.2-1.7,1.2-3.1c0-2.5-1.8-3.7-5.3-3.7H245.2z"/>
		<path fill="#FFFFFF" d="M291.5,205.6V225c0,2.2-0.5,4.2-1.5,5.8c-1,1.7-2.4,2.9-4.3,3.8c-1.9,0.9-4.1,1.3-6.6,1.3
			c-3.9,0-6.8-1-9-3c-2.1-2-3.2-4.7-3.2-8.1v-19.3h6.3v18.4c0,2.3,0.5,4,1.4,5.1c0.9,1.1,2.5,1.6,4.6,1.6c2.1,0,3.6-0.5,4.5-1.6
			c0.9-1.1,1.4-2.8,1.4-5.1v-18.3H291.5z"/>
		<path fill="#FFFFFF" d="M308.2,217.9l6.3-12.3h6.8l-9.9,18.3v11.7H305v-11.5l-9.9-18.5h6.9L308.2,217.9z"/>
	</g>
	<g>
		<defs>
			<rect id="SVGID_9_" x="344.2" y="189.6" width="541.2" height="490.4"/>
		</defs>
		<clipPath id="SVGID_2_">
			<use xlink:href="#SVGID_9_"  overflow="visible"/>
		</clipPath>
		<path clip-path="url(#SVGID_2_)" fill="#292429" d="M544.6,238.9c-3.7,1.2-143.4-15.4-70,158.7c13.2,40,13.2,40,13.2,40
			s-21.8,5.5-21.9,33.2c-0.1,27.8,109,65.7,196,18.5c22.5-16.8,37-25.3,42.2-54.3c5.1-28.6-32.7-30.3-44.5-27.4
			C648,410.5,736,174.2,544.6,238.9z"/>
		<path clip-path="url(#SVGID_2_)" fill="#E6E7E8" d="M702.6,520.1c-38.7-39.1-199.5-45-242.9-4c-43.4,41-50.7,170.7-50.7,170.7
			s229.8-1,336.8,0C746.4,647.8,741.3,559.2,702.6,520.1z"/>
		<polygon clip-path="url(#SVGID_2_)" fill="#C49A6C" points="545.6,406.3 545.6,504.7 611.7,504.7 611.7,399.9 		"/>
		<path clip-path="url(#SVGID_2_)" fill="#292429" d="M539.5,361.3c0.3,1.9-0.9,3.6-2.8,4c-1.9,0.3-3.6-0.9-4-2.8
			c-0.3-1.9,0.9-3.6,2.8-4C537.4,358.2,539.1,359.4,539.5,361.3z"/>
		<path clip-path="url(#SVGID_2_)" fill="#C49A6C" d="M635.3,362.3c0.2,0.9,0.3,1.7,0.4,2.6l0.1,0.2c0.1,0.5,0.1,1,0.2,1.5
			c6.1,43-14.8,81.8-48,87.9c-33.2,6.1-66.5-22.9-76-65.2c-0.1-0.5-0.3-1-0.4-1.5l0-0.2c-0.2-0.8-0.3-1.7-0.5-2.5
			c-2.1-11.3-14.8-84.6-14.8-84.6c-1.9-10.2,7.7-20.5,21.3-23l74-13.5c13.6-2.5,26.2,3.8,28.1,14C619.7,277.9,633.2,351,635.3,362.3
			z"/>
		<path opacity="0.6" clip-path="url(#SVGID_2_)" fill="#A87032" d="M578.4,464c12.1,0.1,23.5-4.3,33.1-12l0.3-54.4l-66.1,6.1
			l-0.2,47.9C555,459.4,566.3,463.9,578.4,464z"/>
		<path clip-path="url(#SVGID_2_)" fill="#C49A6C" d="M635.3,362.3c0.2,0.9,0.3,1.7,0.4,2.6l0.1,0.2c0.1,0.5,0.1,1,0.2,1.5
			c6.1,43-14.8,81.8-48,87.9c-33.2,6.1-66.5-22.9-76-65.2c-0.1-0.5-0.3-1-0.4-1.5l0-0.2c-0.2-0.8-0.3-1.7-0.5-2.5
			c-2.1-11.3-14.8-84.6-14.8-84.6c-1.9-10.2,7.7-20.5,21.3-23l74-13.5c13.6-2.5,26.2,3.8,28.1,14C619.7,277.9,633.2,351,635.3,362.3
			z"/>
		<path opacity="0.2" clip-path="url(#SVGID_2_)" fill="#DA0884" d="M593.8,407.3c-1.2-5.2-6.4-8.3-11.6-7.1
			c-2.1,0.5-3.9,1.7-5.1,3.2c-2.2-1.5-5-2.2-7.8-1.5c-5.2,1.2-8.3,6.4-7.1,11.6s6.4,8.3,11.6,7.1c2.1-0.5,3.9-1.7,5.1-3.2
			c2.2,1.5,5,2.2,7.8,1.5C591.8,417.6,595,412.4,593.8,407.3z"/>
		<path opacity="0.2" clip-path="url(#SVGID_2_)" fill="#DA0884" d="M590.7,417.8c-0.8-3.5-4.4-5.7-7.9-4.9
			c-1.4,0.3-2.6,1.1-3.5,2.2c-1.5-1.1-3.4-1.5-5.3-1c-3.5,0.8-5.7,4.4-4.9,7.9c0.8,3.5,4.4,5.7,7.9,4.9c1.4-0.3,2.6-1.1,3.5-2.2
			c1.5,1.1,3.4,1.5,5.3,1C589.3,424.8,591.5,421.3,590.7,417.8z"/>
		
			<ellipse transform="matrix(0.9837 -0.1796 0.1796 0.9837 -42.8323 104.6249)" clip-path="url(#SVGID_2_)" fill="#292429" cx="556.5" cy="288.9" rx="67.2" ry="32.8"/>
		
			<path id="mouth" display="none" clip-path="url(#SVGID_2_)" fill="none" stroke="#292429" stroke-width="5" stroke-linecap="round" stroke-miterlimit="10" d="
			M601.9,401.4c-18.5,38-48.3,8.8-48.3,8.8"/>
		<path display="none" clip-path="url(#SVGID_2_)" fill="#A87032" d="M580.6,380.3c1.1,5.8-1.3,11.1-5.3,11.8
			c-4,0.7-8.1-3.4-9.1-9.2c-1.1-5.8-0.2-19.4,3.8-20.1C574,362.1,579.6,374.5,580.6,380.3z"/>
		<circle opacity="0.1" clip-path="url(#SVGID_2_)" fill="#DA0884" cx="531.4" cy="389.9" r="9.6"/>
		<circle opacity="0.1" clip-path="url(#SVGID_2_)" fill="#DA0884" cx="614.3" cy="374.7" r="9.6"/>
		<path clip-path="url(#SVGID_2_)" fill="#292429" d="M623.8,263c3.3,17.8-23.7,37.7-60.2,44.3c-36.5,6.7-68.7-2.4-72-20.2
			c-3.3-17.8,23.7-37.7,60.2-44.3C588.4,236.1,620.6,245.1,623.8,263z"/>
		<path clip-path="url(#SVGID_2_)" fill="#302A2F" d="M560.1,301.4c-23.5,4.3-44.4-0.8-49.2-11.4c-0.7,2.1-0.9,4.2-0.5,6.2
			c2.3,12.4,24.7,18.7,50.1,14c25.4-4.6,44.2-18.4,41.9-30.8c-0.2-0.9-0.5-1.8-0.8-2.7C597.8,287.2,581.3,297.5,560.1,301.4z"/>
		<path clip-path="url(#SVGID_2_)" fill="#C49A6C" d="M677.7,504.8c19.1,8-45.5,56-96.9,56c-51.4,0-118.5-51.9-96-59.4
			c19.6-6.5,44.6-15.7,96-15.7C632.2,485.7,661.1,497.8,677.7,504.8z"/>
		<path clip-path="url(#SVGID_2_)" fill="#292429" d="M542.2,355c0.8,4.6-2.2,9-6.8,9.8c-4.6,0.8-9-2.2-9.8-6.8
			c-0.8-4.6,2.2-9,6.8-9.8C537,347.3,541.4,350.4,542.2,355z"/>
		<path clip-path="url(#SVGID_2_)" fill="#292429" d="M607.8,345.4c0.8,4.6-2.2,9-6.8,9.8c-4.6,0.8-9-2.2-9.8-6.8
			c-0.8-4.6,2.2-9,6.8-9.8C602.5,337.7,606.9,340.8,607.8,345.4z"/>
		<path clip-path="url(#SVGID_2_)" fill="#292429" d="M607.8,345.4c0.8,4.6-2.2,9-6.8,9.8c-4.6,0.8-9-2.2-9.8-6.8
			c-0.8-4.6,2.2-9,6.8-9.8C602.5,337.7,606.9,340.8,607.8,345.4z"/>
		<circle clip-path="url(#SVGID_2_)" fill="#FFFFFF" cx="601.7" cy="342.5" r="2.5"/>
		<circle clip-path="url(#SVGID_2_)" fill="#FFFFFF" cx="536.7" cy="352.5" r="2.5"/>
		<path clip-path="url(#SVGID_2_)" fill="#292429" d="M703.4,516.8"/>
		<path clip-path="url(#SVGID_2_)" fill="#D1D3D4" d="M457.1,518.7c0,0,12.8,155.7,10.9,167.9c-1.9,12.2-62.6,0.2-62.6,0.2
			S386.5,537.1,457.1,518.7z"/>
		<path clip-path="url(#SVGID_2_)" fill="#D1D3D4" d="M703.9,521.5c0,0-12.7,154.2-10.8,166.4c1.9,12.2,62.6,0.2,62.6,0.2
			S774.5,539.9,703.9,521.5z"/>
	</g>
	<path display="none" fill="#CFAD86" d="M607.3,657.6c3.7-1.9,8.7-76.4,8.7-76.4c0.5-5.7-3-10.7-7.8-11c-4.7-0.4-9,4-9.4,9.7
		l-2.8,28.9l-11.8-9.7c-0.2-0.2-0.4-0.4-0.6-0.6l-45.9-42.2c-4.2-3.9-10.3-4.2-13.5-0.7c-3.2,3.5-2.4,9.5,1.8,13.4l31.9,29.3
		c-0.5,0.9-1.3,1.9-2.1,2.7l-45.8-42.1c-4.2-3.9-10.3-4.2-13.5-0.7c-3.2,3.5-2.4,9.5,1.8,13.4l43.9,40.3l0,0c0,0-1.3,3.2-3.2,5.1
		l-39.4-36.2c-4.2-3.9-10.3-4.2-13.5-0.7c-3.2,3.5-2.4,9.5,1.8,13.4l43.1,39.6c0,1.7-1.8,2.1-2.5,3.4L501,611.2
		c-4.2-3.9-10.3-4.2-13.5-0.7c-3.2,3.5-2.4,9.5,1.8,13.4l45.9,42.2c0.2,0.2,0.5,0.4,0.7,0.6v0l0,0c0.6,0.5,1.2,0.9,1.9,1.2
		l19.6,12.8l23.8,32.8l51.4-20.4C632.6,693,603.6,659.5,607.3,657.6z"/>
	<path fill="#EF4136" d="M538.6,155.8c-6.6-8-16.2-1.7-14.9,7.2c1.1,7.4,8.7,14.3,14.8,19.1c6.2-4.8,13.9-11.2,15-18.9
		C554.7,154.3,545.3,148,538.6,155.8z"/>
	<path fill="#EF4136" d="M503.6,35.5c-4.4-5.3-10.9-1.2-10,4.9c0.7,4.9,5.9,9.6,9.9,12.8c4.1-3.2,9.3-7.5,10-12.7
		C514.4,34.5,508,30.2,503.6,35.5z"/>
	<path fill="#EF4136" d="M538.6,67.8c-7.5-9.1-18.6-2-17.1,8.3c1.2,8.4,10,16.4,16.9,21.9c7.1-5.5,15.9-12.9,17.2-21.6
		C557.1,66.1,546.2,58.8,538.6,67.8z"/>
	<path fill="#EF4136" d="M598.4,137.2c-8.4-10.2-20.9-2.2-19.2,9.3c1.4,9.5,11.2,18.5,19,24.6c7.9-6.2,17.8-14.5,19.3-24.3
		C619.2,135.3,607,127.1,598.4,137.2z"/>
	<path fill="#EF4136" d="M476.2,212.7c-6.6-8-16.2-1.7-14.9,7.2c1.1,7.4,8.7,14.3,14.8,19.1c6.2-4.8,13.9-11.2,15-18.9
		C492.3,211.2,482.8,204.9,476.2,212.7z"/>
	<path fill="#EF4136" d="M481,107.6c-12.2-14.8-30.2-3.2-27.7,13.5c2,13.7,16.2,26.7,27.5,35.5c11.5-8.9,25.8-20.9,27.8-35.1
		C511,104.8,493.4,93,481,107.6z"/>
	<g>
		<g>
			<path fill="#B3B3B3" d="M93.7,377.7c0.9-0.1,1.7,0,2.5,0.4c0.4-0.5,0.8-0.6,1.4-0.4c0,0,0.1,0.1,0.1,0.1c0,0,0.1,0.1,0.1,0.2
				c0,0.2,0,0.4,0,0.7v0.2l0,0.2l0,0.2l0,0.1l0,0.5c0,0.2,0,0.3-0.1,0.5c0,0.1,0,0.2,0,0.3c0,0.1,0,0.2,0,0.3l0,0.2
				c0,0.1,0,0.2-0.1,0.4c0,0.1-0.1,0.2-0.1,0.4c-0.3,0.3-0.6,0.4-1,0.3c-0.1,0-0.1-0.1-0.2-0.1c-0.1,0-0.1-0.1-0.2-0.2
				c-0.2-2-1.1-2.7-2.4-2.2c-0.6,0.8-0.1,1.6,1.7,2.7c1.9,1.1,2.4,2.7,1.6,4.9c-1.4,2.2-3.3,2.8-5.7,1.8c-0.4,0.4-0.9,0.5-1.4,0.4
				l-0.2-0.3c0-0.2,0-0.4,0-0.7v-0.3v-0.3c0-0.2,0-0.4,0-0.5l0-0.6l0-0.1c0-0.1,0-0.1,0-0.2c0-0.1,0-0.2,0-0.3v-0.2l0.1-0.7
				c0.3-0.3,0.7-0.5,1.2-0.4c0.1,0.1,0.2,0.2,0.3,0.3c0.3,1.9,1.2,2.6,2.7,2.2c0.1-0.1,0.2-0.1,0.2-0.2c0.1-0.1,0.2-0.2,0.2-0.3
				c0.1-0.4,0.1-0.7,0-1.1c-0.1-0.1-0.1-0.2-0.2-0.3c-0.1-0.1-0.2-0.2-0.3-0.3l-0.2-0.2l-0.1-0.1l-1.3-1c0,0-0.1-0.1-0.1-0.1
				c-0.1,0-0.1-0.1-0.2-0.1l-0.1-0.1c-0.1-0.1-0.3-0.2-0.4-0.4l-0.3-0.4c-0.4-0.8-0.5-1.8-0.1-2.9C91.4,378.8,92.3,378,93.7,377.7z"
				/>
			<path fill="#B3B3B3" d="M100.7,379.7c0.1-0.1,0.2-0.2,0.4-0.3h0.1c0.8,0,1,0.5,0.7,1.8c0.8-0.1,1.3,0.1,1.4,0.5
				c0,1-0.5,1.4-1.6,1.3l-0.5,3.8v0.2h0.2c0.3-0.4,0.7-0.5,1.2-0.4c0.3,0.2,0.4,0.5,0.3,0.9c-0.7,1-1.6,1.5-2.8,1.4
				c-0.6,0-1-0.4-1.3-1c0-0.1,0-0.2-0.1-0.4l0-0.3l0.6-4.4c-0.3-0.1-0.6-0.2-0.8-0.5l0.1-0.6c0.1-0.2,0.3-0.3,0.5-0.4l0.2-0.1
				l0.9-0.8l0.1-0.1l0.1-0.1l0.1-0.1l0-0.1C100.5,379.9,100.6,379.8,100.7,379.7z"/>
			<path fill="#B3B3B3" d="M106.6,380.9c1.2-0.2,2.2,0.1,2.9,0.8c0.1,0.2,0.2,0.5,0.3,0.8l0,0.2c0,0.2,0,0.3,0,0.4l-0.5,3.5
				c0.9-0.2,1.1,0.2,0.9,1.2c-0.5,0.7-1.1,1-2,1.1c-0.5,0-0.9-0.1-1.2-0.5c-2,1.1-3.2,0.7-3.7-1c0-1.3,0.6-2.3,1.9-2.9
				c-0.9-0.1-1.3-0.6-1.1-1.6C104.6,381.8,105.4,381.2,106.6,380.9z M107,385.3c-0.6,0.2-1,0.6-1.2,1.2c0.1,0.5,0.5,0.5,1,0.1
				l0.2-1.2L107,385.3z M107,382.5c0,0-0.1,0-0.2,0c-0.1,0-0.1,0-0.2,0.1c0.1,0.4-0.1,0.9-0.4,1.3c0.1,0,0.1,0,0.2-0.1
				c0.1,0,0.1-0.1,0.2-0.1l0.6-0.2l0.1-0.4C107.5,382.8,107.3,382.6,107,382.5z"/>
			<path fill="#B3B3B3" d="M113.6,379.7c0.1-0.1,0.2-0.2,0.4-0.3h0.1c0.8,0,1,0.5,0.7,1.8c0.8-0.1,1.3,0.1,1.4,0.5
				c0,1-0.5,1.4-1.6,1.3l-0.5,3.8v0.2h0.2c0.3-0.4,0.7-0.5,1.2-0.4c0.3,0.2,0.4,0.5,0.3,0.9c-0.7,1-1.6,1.5-2.8,1.4
				c-0.6,0-1-0.4-1.3-1c0-0.1,0-0.2-0.1-0.4l0-0.3l0.6-4.4c-0.3-0.1-0.6-0.2-0.8-0.5l0.1-0.6c0.1-0.2,0.3-0.3,0.5-0.4l0.2-0.1
				l0.9-0.8l0.1-0.1l0.1-0.1l0.1-0.1l0-0.1C113.4,379.9,113.5,379.8,113.6,379.7z"/>
			<path fill="#B3B3B3" d="M117.2,381.9l2.7-0.9c0.3,0,0.5,0.1,0.7,0.4c0,0.2,0,0.4,0,0.6c0,0.2-0.1,0.5-0.1,0.7l-0.6,4.5
				c0.4,0,0.7,0.2,0.9,0.4c0,0.1,0,0.2,0,0.3c0,0.1,0,0.3-0.1,0.4l0,0.1c0,0-0.1,0.1-0.1,0.1c0,0-0.1,0.1-0.2,0.1h-4
				c-0.3-0.4-0.3-0.8,0.1-1.3c0.2-0.1,0.5-0.1,0.8-0.1l0.1-0.1c0-0.2,0.1-0.5,0.2-0.8l0.4-3.1c-0.8,0.1-1.1-0.2-1-0.9
				c0-0.1,0.1-0.1,0.1-0.2C117.1,382.1,117.1,382,117.2,381.9z M118.8,380.5c-1-0.9-0.9-1.8,0.5-2.6c0.8-0.1,1.4,0.2,1.7,0.9
				C120.9,380.2,120.2,380.7,118.8,380.5z"/>
			<path fill="#B3B3B3" d="M125.6,381.1c1.7-0.2,2.7,0.3,3.2,1.6c0.1,1.1-0.5,1.7-1.7,1.8c-0.6-0.3-1-0.8-1-1.6
				c-0.2,0-0.5,0-0.7,0.1c-0.6,0.4-0.9,1-1,1.8c-0.1,0.7,0.1,1.4,0.6,1.9c0.9,0.4,1.7,0,2.5-1.1c0.2-0.1,0.5-0.1,0.8,0
				c0.3,0.2,0.4,0.6,0.3,1c-0.9,1.7-2.3,2.6-3.9,2.5c-1.7-0.1-2.6-1.1-2.7-3C121.8,383.5,123.1,381.8,125.6,381.1z"/>
			<path fill="#B3B3B3" d="M134.7,381.1c-0.2-1.9,0.7-3.1,3-3.5h5.1c0.2,0,0.5,0,0.7,0.1l0.2,0h0.1c0.1,0,0.2,0.1,0.3,0.1
				c0.2,0,0.3,0.1,0.5,0.2c0,0,0.1,0,0.1,0.1c0,0,0.1,0.1,0.1,0.1l0.5,0.4c0.5,0.5,0.7,1.3,0.7,2.2c-0.1,1.4-0.9,2.6-2.4,3.4
				c0,2.3,0.8,4.4,2.2,6.3c1.4,1.7,3.2,1.9,5.5,0.5c-0.2-0.6,0-1.1,0.6-1.5c0.4-0.1,0.8,0,1.1,0.3c0.1,0.5,0,1.1-0.3,1.7
				c-0.2,0.2-0.4,0.4-0.6,0.6c-0.2,0.2-0.5,0.4-0.8,0.5l-1.1,0.5l-1.2,0.2h-1.9c-0.1,0-0.2,0-0.3-0.1c-0.1,0-0.2,0-0.3,0
				c-0.2-0.1-0.4-0.1-0.6-0.2c-0.1,0-0.2,0-0.3-0.1c-0.1,0-0.1-0.1-0.3-0.1l-0.3-0.2c-2.3-1.7-3.5-4.2-3.8-7.7l-0.8,0l-0.4,2.7
				l0.2,0.1c0.4,0,0.7,0.1,0.9,0.4c0,0.1,0,0.3,0,0.4c0,0.1,0,0.3-0.1,0.5c-0.1,0.1-0.3,0.2-0.5,0.4l-4.4,0
				c-0.1-0.1-0.2-0.1-0.3-0.2c-0.3-0.9,0.1-1.4,1.2-1.6c0-0.1,0-0.2,0.1-0.3c0-0.1,0-0.2,0.1-0.4l1-7.3l0-0.2c-0.4-0.2-1-0.1-1.5,0
				l-0.1,0.1c0.3,0.6,0.2,1.3-0.4,1.9c-0.5,0.4-0.9,0.4-1.4,0.2C134.9,381.4,134.8,381.2,134.7,381.1z M143.2,381
				c0.1-1.1-0.5-1.6-1.8-1.5c0,0.1-0.1,0.2-0.1,0.4c0,0.1,0,0.3-0.1,0.4l-0.3,2.2C142.1,382.6,142.9,382.1,143.2,381z"/>
			<path fill="#B3B3B3" d="M149.5,381c2.5-0.3,3.9,0.8,4.1,3.1c0,2.5-1.3,4.1-3.6,4.8c-2.4,0.3-3.8-0.7-4.1-3.1
				C145.9,383.4,147.1,381.8,149.5,381z M150.1,382.7c-0.1,0-0.2,0-0.3-0.1c-0.2,0.1-0.4,0.2-0.6,0.3c-0.5,0.7-0.7,1.5-0.6,2.3
				c0,0.7,0.1,1.3,0.5,1.9c0.2,0.1,0.4,0.2,0.7,0.2c0.2-0.1,0.3-0.2,0.5-0.3c0.4-0.6,0.7-1.3,0.7-2.1c0.1-0.8-0.1-1.5-0.6-2.2
				C150.3,382.8,150.2,382.8,150.1,382.7z"/>
			<path fill="#B3B3B3" d="M158.2,381.1c1.7-0.2,2.7,0.3,3.2,1.6c0.1,1.1-0.5,1.7-1.7,1.8c-0.6-0.3-1-0.8-1-1.6
				c-0.2,0-0.5,0-0.7,0.1c-0.6,0.4-0.9,1-1,1.8c-0.1,0.7,0.1,1.4,0.6,1.9c0.9,0.4,1.7,0,2.5-1.1c0.2-0.1,0.5-0.1,0.8,0
				c0.3,0.2,0.4,0.6,0.3,1c-0.9,1.7-2.3,2.6-3.9,2.5c-1.7-0.1-2.6-1.1-2.7-3C154.4,383.5,155.7,381.8,158.2,381.1z"/>
			<path fill="#B3B3B3" d="M165,377.8l0.1,0c0.4-0.1,0.6,0,0.9,0.2l0.1,0.3l-0.6,4.4v0.2c0.1-0.2,0.3-0.3,0.5-0.4l0.1-0.1
				c-0.4-0.5-0.3-0.9,0.3-1.4l3.2,0l0.2,0l0.1,0c0.1,0.1,0.2,0.3,0.3,0.5c0,0.3-0.2,0.6-0.4,0.9c-0.2,0.1-0.4,0.1-0.7,0.1l-0.3,0
				c-0.1,0-0.1,0.1-0.3,0.1c-0.1,0.1-0.3,0.2-0.5,0.3l-0.2,0.1l-0.1,0.1l-0.3,0.2c-0.1,0.1-0.1,0.1-0.3,0.2
				c-0.1,0.1-0.1,0.1-0.2,0.2c-0.1,0.1-0.2,0.1-0.3,0.2l-0.2,0.2c0.1,0.1,0.2,0.2,0.3,0.4l0.1,0.1l0.2,0.4c0,0,0.1,0.1,0.1,0.1
				c0,0.1,0.1,0.1,0.1,0.2l0.1,0.1l0.2,0.4c0.1,0.1,0.1,0.2,0.1,0.2c0,0,0.1,0.1,0.1,0.1l0.2,0.3l0.1,0.2l0.2,0.2
				c0.2,0.2,0.6,0.3,1,0.4c0.1,0.1,0.2,0.1,0.2,0.2c0.1,0.5,0,0.8-0.4,1.1h-7.6c-0.2,0-0.3-0.1-0.4-0.2c-0.1-0.8,0.3-1.2,1.2-1.3
				l1-7.3c-0.9,0-1.1-0.4-0.8-1.2c0.1-0.1,0.2-0.2,0.3-0.3l0.5-0.1l0.2,0l0.4-0.1l0.2,0l0.4-0.1c0.1,0,0.2,0,0.2-0.1
				C164.9,377.9,164.9,377.9,165,377.8z M165.1,386.8l-0.2-0.2l-0.1,0.7c0.2,0.1,0.4,0.1,0.6,0L165.1,386.8z"/>
		</g>
	</g>
	<g>
		<path fill="#A87032" d="M570.9,366.7c-0.2,1.8-0.6,3.6-0.9,5.4c-0.4,1.8-0.8,3.6-1.2,5.4c-0.2,0.9-0.5,1.8-0.8,2.7
			c-0.1,0.4-0.3,0.9-0.4,1.3c-0.2,0.4-0.3,0.9-0.5,1.3l-0.5,1.3l-0.6,1.3l-0.7,1.3c-0.3,0.4-0.6,0.9-0.9,1.3l-1.7-2.4
			c1-0.4,2-0.8,3-1.1c0.5-0.2,1-0.3,1.5-0.4c0.5-0.1,1-0.2,1.6-0.3c0.5-0.1,1-0.2,1.6-0.2c0.5-0.1,1.1-0.1,1.6-0.2
			c1.1-0.1,2.2-0.1,3.2,0.1l0,0.3c-1.9,0.9-3.8,1.7-5.7,2.5c-0.5,0.2-1,0.4-1.4,0.6c-0.5,0.2-0.9,0.4-1.4,0.6c-1,0.4-1.9,0.7-2.9,1
			l-4.7,1.5l3.1-3.9c0.2-0.3,0.5-0.6,0.8-0.9c0.2-0.3,0.5-0.7,0.7-1l0.7-1.1c0.2-0.4,0.4-0.8,0.6-1.2c0.2-0.4,0.4-0.8,0.6-1.2
			c0.2-0.4,0.4-0.8,0.5-1.2c0.3-0.8,0.7-1.7,1-2.5c0.6-1.7,1.3-3.4,1.9-5.1c0.6-1.7,1.1-3.5,1.7-5.2L570.9,366.7z"/>
	</g>
	<path fill="#292429" d="M553.1,414.1l50.3-6.6c0,0-8.6,26.7-21.5,25C569,430.8,553.1,414.1,553.1,414.1z"/>
	<g>
		<defs>
			<path id="SVGID_13_" d="M561.1,417.7l36.3-4.7c0,0-6.2,19.3-15.5,18C572.6,429.8,561.1,417.7,561.1,417.7z"/>
		</defs>
		<use xlink:href="#SVGID_13_"  overflow="visible" fill="#302A2F"/>
		<clipPath id="SVGID_4_">
			<use xlink:href="#SVGID_13_"  overflow="visible"/>
		</clipPath>
		<path clip-path="url(#SVGID_4_)" fill="#EF4136" d="M594.7,427.2c-0.9-3.7-4.6-6-8.3-5.1c-1.5,0.4-2.8,1.2-3.7,2.3
			c-1.6-1.1-3.6-1.6-5.6-1.1c-3.7,0.9-6,4.6-5.1,8.3c0.9,3.7,4.6,6,8.3,5.1c1.5-0.4,2.8-1.2,3.7-2.3c1.6,1.1,3.6,1.6,5.6,1.1
			C593.3,434.7,595.6,431,594.7,427.2z"/>
	</g>
</g>
<g id="Layer_3">
	<g>
		<path fill="#292429" d="M525.1,355.3c0,0-0.5,0.1-1.3,0c-0.4,0-0.9,0-1.4-0.1c-0.5-0.1-1.1-0.2-1.6-0.5c-0.3-0.1-0.5-0.3-0.8-0.4
			c-0.3-0.1-0.5-0.4-0.7-0.6c-0.2-0.2-0.4-0.5-0.4-0.7c-0.1-0.3-0.2-0.5-0.2-0.7c0-0.2,0-0.4,0-0.6c0-0.2,0.1-0.3,0.1-0.4
			c0.1-0.2,0.1-0.4,0.1-0.4l0.1,0c0,0,0.1,0.1,0.1,0.4c0,0.1,0.1,0.2,0.1,0.4c0.1,0.1,0.1,0.3,0.2,0.5c0,0.2,0.2,0.3,0.3,0.5
			c0.1,0.2,0.2,0.3,0.3,0.5c0.3,0.3,0.6,0.7,1,0.9c0.8,0.5,1.9,0.8,2.6,1C524.6,355.2,525.1,355.2,525.1,355.3L525.1,355.3z"/>
	</g>
	<g>
		<path fill="#292429" d="M527,358c0,0-0.5,0.2-1.3,0.5c-0.4,0.1-0.8,0.3-1.4,0.3c-0.5,0.1-1.1,0.1-1.6,0.1c-0.3,0-0.6-0.1-0.9-0.1
			c-0.3-0.1-0.6-0.2-0.8-0.3c-0.2-0.2-0.5-0.3-0.6-0.5c-0.2-0.2-0.3-0.4-0.4-0.6c-0.1-0.2-0.1-0.4-0.2-0.6c0-0.2,0-0.3,0-0.5
			c0-0.3,0-0.4,0-0.4l0.1,0c0,0,0.1,0.1,0.2,0.3c0.1,0.1,0.1,0.2,0.2,0.3c0.1,0.1,0.2,0.2,0.3,0.4c0.1,0.2,0.3,0.2,0.4,0.4
			c0.1,0.1,0.3,0.2,0.5,0.3c0.4,0.2,0.8,0.4,1.3,0.5c1,0.2,2,0.1,2.8,0C526.4,358,526.9,357.9,527,358L527,358z"/>
	</g>
	<g>
		<path fill="#292429" d="M607.5,343.6c0,0,0.5-0.1,1.2-0.4c0.7-0.3,1.7-0.7,2.4-1.4c0.4-0.3,0.6-0.7,0.8-1.1
			c0.1-0.2,0.2-0.3,0.3-0.5c0-0.2,0.2-0.3,0.2-0.5c0-0.2,0.1-0.3,0.1-0.5c0-0.1,0-0.3,0-0.4c0-0.2,0-0.4,0-0.4l0.1,0
			c0,0,0.1,0.1,0.2,0.3c0.1,0.1,0.1,0.2,0.2,0.4c0,0.2,0.1,0.4,0.1,0.6c0.1,0.2,0,0.5,0,0.7c0,0.3-0.2,0.5-0.3,0.8
			c-0.2,0.2-0.3,0.5-0.6,0.7c-0.2,0.2-0.4,0.4-0.7,0.5c-0.5,0.3-1,0.5-1.4,0.7c-0.5,0.2-0.9,0.3-1.3,0.4
			C608.1,343.7,607.6,343.7,607.5,343.6L607.5,343.6z"/>
	</g>
	<g>
		<path fill="#292429" d="M606.3,346.5c0,0,0.5,0,1.3,0c0.8,0,1.8-0.1,2.7-0.5c0.5-0.2,0.8-0.5,1.1-0.7c0.1-0.2,0.3-0.3,0.4-0.4
			c0.1-0.2,0.3-0.3,0.3-0.4c0.1-0.1,0.2-0.3,0.3-0.4c0.1-0.1,0.1-0.3,0.2-0.4c0.1-0.2,0.2-0.3,0.2-0.3l0.1,0c0,0,0,0.1,0.1,0.4
			c0,0.1,0,0.3,0.1,0.5c0,0.2,0,0.4-0.1,0.6c0,0.2-0.2,0.4-0.3,0.7c-0.1,0.2-0.3,0.4-0.5,0.6c-0.2,0.2-0.5,0.3-0.7,0.4
			c-0.3,0.1-0.5,0.2-0.8,0.3c-0.5,0.1-1.1,0.2-1.6,0.2c-0.5,0-1,0-1.4-0.1C606.8,346.8,606.3,346.6,606.3,346.5L606.3,346.5z"/>
	</g>
</g>
</svg>
