<?xml version="1.0" encoding="utf-8"?>
<!-- Generator: Adobe Illustrator 18.0.0, SVG Export Plug-In . SVG Version: 6.00 Build 0)  -->
<!DOCTYPE svg PUBLIC "-//W3C//DTD SVG 1.1//EN" "http://www.w3.org/Graphics/SVG/1.1/DTD/svg11.dtd">
<svg version="1.1" xmlns="http://www.w3.org/2000/svg" xmlns:xlink="http://www.w3.org/1999/xlink" x="0px" y="0px"
	 viewBox="0 0 778.5 675" enable-background="new 0 0 778.5 675" xml:space="preserve">
<g id="bg">
	<rect x="-7.4" y="0" fill="#006FA0" width="790.4" height="945"/>
	
		<line opacity="0.5" fill="none" stroke="#FFFFFF" stroke-width="3" stroke-linecap="round" stroke-miterlimit="10" x1="-2387.4" y1="622.9" x2="1708" y2="622.9"/>
</g>
<g id="Layer_1">
	<g>
		<rect x="95.7" y="336.2" fill="#F4BF2D" width="334.5" height="187.9"/>
		<polygon fill="#75777D" points="310.1,615 215.7,615 223.3,552.7 302.5,552.7 		"/>
		<polygon fill="#5D6269" points="304.8,571.2 302.5,552.7 223.3,552.7 221.1,571.2 		"/>
		<path fill="#495259" d="M433.2,328.4H92.7c-2.9,0-5.3,2.6-5.3,5.9v221.3c0,3.3,2.4,5.9,5.3,5.9h340.5c2.9,0,5.3-2.6,5.3-5.9V334.3
			C438.5,331,436.1,328.4,433.2,328.4z M425.8,513.7H99v-171h326.9V513.7z"/>
		<path fill="#495259" d="M321.5,618.4c0,1.9-1.5,3.4-3.4,3.4H207.7c-1.9,0-3.4-1.5-3.4-3.4l0,0c0-1.9,1.5-3.4,3.4-3.4h110.4
			C320,615,321.5,616.5,321.5,618.4L321.5,618.4z"/>
		<circle fill="#75777D" cx="262.9" cy="538.4" r="9.5"/>
		<path fill="#FFFFFF" d="M394.8,483.9c0,2.8-2.3,5.1-5.1,5.1H137.5c-2.8,0-5.1-2.3-5.1-5.1V370.4c0-2.8,2.3-5.1,5.1-5.1h252.2
			c2.8,0,5.1,2.3,5.1,5.1V483.9z"/>
		<path fill="#75777D" d="M389.7,365.4H137.5c-2.8,0-5.1,2.3-5.1,5.1v2.2h262.3v-2.2C394.8,367.6,392.5,365.4,389.7,365.4z"/>
		<circle fill="#EF4136" cx="138.7" cy="368.9" r="1.5"/>
		<circle fill="#FBB040" cx="143.5" cy="368.9" r="1.5"/>
		<circle fill="#39B54A" cx="148.4" cy="368.9" r="1.5"/>
		<rect x="231" y="402.3" fill="#E6E7E8" width="109.5" height="2.9"/>
		<rect x="231" y="409.1" fill="#E6E7E8" width="109.5" height="2.9"/>
		<rect x="231" y="417.2" fill="#E6E7E8" width="44.6" height="2.9"/>
		<rect x="231" y="431.4" fill="#E6E7E8" width="109.5" height="2.9"/>
		<rect x="231" y="438.1" fill="#E6E7E8" width="109.5" height="2.9"/>
		<rect x="231" y="446.2" fill="#E6E7E8" width="44.6" height="2.9"/>
		<rect x="231" y="461" fill="#E6E7E8" width="109.5" height="2.9"/>
		<rect x="231" y="467.7" fill="#E6E7E8" width="109.5" height="2.9"/>
		<rect x="231" y="475.8" fill="#E6E7E8" width="44.6" height="2.9"/>
		<rect x="141" y="401.2" fill="#4395C0" width="83.5" height="76.6"/>
		<g>
			<path fill="#754C29" d="M197.4,456.5c0,6.9-4.4,12.6-9.9,12.6H178c-5.4,0-9.9-5.6-9.9-12.6v-13c0-6.9,4.4-12.6,9.9-12.6h9.6
				c5.4,0,9.9,5.6,9.9,12.6V456.5z"/>
			<path fill="#F4BF2D" d="M211.1,438.7c0,1.1-1.1,2-2.4,2h-52c-1.3,0-2.4-0.9-2.4-2l0,0c0-1.1,1.1-2,2.4-2h52
				C210.1,436.7,211.1,437.6,211.1,438.7L211.1,438.7z"/>
			<path fill="#F4BF2D" d="M168.7,412.9c-1.3,0-2.4,1.2-2.4,2.8V434c0,1.5,1.1,2.8,2.4,2.8h28.2c1.3,0,2.4-1.2,2.4-2.8v-18.3
				c0-1.5-1.1-2.8-2.4-2.8l-10.6,2.9c0,1.5-1.2,2.8-2.8,2.8H182c-1.5,0-2.8-1.2-2.8-2.8"/>
		</g>
		<rect x="199.8" y="468.5" fill="#495259" width="19.8" height="5.6"/>
		<g>
			<path fill="#B3B3B3" d="M148.3,380.7c0.9-0.1,1.7,0,2.5,0.4c0.4-0.5,0.8-0.6,1.4-0.4c0,0,0.1,0.1,0.1,0.1c0,0,0.1,0.1,0.1,0.2
				c0,0.2,0,0.4,0,0.7v0.2l0,0.2l0,0.2l0,0.1l0,0.5c0,0.2,0,0.3-0.1,0.5c0,0.1,0,0.2,0,0.3c0,0.1,0,0.2,0,0.3l0,0.2
				c0,0.1,0,0.2-0.1,0.4c0,0.1-0.1,0.2-0.1,0.4c-0.3,0.3-0.6,0.4-1,0.3c-0.1,0-0.1-0.1-0.2-0.1s-0.1-0.1-0.2-0.2
				c-0.2-2-1.1-2.7-2.4-2.2c-0.6,0.8-0.1,1.6,1.7,2.7c1.9,1.1,2.4,2.7,1.6,4.9c-1.4,2.2-3.3,2.8-5.7,1.8c-0.4,0.4-0.9,0.5-1.4,0.4
				l-0.2-0.3c0-0.2,0-0.4,0-0.7v-0.3v-0.3c0-0.2,0-0.4,0-0.5l0-0.6l0-0.1c0-0.1,0-0.1,0-0.2c0-0.1,0-0.2,0-0.3v-0.2l0.1-0.7
				c0.3-0.3,0.7-0.5,1.2-0.4c0.1,0.1,0.2,0.2,0.3,0.3c0.3,1.9,1.2,2.6,2.7,2.2c0.1-0.1,0.2-0.1,0.2-0.2c0.1-0.1,0.2-0.2,0.2-0.3
				c0.1-0.4,0.1-0.7,0-1.1c-0.1-0.1-0.1-0.2-0.2-0.3c-0.1-0.1-0.2-0.2-0.3-0.3l-0.2-0.2l-0.1-0.1l-1.3-1c0,0-0.1-0.1-0.1-0.1
				c-0.1,0-0.1-0.1-0.2-0.1l-0.1-0.1c-0.1-0.1-0.3-0.2-0.4-0.4l-0.3-0.4c-0.4-0.8-0.5-1.8-0.1-2.9
				C146,381.9,146.9,381.1,148.3,380.7z"/>
			<path fill="#B3B3B3" d="M155.3,382.7c0.1-0.1,0.2-0.2,0.4-0.3h0.1c0.8,0,1,0.5,0.7,1.8c0.8-0.1,1.3,0.1,1.4,0.5
				c0,1-0.5,1.4-1.6,1.3l-0.5,3.8v0.2h0.2c0.3-0.4,0.7-0.5,1.2-0.4c0.3,0.2,0.4,0.5,0.3,0.9c-0.7,1-1.6,1.5-2.8,1.4
				c-0.6,0-1-0.4-1.3-1c0-0.1,0-0.2-0.1-0.4l0-0.3l0.6-4.4c-0.3-0.1-0.6-0.2-0.8-0.5l0.1-0.6c0.1-0.2,0.3-0.3,0.5-0.4l0.2-0.1
				l0.9-0.8l0.1-0.1l0.1-0.1l0.1-0.1l0-0.1C155.1,382.9,155.2,382.8,155.3,382.7z"/>
			<path fill="#B3B3B3" d="M161.2,384c1.2-0.2,2.2,0.1,2.9,0.8c0.1,0.2,0.2,0.5,0.3,0.8l0,0.2c0,0.2,0,0.3,0,0.4l-0.5,3.5
				c0.9-0.2,1.1,0.2,0.9,1.2c-0.5,0.7-1.1,1-2,1.1c-0.5,0-0.9-0.1-1.2-0.5c-2,1.1-3.2,0.7-3.7-1c0-1.3,0.6-2.3,1.9-2.9
				c-0.9-0.1-1.3-0.6-1.1-1.6C159.2,384.9,160,384.2,161.2,384z M161.6,388.3c-0.6,0.2-1,0.6-1.2,1.2c0.1,0.5,0.5,0.5,1,0.1l0.2-1.2
				L161.6,388.3z M161.5,385.6c0,0-0.1,0-0.2,0c-0.1,0-0.1,0-0.2,0.1c0.1,0.4-0.1,0.9-0.4,1.3c0.1,0,0.1,0,0.2-0.1
				c0.1,0,0.1-0.1,0.2-0.1l0.6-0.2l0.1-0.4C162,385.8,161.9,385.6,161.5,385.6z"/>
			<path fill="#B3B3B3" d="M168.2,382.7c0.1-0.1,0.2-0.2,0.4-0.3h0.1c0.8,0,1,0.5,0.7,1.8c0.8-0.1,1.3,0.1,1.4,0.5
				c0,1-0.5,1.4-1.6,1.3l-0.5,3.8v0.2h0.2c0.3-0.4,0.7-0.5,1.2-0.4c0.3,0.2,0.4,0.5,0.3,0.9c-0.7,1-1.6,1.5-2.8,1.4
				c-0.6,0-1-0.4-1.3-1c0-0.1,0-0.2-0.1-0.4l0-0.3l0.6-4.4c-0.3-0.1-0.6-0.2-0.8-0.5l0.1-0.6c0.1-0.2,0.3-0.3,0.5-0.4l0.2-0.1
				l0.9-0.8l0.1-0.1l0.1-0.1l0.1-0.1l0-0.1C168,382.9,168.1,382.8,168.2,382.7z"/>
			<path fill="#B3B3B3" d="M171.8,385l2.7-0.9c0.3,0,0.5,0.1,0.7,0.4c0,0.2,0,0.4,0,0.6c0,0.2-0.1,0.5-0.1,0.7l-0.6,4.5
				c0.4,0,0.7,0.2,0.9,0.4c0,0.1,0,0.2,0,0.3c0,0.1,0,0.3-0.1,0.4l0,0.1c0,0-0.1,0.1-0.1,0.1c0,0-0.1,0.1-0.2,0.1h-4
				c-0.3-0.4-0.3-0.8,0.1-1.3c0.2-0.1,0.5-0.1,0.8-0.1l0.1-0.1c0-0.2,0.1-0.5,0.2-0.8l0.4-3.1c-0.8,0.1-1.1-0.2-1-0.9
				c0-0.1,0.1-0.1,0.1-0.2C171.6,385.1,171.7,385.1,171.8,385z M173.4,383.5c-1-0.9-0.9-1.8,0.5-2.6c0.8-0.1,1.4,0.2,1.7,0.9
				C175.4,383.2,174.7,383.8,173.4,383.5z"/>
			<path fill="#B3B3B3" d="M180.2,384.1c1.7-0.2,2.7,0.3,3.2,1.6c0.1,1.1-0.5,1.7-1.7,1.8c-0.6-0.3-1-0.8-1-1.6
				c-0.2,0-0.5,0-0.7,0.1c-0.6,0.4-0.9,1-1,1.8c-0.1,0.7,0.1,1.4,0.6,1.9c0.9,0.4,1.7,0,2.5-1.1c0.2-0.1,0.5-0.1,0.8,0
				c0.3,0.2,0.4,0.6,0.3,1c-0.9,1.7-2.3,2.6-3.9,2.5c-1.7-0.1-2.6-1.1-2.7-3C176.4,386.5,177.7,384.9,180.2,384.1z"/>
			<path fill="#B3B3B3" d="M189.3,384.1c-0.2-1.9,0.7-3.1,3-3.5h5.1c0.2,0,0.5,0,0.7,0.1l0.2,0h0.1c0.1,0,0.2,0.1,0.3,0.1
				c0.2,0,0.3,0.1,0.5,0.2c0,0,0.1,0,0.1,0.1c0,0,0.1,0.1,0.1,0.1l0.5,0.4c0.5,0.5,0.7,1.3,0.7,2.2c-0.1,1.4-0.9,2.6-2.4,3.4
				c0,2.3,0.8,4.4,2.2,6.3c1.4,1.7,3.2,1.9,5.5,0.5c-0.2-0.6,0-1.1,0.6-1.5c0.4-0.1,0.8,0,1.1,0.3c0.1,0.5,0,1.1-0.3,1.7
				c-0.2,0.2-0.4,0.4-0.6,0.6c-0.2,0.2-0.5,0.4-0.8,0.5l-1.1,0.5l-1.2,0.2h-1.9c-0.1,0-0.2,0-0.3-0.1c-0.1,0-0.2,0-0.3,0
				c-0.2-0.1-0.4-0.1-0.6-0.2c-0.1,0-0.2,0-0.3-0.1c-0.1,0-0.1-0.1-0.3-0.1l-0.3-0.2c-2.3-1.7-3.5-4.2-3.8-7.7l-0.8,0l-0.4,2.7
				l0.2,0.1c0.4,0,0.7,0.1,0.9,0.4c0,0.1,0,0.3,0,0.4c0,0.1,0,0.3-0.1,0.5c-0.1,0.1-0.3,0.2-0.5,0.4l-4.4,0
				c-0.1-0.1-0.2-0.1-0.3-0.2c-0.3-0.9,0.1-1.4,1.2-1.6c0-0.1,0-0.2,0.1-0.3c0-0.1,0-0.2,0.1-0.4l1-7.3l0-0.2c-0.4-0.2-1-0.1-1.5,0
				l-0.1,0.1c0.3,0.6,0.2,1.3-0.4,1.9c-0.5,0.4-0.9,0.4-1.4,0.2C189.5,384.4,189.4,384.3,189.3,384.1z M197.7,384
				c0.1-1.1-0.5-1.6-1.8-1.5c0,0.1-0.1,0.2-0.1,0.4c0,0.1,0,0.3-0.1,0.4l-0.3,2.2C196.7,385.7,197.4,385.2,197.7,384z"/>
			<path fill="#B3B3B3" d="M204.1,384.1c2.5-0.3,3.9,0.8,4.1,3.1c0,2.5-1.3,4.1-3.6,4.8c-2.4,0.3-3.8-0.7-4.1-3.1
				C200.4,386.4,201.6,384.8,204.1,384.1z M204.7,385.8c-0.1,0-0.2,0-0.3-0.1c-0.2,0.1-0.4,0.2-0.6,0.3c-0.5,0.7-0.7,1.5-0.6,2.3
				c0,0.7,0.1,1.3,0.5,1.9c0.2,0.1,0.4,0.2,0.7,0.2c0.2-0.1,0.3-0.2,0.5-0.3c0.4-0.6,0.7-1.3,0.7-2.1c0.1-0.8-0.1-1.5-0.6-2.2
				C204.9,385.8,204.8,385.8,204.7,385.8z"/>
			<path fill="#B3B3B3" d="M212.7,384.1c1.7-0.2,2.7,0.3,3.2,1.6c0.1,1.1-0.5,1.7-1.7,1.8c-0.6-0.3-1-0.8-1-1.6
				c-0.2,0-0.5,0-0.7,0.1c-0.6,0.4-0.9,1-1,1.8c-0.1,0.7,0.1,1.4,0.6,1.9c0.9,0.4,1.7,0,2.5-1.1c0.2-0.1,0.5-0.1,0.8,0
				c0.3,0.2,0.4,0.6,0.3,1c-0.9,1.7-2.3,2.6-3.9,2.5c-1.7-0.1-2.6-1.1-2.7-3C208.9,386.5,210.2,384.9,212.7,384.1z"/>
			<path fill="#B3B3B3" d="M219.6,380.9l0.1,0c0.4-0.1,0.6,0,0.9,0.2l0.1,0.3l-0.6,4.4v0.2c0.1-0.2,0.3-0.3,0.5-0.4l0.1-0.1
				c-0.4-0.5-0.3-0.9,0.3-1.4l3.2,0l0.2,0l0.1,0c0.1,0.1,0.2,0.3,0.3,0.5c0,0.3-0.2,0.6-0.4,0.9c-0.2,0.1-0.4,0.1-0.7,0.1l-0.3,0
				c-0.1,0-0.1,0.1-0.3,0.1c-0.1,0.1-0.3,0.2-0.5,0.3l-0.2,0.1l-0.1,0.1l-0.3,0.2c-0.1,0.1-0.1,0.1-0.3,0.2
				c-0.1,0.1-0.1,0.1-0.2,0.2c-0.1,0.1-0.2,0.1-0.3,0.2l-0.2,0.2c0.1,0.1,0.2,0.2,0.3,0.4l0.1,0.1l0.2,0.4c0,0,0.1,0.1,0.1,0.1
				c0,0.1,0.1,0.1,0.1,0.2l0.1,0.1l0.2,0.4c0.1,0.1,0.1,0.2,0.1,0.2c0,0,0.1,0.1,0.1,0.1l0.2,0.3l0.1,0.2l0.2,0.2
				c0.2,0.2,0.6,0.3,1,0.4c0.1,0.1,0.2,0.1,0.2,0.2c0.1,0.5,0,0.8-0.4,1.1h-7.6c-0.2,0-0.3-0.1-0.4-0.2c-0.1-0.8,0.3-1.2,1.2-1.3
				l1-7.3c-0.9,0-1.1-0.4-0.8-1.2c0.1-0.1,0.2-0.2,0.3-0.3l0.5-0.1l0.2,0l0.4-0.1l0.2,0l0.4-0.1c0.1,0,0.2,0,0.2-0.1
				C219.4,380.9,219.5,380.9,219.6,380.9z M219.6,389.8l-0.2-0.2l-0.1,0.7c0.2,0.1,0.4,0.1,0.6,0L219.6,389.8z"/>
		</g>
	</g>
	<rect x="308.6" y="29.1" opacity="0.9" fill="#FFFFFF" width="401.5" height="564.7"/>
	
		<line display="none" fill="none" stroke="#FFFFFF" stroke-width="3" stroke-linecap="round" stroke-miterlimit="10" x1="184.9" y1="463.9" x2="206.6" y2="442.2"/>
	
		<line display="none" fill="none" stroke="#FFFFFF" stroke-width="3" stroke-linecap="round" stroke-miterlimit="10" x1="189" y1="468" x2="210.7" y2="446.2"/>
	<path fill="#F4BF2D" d="M481,447.3H454c0.4-0.9,0.6-1.9,0.6-3v-46.2c0-3.9-2.7-7-6.1-7l-26.6,7.4c0,3.9-3.1,7-7,7H411
		c-3.9,0-7-3.1-7-7l-26.7-7.4c-3.4,0-6.1,3.1-6.1,7v46.2c0,1.1,0.2,2.1,0.6,3h-26.9c-3.4,0-6.2,2.4-6.2,5.3c0,2.9,2.8,5.3,6.2,5.3
		H481c3.4,0,6.2-2.4,6.2-5.3C487.2,449.7,484.4,447.3,481,447.3z"/>
	<g>
		<path fill="#F4BF2D" d="M516.5,411.5v44.3h167.4v-14c0,0,2.3-8.2-33.1-11.2c-35.8-13-80.4-29.7-80.4-29.7l-7.5-7.8
			c0,0-11.9,7.5-7.8,14c-15.7,2-15.7,2-15.7,2l-17.7-10.6C521.6,398.5,513.8,391.7,516.5,411.5z"/>
		<path fill="#F4BF2D" d="M516.5,411.5v44.3h167.4v-14c0,0,2.3-8.2-33.1-11.2c-35.8-13-80.4-29.7-80.4-29.7l-7.5-7.8
			c0,0-11.9,7.5-7.8,14c-15.7,2-15.7,2-15.7,2l-17.7-10.6C521.6,398.5,513.8,391.7,516.5,411.5z"/>
		<rect x="516.5" y="443.5" fill="#A5A7AA" width="167.4" height="12.3"/>
		<rect x="516.5" y="447.3" fill="#F8971D" width="167.4" height="2.4"/>
		<path fill="#F8971D" d="M521.6,398.5l17.7,10.6l-22.8,5.2v-2.8C513.8,391.7,521.6,398.5,521.6,398.5z"/>
		<path fill="#F8971D" d="M562.9,393.1l7.5,7.8c0,0,30.7,11.5,61.7,22.8l0,0l-77.1-16.9C551.2,400.4,562.9,393.1,562.9,393.1z"/>
		<path fill="#CCA123" d="M610.9,423.8c-0.5,1.1,0.8,2.8,2.8,3.7c2.1,0.9,4.1,0.8,4.6-0.3c0.5-1.1-0.8-2.8-2.8-3.7
			C613.5,422.6,611.4,422.7,610.9,423.8z"/>
		<path fill="#FFFFFF" d="M612.6,422.9c-0.7,0.9-0.2,2.5,1.1,3.6l0,0c1.3,1,3,1.1,3.7,0.2l4.5-5.8c0.7-0.9,0.2-2.5-1.1-3.6l0,0
			c-1.3-1-3-1.1-3.7-0.2L612.6,422.9z"/>
		<path fill="#CCA123" d="M599.4,420.3c-0.5,1.1,0.8,2.8,2.8,3.7c2.1,0.9,4.1,0.8,4.6-0.3c0.5-1.1-0.8-2.8-2.8-3.7
			C602,419,599.9,419.2,599.4,420.3z"/>
		<path fill="#FFFFFF" d="M601.3,419c-0.8,1.1-0.4,2.8,0.9,3.8l0,0c1.3,1,3.1,1,3.9-0.1l5.3-6.8c0.8-1.1,0.4-2.8-0.9-3.8l0,0
			c-1.3-1-3.1-1-3.9,0.1L601.3,419z"/>
		<path fill="#CCA123" d="M588.6,416c-0.5,1.1,0.8,2.8,2.8,3.7c2.1,0.9,4.1,0.8,4.6-0.3c0.5-1.1-0.8-2.8-2.8-3.7
			C591.1,414.7,589.1,414.9,588.6,416z"/>
		<path fill="#FFFFFF" d="M590.5,414.7c-0.8,1.1-0.4,2.8,0.9,3.8l0,0c1.3,1,3.1,1,4-0.1l5.3-6.8c0.8-1.1,0.4-2.8-0.9-3.8l0,0
			c-1.3-1-3.1-1-4,0.1L590.5,414.7z"/>
		<path fill="#CCA123" d="M575.7,413.4c-0.5,1.1,0.8,2.8,2.8,3.7c2.1,0.9,4.1,0.8,4.6-0.3c0.5-1.1-0.8-2.8-2.8-3.7
			C578.3,412.1,576.2,412.2,575.7,413.4z"/>
		<path fill="#FFFFFF" d="M577.8,411.9c-0.9,1.2-0.6,3,0.7,4.1l0,0c1.3,1,3.2,0.9,4.1-0.3l5.8-7.5c0.9-1.2,0.6-3-0.7-4.1l0,0
			c-1.3-1-3.2-0.9-4.1,0.3L577.8,411.9z"/>
	</g>
	<g display="none">
		<path display="inline" opacity="0.2" fill="#231F20" d="M690.5,907.9c0,8-4.5,14.5-10,14.5h-607c-5.5,0-10-6.5-10-14.5V658.2
			c0-8,4.5-14.5,10-14.5h607c5.5,0,10,6.5,10,14.5V907.9z"/>
	</g>
	<polygon fill="#F8971D" points="574.1,326 552.1,308.8 552.1,160.4 574.1,177.6 	"/>
	<polygon fill="#F4BF2D" points="574.7,177.6 574.1,177.6 574.1,326 651.6,326.2 651.6,177.8 	"/>
	<rect x="580.8" y="214.6" fill="#A5A7AA" width="19.4" height="23.4"/>
	<rect x="603.4" y="214.6" fill="#A5A7AA" width="19.4" height="23.4"/>
	<rect x="580.8" y="240.2" fill="#A5A7AA" width="19.4" height="23.4"/>
	<rect x="603.4" y="240.2" fill="#A5A7AA" width="19.4" height="23.4"/>
	<rect x="580.8" y="267.8" fill="#A5A7AA" width="19.4" height="23.4"/>
	<rect x="603.4" y="267.8" fill="#A5A7AA" width="19.4" height="23.4"/>
	<rect x="626.1" y="214.6" fill="#A5A7AA" width="19.4" height="23.4"/>
	<rect x="580.8" y="188" fill="#A5A7AA" width="19.4" height="23.4"/>
	<rect x="603.4" y="188" fill="#A5A7AA" width="19.4" height="23.4"/>
	<rect x="626.1" y="188" fill="#A5A7AA" width="19.4" height="23.4"/>
	<rect x="626.1" y="240.2" fill="#A5A7AA" width="19.4" height="23.4"/>
	<rect x="626.1" y="267.8" fill="#A5A7AA" width="19.4" height="23.4"/>
	<rect x="595.7" y="298.2" fill="#82888C" width="34.3" height="28"/>
	<rect x="308.7" y="27.9" fill="#FFFFFF" width="401.5" height="57.6"/>
	<g>
		<rect x="511.4" y="40.2" fill="#495259" width="14.8" height="14.8"/>
		<rect x="492.7" y="40.2" fill="#495259" width="14.8" height="14.8"/>
		<rect x="511.4" y="58.2" fill="#495259" width="14.8" height="14.8"/>
		<rect x="492.7" y="58.2" fill="#495259" width="14.8" height="14.8"/>
	</g>
	<g>
		<rect x="320.2" y="39.6" fill="#495259" width="40.7" height="9"/>
		<rect x="320.2" y="52.2" fill="#495259" width="40.7" height="9"/>
		<rect x="320.2" y="64.7" fill="#495259" width="40.7" height="9"/>
	</g>
	<g>
		<rect x="673.6" y="47.3" fill="#495259" width="26.3" height="27.2"/>
		<path fill="#495259" stroke="#495259" stroke-width="2" stroke-miterlimit="10" d="M686.7,38.7c-4.7,0-8.5,3.8-8.5,8.6
			s3.8,8.6,8.5,8.6c4.7,0,8.5-3.8,8.5-8.6S691.5,38.7,686.7,38.7z M686.7,54.5c-3.9,0-7.1-3.2-7.1-7.1c0-3.9,3.2-7.1,7.1-7.1
			c3.9,0,7.1,3.2,7.1,7.1C693.8,51.3,690.6,54.5,686.7,54.5z"/>
	</g>
	<rect x="308.7" y="535.2" fill="#FFFFFF" width="401.5" height="57.6"/>
	<g>
		<rect x="320.2" y="562.7" fill="#E6E7E8" width="151.9" height="2.9"/>
		<rect x="320.2" y="554.2" fill="#E6E7E8" width="151.9" height="2.9"/>
		<rect x="320.2" y="570.9" fill="#E6E7E8" width="61.8" height="2.9"/>
	</g>
	<g>
		<rect x="557.9" y="546.2" fill="#495259" width="142" height="35.5"/>
		<g>
			<path fill="#FFFFFF" d="M581,569.7l-1.5-3.9h-4.9l-1.5,3.9h-1.5l4.9-12.4h1.2l4.9,12.4H581z M579,564.5l-1.4-3.8
				c-0.2-0.5-0.4-1.1-0.6-1.8c-0.1,0.5-0.3,1.1-0.5,1.8l-1.5,3.8H579z"/>
			<path fill="#FFFFFF" d="M594.1,563.4c0,2-0.6,3.6-1.7,4.7c-1.1,1.1-2.7,1.6-4.8,1.6h-3.4v-12.3h3.8c1.9,0,3.4,0.5,4.5,1.6
				C593.5,560,594.1,561.5,594.1,563.4z M592.5,563.5c0-1.6-0.4-2.8-1.2-3.6c-0.8-0.8-2-1.2-3.6-1.2h-2.1v9.9h1.7
				c1.7,0,3-0.4,3.9-1.3C592.1,566.4,592.5,565.1,592.5,563.5z"/>
			<path fill="#FFFFFF" d="M606.7,563.4c0,2-0.6,3.6-1.7,4.7c-1.1,1.1-2.7,1.6-4.8,1.6h-3.4v-12.3h3.8c1.9,0,3.4,0.5,4.5,1.6
				C606.1,560,606.7,561.5,606.7,563.4z M605.1,563.5c0-1.6-0.4-2.8-1.2-3.6c-0.8-0.8-2-1.2-3.6-1.2h-2.1v9.9h1.7
				c1.7,0,3-0.4,3.9-1.3C604.7,566.4,605.1,565.1,605.1,563.5z"/>
			<path fill="#FFFFFF" d="M617.7,569.7h-1.4v-11.1h-3.9v-1.3h9.2v1.3h-3.9V569.7z"/>
			<path fill="#FFFFFF" d="M634.2,563.5c0,2-0.5,3.5-1.5,4.7c-1,1.1-2.4,1.7-4.2,1.7c-1.8,0-3.2-0.6-4.2-1.7s-1.5-2.7-1.5-4.7
				c0-2,0.5-3.6,1.5-4.7c1-1.1,2.4-1.7,4.2-1.7c1.8,0,3.2,0.6,4.2,1.7C633.7,560,634.2,561.5,634.2,563.5z M624.3,563.5
				c0,1.7,0.4,2.9,1.1,3.8c0.7,0.9,1.7,1.3,3.1,1.3c1.4,0,2.4-0.4,3.1-1.3c0.7-0.9,1-2.1,1-3.8c0-1.7-0.3-2.9-1-3.8
				c-0.7-0.9-1.7-1.3-3.1-1.3c-1.4,0-2.4,0.4-3.1,1.3C624.7,560.6,624.3,561.9,624.3,563.5z"/>
			<path fill="#FFFFFF" d="M646.7,558.5c-1.4,0-2.4,0.5-3.2,1.4c-0.8,0.9-1.2,2.1-1.2,3.7c0,1.6,0.4,2.9,1.1,3.7
				c0.8,0.9,1.8,1.3,3.2,1.3c0.9,0,1.8-0.2,2.9-0.5v1.3c-0.9,0.3-1.9,0.5-3.2,0.5c-1.8,0-3.2-0.6-4.2-1.7c-1-1.1-1.5-2.7-1.5-4.7
				c0-1.3,0.2-2.4,0.7-3.3c0.5-1,1.2-1.7,2.1-2.2c0.9-0.5,2-0.8,3.2-0.8c1.3,0,2.4,0.2,3.4,0.7l-0.6,1.2
				C648.6,558.7,647.6,558.5,646.7,558.5z"/>
			<path fill="#FFFFFF" d="M660.1,569.7l-1.5-3.9h-4.9l-1.5,3.9h-1.5l4.9-12.4h1.2l4.9,12.4H660.1z M658.1,564.5l-1.4-3.8
				c-0.2-0.5-0.4-1.1-0.6-1.8c-0.1,0.5-0.3,1.1-0.5,1.8l-1.5,3.8H658.1z"/>
			<path fill="#FFFFFF" d="M664.7,564.6v5.1h-1.4v-12.3h3.4c1.5,0,2.6,0.3,3.4,0.9c0.7,0.6,1.1,1.5,1.1,2.6c0,1.6-0.8,2.7-2.5,3.3
				l3.4,5.5h-1.7l-3-5.1H664.7z M664.7,563.3h2c1,0,1.8-0.2,2.2-0.6c0.5-0.4,0.7-1,0.7-1.8c0-0.8-0.2-1.4-0.7-1.8
				c-0.5-0.4-1.3-0.5-2.3-0.5h-1.9V563.3z"/>
			<path fill="#FFFFFF" d="M677.7,569.7h-1.4v-11.1h-3.9v-1.3h9.2v1.3h-3.9V569.7z"/>
		</g>
	</g>
	<polygon fill="#F17330" points="651.6,177.8 626.1,159.7 552.1,160.4 574.1,177.6 	"/>
	<rect x="599.7" y="294.4" fill="#BFC0C1" stroke="#82888C" stroke-miterlimit="10" width="27" height="11"/>
	<g>
		<path fill="#82888C" d="M612.6,298.6h-0.4l-0.5-1.4h0l0,0c0,0.2-0.1,0.3-0.1,0.5l-0.2,0.9h-0.4l0.4-1.9h0.5l0.4,1.4h0
			c0-0.1,0-0.2,0-0.3c0-0.1,0.1-0.5,0.2-1.1h0.4L612.6,298.6z"/>
		<path fill="#82888C" d="M614.8,297.4c0,0.2,0,0.5-0.1,0.7c-0.1,0.2-0.2,0.3-0.3,0.4c-0.1,0.1-0.3,0.1-0.5,0.1
			c-0.2,0-0.4-0.1-0.5-0.2c-0.1-0.1-0.2-0.3-0.2-0.5c0-0.2,0-0.4,0.1-0.6c0.1-0.2,0.2-0.3,0.4-0.4c0.1-0.1,0.3-0.2,0.5-0.2
			c0.2,0,0.4,0.1,0.5,0.2C614.8,297,614.8,297.2,614.8,297.4z M614.1,297c-0.1,0-0.2,0-0.3,0.1c-0.1,0.1-0.2,0.2-0.2,0.3
			c0,0.1-0.1,0.3-0.1,0.4c0,0.1,0,0.2,0.1,0.3c0.1,0.1,0.1,0.1,0.2,0.1c0.1,0,0.2,0,0.3-0.1c0.1-0.1,0.2-0.2,0.2-0.3
			c0-0.1,0.1-0.3,0.1-0.5c0-0.1,0-0.2-0.1-0.3C614.3,297.1,614.2,297,614.1,297z"/>
		<path fill="#EF4136" d="M602.8,302.4c0.1-0.4,0.2-0.6,0.3-0.7l1.1-2.3h0.8l-1.9,3.8h-0.9l-0.3-3.8h0.8l0.1,2.3c0,0.1,0,0.2,0,0.3
			C602.8,302.2,602.8,302.3,602.8,302.4L602.8,302.4z"/>
		<path fill="#EF4136" d="M606.7,302.3h-1.2l-0.4,0.9h-0.8l2-3.8h1l0.4,3.8h-0.8L606.7,302.3z M606.6,301.6l-0.1-0.9
			c0-0.2,0-0.4,0-0.7V300c-0.1,0.2-0.2,0.4-0.3,0.7l-0.5,1H606.6z"/>
		<path fill="#EF4136" d="M610.1,300c-0.2,0-0.4,0.1-0.6,0.2c-0.2,0.1-0.3,0.3-0.4,0.6c-0.1,0.3-0.2,0.6-0.2,0.9
			c0,0.3,0.1,0.5,0.2,0.6c0.1,0.1,0.3,0.2,0.6,0.2c0.2,0,0.5-0.1,0.9-0.2v0.7c-0.3,0.1-0.7,0.2-1,0.2c-0.4,0-0.8-0.1-1-0.4
			c-0.2-0.3-0.4-0.6-0.4-1.1c0-0.4,0.1-0.9,0.3-1.2c0.2-0.4,0.4-0.7,0.7-0.9c0.3-0.2,0.6-0.3,1-0.3c0.2,0,0.4,0,0.6,0.1
			c0.2,0,0.3,0.1,0.5,0.2l-0.3,0.6c-0.2-0.1-0.3-0.2-0.5-0.2C610.4,300,610.3,300,610.1,300z"/>
		<path fill="#EF4136" d="M613.2,302.3H612l-0.4,0.9h-0.8l2-3.8h1l0.4,3.8h-0.8L613.2,302.3z M613.2,301.6l-0.1-0.9
			c0-0.2,0-0.4,0-0.7V300c-0.1,0.2-0.2,0.4-0.3,0.7l-0.5,1H613.2z"/>
		<path fill="#EF4136" d="M617.5,303.2h-0.9l-0.9-2.8h0l0,0.1c-0.1,0.4-0.1,0.7-0.2,1l-0.4,1.8h-0.7l0.8-3.8h0.9l0.9,2.8h0
			c0-0.1,0.1-0.3,0.1-0.6c0-0.2,0.2-1,0.5-2.2h0.7L617.5,303.2z"/>
		<path fill="#EF4136" d="M620.6,300c-0.2,0-0.4,0.1-0.6,0.2c-0.2,0.1-0.3,0.3-0.4,0.6c-0.1,0.3-0.2,0.6-0.2,0.9
			c0,0.3,0.1,0.5,0.2,0.6c0.1,0.1,0.3,0.2,0.6,0.2c0.2,0,0.5-0.1,0.9-0.2v0.7c-0.3,0.1-0.7,0.2-1,0.2c-0.4,0-0.8-0.1-1-0.4
			c-0.2-0.3-0.4-0.6-0.4-1.1c0-0.4,0.1-0.9,0.3-1.2c0.2-0.4,0.4-0.7,0.7-0.9c0.3-0.2,0.6-0.3,1-0.3c0.2,0,0.4,0,0.6,0.1
			c0.2,0,0.3,0.1,0.5,0.2l-0.3,0.6c-0.2-0.1-0.3-0.2-0.5-0.2C620.9,300,620.8,300,620.6,300z"/>
		<path fill="#EF4136" d="M623.1,300.9l1-1.5h0.9l-1.6,2.3l-0.3,1.4h-0.8l0.3-1.4l-0.6-2.3h0.8L623.1,300.9z"/>
	</g>
	<rect x="145.1" y="405.9" display="none" opacity="0.4" fill="#FFFFFF" width="74.6" height="68.3"/>
	<g id="web_4_">
		<g>
			<polygon fill="#495259" points="216.5,504.4 223.5,496.4 231.3,511.1 235.3,508.6 227.5,493.8 237.5,491.7 213.6,472.9 			"/>
		</g>
	</g>
	<g>
		
			<rect x="396.4" y="196.4" transform="matrix(0.4456 -0.8952 0.8952 0.4456 5.8639 518.8696)" fill="#FFFFFF" stroke="#F8971D" stroke-width="2" stroke-miterlimit="10" width="50.9" height="116.6"/>
		
			<rect x="357.5" y="220.5" transform="matrix(-0.4457 0.8952 -0.8952 -0.4457 764.2362 -2.5993)" fill="#F8971D" width="50.9" height="29.6"/>
		<polygon fill="#F8971D" points="404,223.9 407.1,228.5 401.6,228.8 		"/>
		
			<text transform="matrix(0.8936 0.4489 -0.4489 0.8936 411.7102 233.9629)" fill="#F4BF2D" font-family="'OpenSans-Bold'" font-size="6.5676">SEC</text>
		
			<text transform="matrix(0.8936 0.4489 -0.4489 0.8936 432.7618 244.5404)" fill="#F4BF2D" font-family="'OpenSans-Bold'" font-size="6.5676">ROW</text>
		
			<text transform="matrix(0.8936 0.4489 -0.4489 0.8936 457.3393 256.8883)" fill="#F4BF2D" font-family="'OpenSans-Bold'" font-size="6.5676">SEAT</text>
	</g>
	<g>
		<polygon opacity="0.5" fill="#A5A7AA" points="399.3,214.2 420.7,283.5 423.9,284.9 403.3,216.4 		"/>
		<g>
			
				<rect x="412.3" y="185.5" transform="matrix(0.9569 -0.2905 0.2905 0.9569 -51.9551 137.7196)" fill="#FFFFFF" stroke="#F8971D" stroke-width="2" stroke-miterlimit="10" width="50.9" height="116.6"/>
			<polygon fill="#F8971D" points="405.1,223.7 453.8,208.9 445.2,180.7 396.5,195.4 397.7,199.5 			"/>
			<polygon fill="#F8971D" points="448,209.7 446.7,215 442.7,211.3 			"/>
			<g>
				<path fill="#F4BF2D" d="M448.1,225c-0.4,0.1-0.8,0.1-1.1-0.2c-0.3-0.2-0.6-0.6-0.7-1.1c-0.1-0.5-0.2-0.9-0.1-1.4l0.9-0.3
					c0,0.3-0.1,0.6-0.1,0.9c0,0.2,0,0.4,0.1,0.6c0.1,0.2,0.2,0.4,0.3,0.4c0.1,0.1,0.2,0.1,0.4,0.1c0.1,0,0.2-0.1,0.2-0.1
					c0.1-0.1,0.1-0.2,0.1-0.3c0-0.1,0.1-0.3,0.1-0.7c0-0.3,0.1-0.6,0.2-0.7c0.1-0.2,0.2-0.3,0.3-0.5c0.1-0.1,0.3-0.2,0.5-0.3
					c0.4-0.1,0.7-0.1,1.1,0.1c0.3,0.2,0.5,0.5,0.7,1c0.1,0.2,0.1,0.5,0.1,0.7c0,0.2,0,0.5,0,0.7l-0.8-0.1c0-0.3,0-0.5,0-0.7
					c0-0.2,0-0.3-0.1-0.5c-0.1-0.2-0.1-0.3-0.2-0.4c-0.1-0.1-0.2-0.1-0.4,0c-0.1,0-0.2,0.1-0.2,0.1c-0.1,0.1-0.1,0.1-0.1,0.2
					c0,0.1-0.1,0.3-0.1,0.7c-0.1,0.5-0.2,0.8-0.3,1C448.7,224.7,448.4,224.9,448.1,225z"/>
				<path fill="#F4BF2D" d="M447.9,228.8l-0.8-2.6l4.5-1.3l0.8,2.6l-0.8,0.2l-0.5-1.6l-1,0.3l0.5,1.5l-0.8,0.2l-0.5-1.5l-1.2,0.3
					l0.5,1.6L447.9,228.8z"/>
				<path fill="#F4BF2D" d="M452.5,230.5c-0.1-0.4-0.3-0.6-0.7-0.7c-0.3-0.1-0.7-0.1-1.2,0c-1,0.3-1.4,0.8-1.2,1.6
					c0.1,0.3,0.3,0.7,0.6,1.1l-0.8,0.2c-0.3-0.3-0.5-0.7-0.6-1.2c-0.2-0.7-0.1-1.2,0.1-1.7c0.3-0.5,0.8-0.8,1.6-1
					c0.5-0.1,0.9-0.2,1.3-0.1c0.4,0.1,0.7,0.2,1,0.5c0.3,0.3,0.5,0.6,0.6,1c0.1,0.4,0.2,0.9,0.1,1.4l-0.9-0.1c0-0.2,0-0.4,0.1-0.6
					C452.6,230.8,452.6,230.6,452.5,230.5z"/>
			</g>
			<g>
				<path fill="#F4BF2D" d="M454.9,245.7l-1.7,0.5l-0.3-1l4.5-1.3l0.4,1.3c0.2,0.6,0.2,1.1,0.1,1.5c-0.1,0.4-0.4,0.6-0.9,0.7
					c-0.3,0.1-0.5,0.1-0.8,0c-0.2-0.1-0.5-0.2-0.7-0.5c-0.8,1-1.3,1.6-1.6,1.9l-0.3-1.1l1.4-1.6L454.9,245.7z M455.7,245.5l0.1,0.3
					c0.1,0.3,0.2,0.5,0.4,0.6c0.1,0.1,0.3,0.1,0.5,0.1c0.2-0.1,0.3-0.2,0.4-0.4c0-0.2,0-0.4-0.1-0.7l-0.1-0.3L455.7,245.5z"/>
				<path fill="#F4BF2D" d="M457.6,252.8c-0.7,0.2-1.4,0.2-1.9,0c-0.5-0.2-0.9-0.7-1.1-1.4c-0.2-0.7-0.2-1.3,0.1-1.8
					c0.3-0.5,0.8-0.8,1.6-1.1c0.7-0.2,1.4-0.2,1.9,0c0.5,0.3,0.9,0.7,1.1,1.4c0.2,0.7,0.2,1.3-0.1,1.8
					C458.8,252.3,458.3,252.6,457.6,252.8z M456.6,249.6c-0.5,0.2-0.9,0.4-1,0.6c-0.2,0.3-0.2,0.6-0.1,1c0.2,0.8,0.8,1,1.9,0.7
					c1-0.3,1.4-0.8,1.2-1.6c-0.1-0.4-0.3-0.6-0.6-0.7C457.5,249.4,457.1,249.4,456.6,249.6z"/>
				<path fill="#F4BF2D" d="M456.9,258.8l-0.3-1.1l2.2-1.3c0.1,0,0.2-0.1,0.5-0.3c0.2-0.1,0.4-0.2,0.5-0.3c-0.1,0-0.3,0-0.6,0.1
					c-0.3,0-0.4,0-0.6,0l-2.5,0.1l-0.3-1.1l4.1-2.5l0.3,0.9l-2.3,1.3c-0.4,0.2-0.8,0.4-1.1,0.6c0.1,0,0.3,0,0.6-0.1
					c0.3,0,0.5,0,0.6,0l2.7-0.1l0.3,0.9l-2.3,1.4c-0.1,0.1-0.3,0.2-0.5,0.3c-0.2,0.1-0.4,0.2-0.6,0.3c0.2,0,0.4-0.1,0.6-0.1
					c0.3,0,0.5,0,0.6,0l2.6-0.2l0.3,0.9L456.9,258.8z"/>
			</g>
			<g>
				<path fill="#F4BF2D" d="M462.8,273.9c-0.4,0.1-0.8,0.1-1.1-0.2c-0.3-0.2-0.6-0.6-0.7-1.1c-0.1-0.5-0.2-0.9-0.1-1.4l0.9-0.3
					c0,0.3-0.1,0.6-0.1,0.9c0,0.2,0,0.4,0.1,0.6c0.1,0.2,0.2,0.4,0.3,0.4c0.1,0.1,0.2,0.1,0.4,0.1c0.1,0,0.2-0.1,0.2-0.1
					c0.1-0.1,0.1-0.2,0.1-0.3c0-0.1,0.1-0.3,0.1-0.7c0-0.3,0.1-0.6,0.2-0.7c0.1-0.2,0.2-0.3,0.3-0.5c0.1-0.1,0.3-0.2,0.5-0.3
					c0.4-0.1,0.8-0.1,1.1,0.1c0.3,0.2,0.5,0.5,0.7,1c0.1,0.2,0.1,0.5,0.1,0.7c0,0.2,0,0.5,0,0.7l-0.8-0.1c0-0.3,0-0.5,0-0.7
					c0-0.2,0-0.3-0.1-0.5c-0.1-0.2-0.1-0.3-0.2-0.4c-0.1-0.1-0.2-0.1-0.4,0c-0.1,0-0.2,0.1-0.2,0.1c-0.1,0.1-0.1,0.1-0.1,0.2
					c0,0.1-0.1,0.3-0.1,0.7c-0.1,0.5-0.2,0.8-0.3,1C463.3,273.7,463.1,273.8,462.8,273.9z"/>
				<path fill="#F4BF2D" d="M462.6,277.7l-0.8-2.6l4.5-1.3l0.8,2.6l-0.8,0.2l-0.5-1.6l-1,0.3l0.5,1.5l-0.8,0.2l-0.5-1.5l-1.2,0.3
					l0.5,1.6L462.6,277.7z"/>
				<path fill="#F4BF2D" d="M463.7,281.4l1-0.6l-0.5-1.6l-1.2,0l-0.3-1l5,0.2l0.3,1.2l-4,2.9L463.7,281.4z M465.4,280.3
					c0.9-0.6,1.4-0.9,1.5-1c0.1-0.1,0.2-0.1,0.3-0.2c-0.3,0-1,0-2.1,0L465.4,280.3z"/>
				<path fill="#F4BF2D" d="M464.7,284.7l-0.3-1l3.7-1.1l-0.4-1.2l0.8-0.2l1,3.4l-0.8,0.2l-0.4-1.2L464.7,284.7z"/>
			</g>
		</g>
	</g>
	<g>
		<g>
			<path fill="#414042" d="M594.7,169.5v3.1h3v-3.1h1.8v8.1h-1.8v-3.4h-3v3.4h-1.8v-8.1H594.7z"/>
			<path fill="#414042" d="M608.6,173.5c0,2.7-1.6,4.3-4,4.3c-2.4,0-3.8-1.8-3.8-4.1c0-2.4,1.5-4.2,3.9-4.2
				C607.2,169.4,608.6,171.3,608.6,173.5z M602.7,173.6c0,1.6,0.7,2.7,2,2.7c1.2,0,1.9-1.2,1.9-2.7c0-1.5-0.7-2.7-2-2.7
				C603.5,170.8,602.7,172,602.7,173.6z"/>
			<path fill="#414042" d="M611,171.1h-2.2v-1.5h6.2v1.5h-2.2v6.5H611V171.1z"/>
			<path fill="#414042" d="M620.8,174.2h-3v1.9h3.3v1.5H616v-8.1h5v1.5h-3.2v1.7h3V174.2z"/>
			<path fill="#414042" d="M622.4,169.5h1.8v6.5h3.2v1.5h-5V169.5z"/>
		</g>
		<g>
			<path fill="#6D6E71" d="M595.7,169.5v3.1h3v-3.1h1.8v8.1h-1.8v-3.4h-3v3.4h-1.8v-8.1H595.7z"/>
			<path fill="#6D6E71" d="M609.6,173.5c0,2.7-1.6,4.3-4,4.3c-2.4,0-3.8-1.8-3.8-4.1c0-2.4,1.5-4.2,3.9-4.2
				C608.2,169.4,609.6,171.3,609.6,173.5z M603.7,173.6c0,1.6,0.7,2.7,2,2.7c1.2,0,1.9-1.2,1.9-2.7c0-1.5-0.7-2.7-2-2.7
				C604.5,170.8,603.7,172,603.7,173.6z"/>
			<path fill="#6D6E71" d="M612,171.1h-2.2v-1.5h6.2v1.5h-2.2v6.5H612V171.1z"/>
			<path fill="#6D6E71" d="M621.8,174.2h-3v1.9h3.3v1.5H617v-8.1h5v1.5h-3.2v1.7h3V174.2z"/>
			<path fill="#6D6E71" d="M623.4,169.5h1.8v6.5h3.2v1.5h-5V169.5z"/>
		</g>
	</g>
</g>
<g id="Layer_3">
</g>
</svg>
